<svg xmlns="http://www.w3.org/2000/svg" baseProfile="full" viewBox="0 0 354.81 89.61"><path fill="#3D3D3D" fill-rule="evenodd" d="M227.504 19.66l-.276-15.97h5.039v20.14h-7.245l-5.028-16.526h-.113l.282 16.526h-5V3.69h7.551l4.68 15.97h.11zm-91.56-14.091l-2.785 18.47h-5.498l3.77-20.347h9.057l3.749 20.347h-5.464l-2.715-18.47h-.114zm23.719 13.68l2.515-15.558h8.295l.452 20.347h-5.093L165.7 5.74l-.11.005-3.399 18.293h-5.159L153.63 5.74h-.114l-.129 18.298H148.3l.451-20.347h8.297l2.504 15.558h.111zm-40.566-.955c.2.491.134 1.125.04 1.51-.166.663-.624 1.356-1.98 1.356-1.271 0-2.047-.728-2.047-1.836l-.004-1.976h-5.457v1.575c0 4.537 3.573 5.902 7.393 5.902 3.687 0 6.709-1.25 7.196-4.644.249-1.76.065-2.914-.02-3.344-.863-4.263-8.583-5.524-9.16-7.914a2.582 2.582 0 0 1-.023-1.063c.147-.654.589-1.366 1.86-1.366 1.194 0 1.891.735 1.891 1.841v1.256h5.079V8.168c0-4.434-3.981-5.127-6.862-5.127-3.618 0-6.57 1.2-7.114 4.52-.146.897-.167 1.711.051 2.739.881 4.157 8.109 5.363 9.157 7.994zm66.157-.04c.19.487.133 1.112.039 1.495-.164.67-.621 1.34-1.964 1.34-1.263 0-2.025-.713-2.025-1.815l-.002-1.957h-5.405l-.003 1.556c0 4.496 3.538 5.842 7.326 5.842 3.644 0 6.64-1.232 7.117-4.595.248-1.74.065-2.882-.02-3.313-.853-4.216-8.498-5.468-9.062-7.833a2.559 2.559 0 0 1-.026-1.045c.145-.65.58-1.357 1.841-1.357 1.181 0 1.872.728 1.872 1.816v1.246h5.028V8.23c0-4.389-3.944-5.073-6.79-5.073-3.584 0-6.51 1.172-7.044 4.468-.149.89-.171 1.697.045 2.712.875 4.12 8.033 5.315 9.073 7.917zm17.078 2.726c1.413 0 1.852-.96 1.953-1.467.044-.22.051-.515.049-.778V3.688h5.159V18.27c.004.377-.035 1.143-.056 1.344-.355 3.794-3.363 5.02-7.105 5.02-3.74 0-6.746-1.226-7.098-5.02a19.138 19.138 0 0 1-.048-1.344V3.688h5.144v15.047c-.004.263.006.558.049.778.102.506.541 1.467 1.953 1.467zm42.451-.208c1.471 0 1.986-.928 2.081-1.47.038-.232.053-.517.046-.776v-2.95h-2.083v-2.975h7.2v5.46c-.003.38-.008.663-.064 1.342-.339 3.703-3.557 5.028-7.16 5.028-3.606 0-6.821-1.325-7.155-5.028a14.228 14.228 0 0 1-.071-1.343l.002-8.56c0-.367.044-1.006.087-1.332.451-3.818 3.531-5.03 7.139-5.03 3.606 0 6.77 1.202 7.145 5.03.059.634.038 1.332.04 1.332v.676h-5.126V9.033s-.005-.482-.067-.765c-.092-.448-.477-1.482-2.034-1.482-1.476 0-1.913.98-2.026 1.482-.059.258-.082.62-.082.953v9.305c-.003.26.01.544.046.776.098.542.61 1.47 2.082 1.47zM103.459 38.85h8.877v47.648h-8.877V38.849zm14.81 9.463h8.748v5.217c1.26-1.594 2.859-2.872 4.798-3.836 1.934-.964 4.143-1.447 6.624-1.447 4.744 0 8.457 1.41 11.127 4.231 2.679 2.818 4.017 6.747 4.017 11.787v22.233h-8.939V65.26c0-2.893-.723-5.177-2.157-6.859-1.435-1.678-3.592-2.517-6.46-2.517-2.529 0-4.648.87-6.37 2.613-1.715 1.746-2.575 4.252-2.575 7.528v20.47h-8.813V48.313zm37.401 0h6.529v-5.808l8.875-6.07v11.878h7.767v7.9h-7.767v14.294c0 1.654.086 2.993.26 4.013.177 1.023.538 1.805 1.079 2.35.542.545 1.328.903 2.349 1.079 1.025.172 2.384.26 4.079.26v8.289h-1.238c-2.959 0-5.428-.26-7.41-.783-1.981-.524-3.554-1.403-4.733-2.643-1.173-1.24-2.012-2.874-2.512-4.895-.499-2.024-.749-4.56-.749-7.607V56.21h-6.529v-7.899zm44.716 7.703c-2.65 0-4.951.587-6.884 1.758-1.94 1.174-3.299 2.72-4.081 4.637h21.673c-.653-2.095-1.917-3.686-3.786-4.77-1.871-1.083-4.182-1.626-6.922-1.626zm.329 30.549c-3.002 0-5.747-.494-8.227-1.48-2.476-.986-4.601-2.338-6.364-4.058-1.759-1.718-3.129-3.743-4.111-6.072-.978-2.326-1.467-4.812-1.467-7.454 0-2.684.51-5.202 1.534-7.551 1.022-2.349 2.423-4.383 4.209-6.102 1.783-1.72 3.883-3.083 6.3-4.09 2.416-1.006 5.013-1.51 7.797-1.51 2.831 0 5.45.459 7.867 1.378 2.417.916 4.494 2.2 6.236 3.854a17.88 17.88 0 0 1 4.08 5.844c.977 2.245 1.466 4.692 1.466 7.345v3.12h-31.07c.61 2.699 1.933 4.874 3.979 6.526 2.046 1.654 4.638 2.48 7.771 2.48 2.481 0 4.632-.608 6.46-1.827 1.827-1.218 3.197-2.849 4.112-4.894l7.245 4.177c-1.654 3.089-3.968 5.581-6.949 7.474-2.985 1.89-6.602 2.84-10.868 2.84zm23.234-38.252h8.75v5.68c1.784-3.785 5.045-5.68 9.789-5.68 1.391 0 2.645.155 3.755.458 1.106.305 2.098.695 2.97 1.173l-3.331 8.355a9.815 9.815 0 0 0-2.188-1.075c-.803-.284-1.839-.424-3.098-.424-2.569 0-4.515.728-5.842 2.186-1.329 1.458-1.992 3.84-1.992 7.146v20.366h-8.813V48.312zm28.133 0h8.748v5.217c1.259-1.594 2.857-2.872 4.796-3.836 1.933-.964 4.144-1.447 6.625-1.447 4.743 0 8.457 1.41 11.128 4.231 2.677 2.818 4.015 6.747 4.015 11.787v22.233h-8.939V65.26c0-2.893-.722-5.177-2.157-6.859-1.433-1.678-3.59-2.517-6.459-2.517-2.528 0-4.649.87-6.37 2.613-1.715 1.746-2.576 4.252-2.576 7.528v20.47h-8.811V48.313zm59.003 7.703c-2.649 0-4.95.587-6.883 1.758-1.94 1.174-3.3 2.72-4.081 4.637h21.673c-.653-2.095-1.917-3.686-3.788-4.77-1.869-1.083-4.18-1.626-6.921-1.626zm.33 30.549c-3.002 0-5.748-.494-8.228-1.48-2.475-.986-4.6-2.338-6.363-4.058-1.759-1.718-3.13-3.743-4.111-6.072-.979-2.326-1.467-4.812-1.467-7.454 0-2.684.51-5.202 1.534-7.551 1.02-2.349 2.423-4.383 4.208-6.102 1.784-1.72 3.882-3.083 6.301-4.09 2.416-1.006 5.013-1.51 7.796-1.51 2.832 0 5.45.459 7.868 1.378 2.417.916 4.494 2.2 6.236 3.854a17.862 17.862 0 0 1 4.079 5.844c.978 2.245 1.467 4.692 1.467 7.345v3.12h-31.07c.61 2.699 1.933 4.874 3.979 6.526 2.046 1.654 4.638 2.48 7.771 2.48 2.48 0 4.632-.608 6.46-1.827 1.827-1.218 3.196-2.849 4.11-4.894l7.247 4.177c-1.654 3.089-3.969 5.581-6.949 7.474-2.986 1.89-6.602 2.84-10.868 2.84zm20.228-38.252h6.528v-5.808l8.876-6.07v11.878h7.765v7.9h-7.765v14.294c0 1.654.085 2.993.26 4.013.175 1.023.536 1.805 1.079 2.35.542.545 1.327.903 2.348 1.079 1.025.172 2.385.26 4.078.26v8.289h-1.237c-2.958 0-5.429-.26-7.41-.783-1.982-.524-3.555-1.403-4.733-2.643-1.174-1.24-2.013-2.874-2.513-4.895-.499-2.024-.748-4.56-.748-7.607V56.21h-6.528v-7.899z"/><path fill="#7882FF" d="M34.588 0h20.43C74.12 0 89.604 15.485 89.604 34.587v20.43c0 19.103-15.485 34.588-34.588 34.588h-20.43C15.486 89.605 0 74.12 0 55.017v-20.43C0 15.485 15.485 0 34.588 0z"/><path fill="#4D5CC1" d="M68.608 44.803c0-.981-.058-1.948-.172-2.898a18.49 18.49 0 0 0-.88-1.582c5.731 5.086 8.537 10.572 6.885 14.881-1.472 3.84-6.2 6.01-12.635 6.402-6.28.384-14.187-.925-22.274-4.025-8.066-3.092-14.808-7.39-19.223-11.86-4.546-4.604-6.627-9.393-5.152-13.242 1.569-4.092 6.835-6.287 13.922-6.457l.178-.004a24.228 24.228 0 0 0-7.143 9.564c1.393 4.256 7.441 9.237 19.17 14.18 9.598 4.045 20.813 6.032 25.82 2.882l.261-.172a24.132 24.132 0 0 0 1.243-7.67z"/><path fill="#FFF" d="M68.436 41.905c.114.95.172 1.917.172 2.898 0 2.68-.437 5.26-1.243 7.67-4.87 3.39-16.313 1.406-26.08-2.71-11.73-4.944-17.778-9.925-19.171-14.181a24.227 24.227 0 0 1 7.143-9.564l.122-.097a24.056 24.056 0 0 1 15.07-5.277c12.362 0 22.555 9.285 23.987 21.261zM44.45 68.961c-13.035 0-23.659-10.324-24.141-23.24 4.415 4.47 11.157 8.768 19.223 11.86 8.087 3.1 15.993 4.41 22.274 4.025a24.087 24.087 0 0 1-17.356 7.355z"/></svg>