<svg viewBox="0 0 786 131" xmlns="http://www.w3.org/2000/svg" xmlns:xlink="http://www.w3.org/1999/xlink"><defs><path id="a" d="M0 .933h257.734V124.94H0z"/></defs><g fill="none" fill-rule="evenodd"><path fill="#000" d="M346.28 94.277h-.344L306.468 6.933h-40.669v6.521h13.728l5.148 8.923v89.232l-6.864 10.639h-12.012v6.521h50.622v-6.521H302.35l-8.065-10.639V40.395h.342l40.895 88.352h5.647l37.542-90.068h.344v76.362l-7.035 7.207h-8.924v6.521h59.374v-6.521h-12.012l-6.864-7.207V18.945l3.432-5.491h15.444V6.933h-39.64l-36.55 87.344"/><g transform="translate(0 6)"><mask id="b" fill="#fff"><use xlink:href="#a"/></mask><path fill="#000" mask="url(#b)" d="M209 7.454h12.183l8.066 10.639v64.35h-.344L167.301.933h-29.515v4.805l12.183 16.474v83.225l-7.035 10.811h-8.8v6.521h45.694v-6.521h-12.184l-8.065-10.811V32.851h.343l68.18 89.896h10.756V18.093l7.379-10.639h11.497V.933H209v6.521M80.823 7.454h12.699l8.065 10.638v54.57c0 26.255-10.125 41.527-31.403 41.527-22.651 0-27.628-14.243-27.628-39.64V14.661l6.864-7.207h11.841V.933H0v6.521h10.124l7.036 7.207V76.78c0 34.664 18.876 48.22 51.48 48.22 32.089 0 42.556-24.368 42.556-52.51V18.092l7.036-10.638h11.4V.933H80.823v6.521"/></g><path d="M461.958 80.548l19.735-56.283 19.39 56.283h-39.125zM498.337.069h-1.715l-19.735 9.953-36.721 101.587-9.611 12.355v4.805h40.498v-6.521h-14.586l-4.975-11.84 7.378-21.279h45.302l8.923 25.912-5.147 7.207h-11.84v6.521h54.054v-4.805l-9.268-8.923L498.337.069zM615.211 118.3c-9.265 0-15.271-3.774-15.271-3.774V18.259s4.29-2.746 12.183-2.746c22.136 0 34.835 24.539 34.835 56.971 0 30.545-7.894 45.816-31.747 45.816zm-2.23-111.367h-54.74v6.521h10.467l6.693 7.207v94.38l-6.693 7.207h-10.467v6.521h54.396c32.262 0 61.434-26.77 61.434-62.291s-18.705-59.545-61.09-59.545zM781.978 95.011l-25.139 25.178h-33.062V15.513h35.252l16.057 15.778h3.089V6.933H682.08v6.521h10.466l6.694 7.207v94.38l-6.694 7.207H682.08v6.521h95.752l7.235-33.758h-3.089" fill="#000"/><path fill="#000" d="M734.203 83.766l6.062 6.063 37.894-37.893-6.064-6.063-37.892 37.893"/></g></svg>