<svg xmlns="http://www.w3.org/2000/svg" viewBox="0 0 88 88"><g fill="currentColor" fill-rule="nonzero"><path d="M44 22c-12.131 0-22 9.869-22 22s9.869 22 22 22 22-9.869 22-22-9.869-22-22-22zm14.293 16.293a.999.999 0 1 1 1.414 1.414l-2 2a.997.997 0 0 1-1.414 0 .999.999 0 0 1 0-1.414l2-2zm-6-7a.999.999 0 0 1 1.414 0l2 2a.999.999 0 1 1-1.414 1.414l-2-2a.999.999 0 0 1 0-1.414zm-9-2l2-2a.999.999 0 1 1 1.414 1.414l-2 2a.997.997 0 0 1-1.414 0 .999.999 0 0 1 0-1.414zM44 37c3.86 0 7 3.141 7 7s-3.14 7-7 7-7-3.141-7-7 3.14-7 7-7zm-9.707-6.707a.999.999 0 0 1 1.414 0l2 2a.999.999 0 1 1-1.414 1.414l-2-2a.999.999 0 0 1 0-1.414zm-5 9l2-2a.999.999 0 1 1 1.414 1.414l-2 2a.997.997 0 0 1-1.414 0 .999.999 0 0 1 0-1.414zM44 64c-10.024 0-18.325-7.42-19.758-17.052 1.336.662 2.95 1.029 4.658 1.029.146 0 .294-.002.442-.008 2.233-.082 4.291-.768 5.9-1.929C36.17 50.022 39.74 53 44 53c4.112 0 7.58-2.775 8.652-6.548 2.292 2.373 5.657 3.619 9.949 3.619.148 0 .307-.015.457-.018C60.487 58.131 52.918 64 44 64z"/></g></svg>
