<svg xmlns="http://www.w3.org/2000/svg" viewBox="0 0 88 88"><g fill="currentColor" fill-rule="nonzero"><path d="M34.209 39.795L29 34.586V25a1 1 0 1 0-2 0v10c0 .266.105.52.293.707l5.502 5.502a.983.983 0 0 1 .257.975.983.983 0 0 1-.721.703l-4.573 1.143A1 1 0 0 0 27 45v3.37l-3.823 1.832a2.982 2.982 0 0 0-1.703 2.655 2.982 2.982 0 0 0 1.613 2.711L27 57.606V59c0 1.654-1.346 3-3 3h-2a1 1 0 1 0 0 2h2c2.757 0 5-2.243 5-5v-2a.999.999 0 0 0-.538-.887l-4.451-2.318a.984.984 0 0 1-.538-.904.984.984 0 0 1 .568-.885l4.392-2.104c.346-.167.567-.517.567-.902v-3.22l3.815-.954a2.97 2.97 0 0 0 2.164-2.109 2.968 2.968 0 0 0-.77-2.922zM62 28H46c-2.757 0-5 2.243-5 5v11.667L35.2 52.4A.999.999 0 0 0 36 54h26c2.757 0 5-2.243 5-5V33c0-2.757-2.243-5-5-5zm-3 18H49a1 1 0 1 1 0-2h10a1 1 0 1 1 0 2zm0-8H49a1 1 0 1 1 0-2h10a1 1 0 1 1 0 2z"/></g></svg>
