<svg xmlns="http://www.w3.org/2000/svg" viewBox="0 0 88 88"><g fill="currentColor" fill-rule="nonzero"><path d="M63 63H46v-2h16V27H41v-2h22a1 1 0 0 1 1 1v36a1 1 0 0 1-1 1z"/><path d="M55 37h-8a1 1 0 0 1 0-2h8a1 1 0 0 1 0 2zM55 53h-8a1 1 0 0 1 0-2h8a1 1 0 0 1 0 2zM55 45h-8a1 1 0 0 1 0-2h8a1 1 0 0 1 0 2zM41.813 44.419L37 37.68V31h-8v6.68l-4.813 6.739A.994.994 0 0 0 24 45v19a3 3 0 0 0 3 3h12a3 3 0 0 0 3-3V45a.994.994 0 0 0-.187-.581zM39 58a1 1 0 0 1-1 1H28a1 1 0 0 1-1-1v-6a1 1 0 0 1 1-1h10a1 1 0 0 1 1 1v6zM37 29v-7a1 1 0 0 0-1-1h-6a1 1 0 0 0-1 1v7h8z"/></g></svg>
