<svg xmlns="http://www.w3.org/2000/svg" viewBox="0 0 44 34"><path fill="currentColor" d="M15.078 23.336l-1.015.703c.729.417 1.12.625 1.171.625.105 0 .209-.078.313-.234l.156-.235.235-.234-.391-.39c-.156-.157-.313-.235-.469-.235zm-.11-2.083c-.156 0-.312.104-.468.312-.208.157-.286.287-.234.391 0 .156.078.339.234.547.208.156.365.234.469.234.156.052.416-.104.781-.468l-.312-.782c-.209-.156-.365-.234-.47-.234zm-10.85 3.669l-.157-.235-.078.625c.156-.156.234-.286.234-.39zm1.507-.961l.078-.547c-.104-.052-.573-.13-1.406-.234v.078c.156.26.338.52.547.781l.625.781.078-.547.078-.312zm1.078-3.61l-.547-.546L6 19.57l-.234-.234c-.105.312-.26.755-.47 1.328.313-.104.782-.208 1.407-.312zm.063-3.921l.234.234.156-.234.235-.157c.104-.156.156-.286.156-.39 0-.104-.052-.209-.156-.313-.157-.156-.287-.234-.391-.234-.104 0-.208.052-.312.156-.157.156-.235.287-.235.39 0 .053.052.157.156.313l.157.235zm1.863-.586c0-.104-.078-.235-.234-.39l-.391-.313-.39.312c-.157.156-.235.287-.235.39-.052.053.156.391.625 1.016l.625-1.015zm.576-2.43v-.156a1.23 1.23 0 0 0-.469.312c-.156.157-.208.287-.156.39 0 .157.078.313.234.47.157.156.313.26.47.312l.155-.078a3.147 3.147 0 0 1-.234-1.25zm1.3-5.336c.052-.104.026-.234-.078-.39l-.313-.391c-.833.469-.86.937-.078 1.406l.313-.312c.104-.157.156-.26.156-.313zm.02 17.629c0 .052.312.417.937 1.094.052-.886.052-1.354 0-1.406 0-.053-.078-.105-.234-.157-.156-.052-.26-.052-.313 0-.104 0-.208.078-.312.235-.104.104-.13.182-.078.234zm-1.851-3.824a1.676 1.676 0 0 0-.313-.39l-.39-.391-.39.39c-.157.156-.235.287-.235.39-.052.105 0 .235.156.391l.469.625.468-.625c.157-.156.235-.286.235-.39zm2.263-5.156l-.234-.235-.39.078h-.391c-.313.052-.6.104-.86.157l1.172.78c.105-.051.339-.312.703-.78zM9.43 28.273c.052-.052.078-.156.078-.312l-.078-.547-.47.078h-.468v1.094l.625-.156c.156 0 .26-.052.313-.157zm-.29-1.234l1.016.625c.104-.052.235-.156.39-.312l.313-.391-.312-.39c-.156-.157-.287-.235-.39-.235-.053 0-.391.234-1.016.703zM.256 23.752l.085-.336.086-.588.085-.336v-.084l.255-1.596v-.084l.17-.588v-.252l.255-1.092.086-.168.085-.504.085-.42.17-.504.17-.672.085-.42.17-.588.086-.336.255-.756v-.084l.255-1.008.085-.084 1.192-3.949c.737-2.128 2.44-4.676 5.106-7.644 1.872-2.184 3.772-2.212 5.701-.084 1.305 1.4 1.958 2.772 1.958 4.116 0 .84-.256 1.68-.766 2.52l-.17.336-1.702 2.185c-.625.896-.937 1.624-.937 2.184V13c.057.504.511 1.12 1.362 1.848l1.191.84 1.107.84C18.922 18.432 20 20.7 20 23.332c.056 3.472-1.589 6.132-4.936 7.98l-3.234 1.596-.68.252-.682.336c-.51.224-.85.392-1.02.504h-.171c-2.213 0-4.227-.728-6.042-2.184-1.872-1.4-2.922-3.024-3.149-4.872L0 26.776v-1.092l.17-1.008v-.252l.085-.672zm28.666-13.088l1.015-.703c-.729-.417-1.12-.625-1.171-.625-.105 0-.209.078-.313.234l-.156.235-.235.234.391.39c.156.157.313.235.469.235zm.11 2.083c.156 0 .312-.104.468-.312.208-.157.286-.287.234-.391 0-.156-.078-.339-.234-.547-.208-.156-.365-.234-.469-.234-.156-.052-.416.104-.781.468l.312.782c.209.156.365.234.47.234zm10.85-3.669l.157.235.078-.625c-.156.156-.234.286-.234.39zm-1.507.961l-.078.547c.104.052.573.13 1.406.234v-.078a7.109 7.109 0 0 0-.547-.781l-.625-.781-.078.547-.078.312zm-1.078 3.61l.547.546.156.235.234.234c.105-.312.26-.755.47-1.328-.313.104-.782.208-1.407.312zm-.063 3.921L37 17.336l-.156.234-.235.157c-.104.156-.156.286-.156.39 0 .104.052.209.156.313.157.156.287.234.391.234.104 0 .208-.052.313-.156.156-.156.234-.287.234-.39 0-.053-.052-.157-.156-.313l-.157-.235zm-1.863.586c0 .104.078.235.234.39l.391.313.39-.312c.157-.156.235-.287.235-.39.052-.053-.156-.391-.625-1.016l-.625 1.015zm-.576 2.43v.156a1.23 1.23 0 0 0 .469-.312c.156-.157.208-.287.156-.39 0-.157-.078-.313-.234-.47a1.23 1.23 0 0 0-.47-.312l-.155.078c.156.365.234.781.234 1.25zm-1.3 5.336c-.052.104-.026.234.078.39l.313.391c.833-.469.86-.937.078-1.406l-.313.312c-.104.157-.156.26-.156.313zm-.02-17.629c0-.052-.312-.417-.937-1.094-.052.886-.052 1.354 0 1.406 0 .053.078.105.234.157.156.052.26.052.313 0 .104 0 .208-.078.312-.235.104-.104.13-.182.078-.234zm1.851 3.824c.052.104.156.235.313.39l.39.391.39-.39c.157-.156.235-.287.235-.39.052-.105 0-.235-.156-.391l-.469-.625-.468.625c-.157.156-.235.286-.235.39zm-2.264 5.156l.235.235.39-.078h.391c.313-.052.6-.104.86-.157l-1.172-.78c-.105.051-.339.312-.703.78zM34.57 5.727c-.052.052-.078.156-.078.312l.078.547.47-.078h.468V5.414l-.625.156c-.156 0-.26.052-.313.157zm.29 1.234l-1.016-.625a1.676 1.676 0 0 0-.39.312l-.313.391.312.39c.156.157.287.235.39.235.053 0 .391-.234 1.016-.703zm8.885 3.287l-.085.336-.086.588-.085.336v.084l-.255 1.596v.084l-.17.588v.252l-.255 1.092-.086.168-.085.504-.085.42-.17.504-.17.672-.085.42-.17.588-.086.336-.255.756v.084l-.255 1.008-.085.084-1.192 3.949c-.737 2.128-2.44 4.676-5.106 7.644-1.872 2.184-3.772 2.212-5.701.084-1.305-1.4-1.958-2.772-1.958-4.116 0-.84.256-1.68.766-2.52l.17-.336 1.702-2.185c.625-.896.937-1.624.937-2.184V21c-.057-.504-.511-1.12-1.362-1.848l-1.191-.84-1.107-.84c-2.156-1.904-3.234-4.172-3.234-6.804-.056-3.472 1.589-6.132 4.936-7.98l3.234-1.596.68-.252.682-.336c.51-.224.85-.392 1.02-.504h.171c2.213 0 4.227.728 6.042 2.184 1.872 1.4 2.922 3.024 3.149 4.872l.085.168v1.092l-.17 1.008v.252l-.085.672z"/></svg>
