<svg xmlns="http://www.w3.org/2000/svg" viewBox="0 0 108 127"><path fill="currentColor" fill-rule="evenodd" d="M29.698 6.657l5.12-5.12c.683 0 1.537-.086 2.56-.257a89.282 89.282 0 0 0 2.817-.512A9.138 9.138 0 0 0 42.5 0a55.51 55.51 0 0 0 2.817 1.28c1.194.512 2.304.939 3.328 1.28a9.665 9.665 0 0 0 3.072.512c1.707.683 4.267 1.366 7.68 2.048 2.049.342 3.244 1.195 3.585 2.56V9.73l-3.072 4.608c-3.755 3.755-6.998 8.363-9.73 13.825-2.389 5.12-4.095 8.193-5.12 9.217-1.024 1.707-2.218 4.267-3.584 7.68-.682 2.39 0 3.585 2.048 3.585 2.39.341 6.828 2.219 13.313 5.632 1.025.683 1.963 1.878 2.817 3.584.853 1.707 1.621 2.902 2.304 3.585.683.682 1.195 1.792 1.536 3.328.341 1.536.683 2.646 1.024 3.328 0 .683.085 1.878.256 3.585.17 1.706.256 3.072.256 4.096-.341.683-.683 1.707-1.024 3.072-.341 1.366-.683 2.39-1.024 3.072-1.366 3.073-2.219 4.95-2.56 5.633-.683.341-1.536 1.11-2.56 2.304-1.025 1.195-1.878 1.963-2.56 2.304l-4.61 4.609c-1.023.682-2.389 1.365-4.095 2.048-1.707.682-2.902 1.194-3.585 1.536-.682.341-1.877.597-3.584.768-1.707.17-2.901.597-3.584 1.28-1.366 0-3.414.085-6.145.256-2.73.17-4.608.256-5.632.256-2.048-.341-4.608-1.536-7.68-3.584-3.073-2.048-4.78-3.073-5.121-3.073a9.142 9.142 0 0 1-2.56-2.56C4.95 88.241 2.56 84.316 1.536 81.926L0 79.366c0-4.779.341-7.68 1.024-8.705L0 67.077v-5.632c.341-.683.683-1.707 1.024-3.072.341-1.366.683-2.39 1.024-3.073 0-.341.512-2.56 1.536-6.656 0-1.366.683-3.755 2.048-7.169.342-.341.598-.853.768-1.536.171-.683.427-1.365.769-2.048l1.024-2.048 5.632-9.729 3.584-5.376c1.707-2.56 2.902-4.523 3.585-5.889l6.144-6.144c.683-.342 1.536-1.024 2.56-2.048zm54.408 24c4.438 0 7.68.34 9.729 1.024.683 0 1.195-.171 1.536-.512l3.072 1.536c.683 1.024 1.024 2.39 1.024 4.096-1.365 2.73-2.56 4.779-3.584 6.144l-4.096 4.609c0 .341-1.195 3.243-3.584 8.705 0 1.024-.342 2.816-1.024 5.376-.683 2.56-.854 4.523-.513 5.888 0 .683.513 1.024 1.537 1.024l3.584 1.025 5.12 2.56c4.097 3.072 6.657 5.632 7.68 7.68 0 .342.257 1.11.769 2.305a55.51 55.51 0 0 0 1.28 2.816c0 2.39.17 4.437.512 6.144-.683.683-1.024 1.536-1.024 2.56-.341 1.024-.512 2.56-.512 4.609l-6.657 12.8-3.072 2.561-4.608 3.584c-.683.342-1.707.939-3.072 1.792-1.366.854-2.56 1.451-3.585 1.793l-11.265 5.632c-1.365 0-3.157.085-5.376.256-2.219.17-4.011.256-5.376.256-4.097-2.048-6.316-3.072-6.657-3.072-4.096-2.39-6.486-4.097-7.168-5.12 0-1.025-.513-2.049-1.537-3.073 0-1.024-.085-2.645-.256-4.864-.17-2.22-.256-3.84-.256-4.865-1.024-1.706-1.536-3.584-1.536-5.632V84.933c0-.342.342-1.195 1.024-2.56 0-2.049.683-4.78 2.048-8.193l3.073-8.193c.341-.341.682-1.194 1.024-2.56.341-1.365.853-2.39 1.536-3.072l1.024-3.072 6.144-13.313c.342-1.707 1.537-3.585 3.585-5.633.341-.341 1.11-1.45 2.304-3.328 1.195-1.878 2.133-3.158 2.816-3.84l2.56-2.049c.683-.682 1.536-.853 2.56-.512 3.414 1.024 5.633 1.366 6.657 1.024.341 0 1.195.342 2.56 1.025z"/></svg>
