<svg xmlns="http://www.w3.org/2000/svg" viewBox="0 0 117 119">
  <path fill="#000" fill-rule="evenodd" d="M60.875 39.125h-.406l-.782-.938h-.937l-1.094-1.093h-.781L55.781 36l-.625-.469-1.093-.156-.47-.938-1.093-.468-.781-.313H47.5l-1.25.313-1.094 1.093-.468.938-.782 1.25-.156.781-.625.469v4.531l.313.625.468 2.188-.781.625-.625 1.093.313 2.657.78.781 1.25.781h2.813l2.657-.156h3.28l1.407.938.032.483 1.062-.796 2.187-.469.469-.625v-2.5l.938-1.25.156-6.562.781-1.094.25-.625zm-6.778 17.076l-.816 1.049-4.531-.156-2.031.781-2.5.469-.157.937-.937.625.938 1.875v7.657l.468.78-.312.782v5.938l-.469 1.093.781.625.157 5 .624.938 2.188.625 1.719.625 1.093 1.25.47 1.094v.937l-.47.625-4.374-.313-2.97.313h-2.343l-.938.469h-1.093l-.782-.625-1.25.625-1.874.469h-1.094l-1.563-.47-.937-.468v-1.563l-.313-.78.157-.782.625-1.094.78-1.25 1.407.156.938-.312.624-.938.626-.78.468-4.844-.781-.782.469-.625v-.937l-.469-.781v-3.126l.156-3.28.625-2.813-.781-.156.469-.938V57.25l-.625.156-3.75-.156-1.563-.625-.312-1.094v-1.718l.937-.626 1.25-.937 2.188-.469.468-.625v-2.5l.938-1.25.156-6.562.782-1.094.624-1.563-.156-1.562.782-1.563.937-.78v-1.094h.625l.156-.938 1.875-1.875 2.032-.781L45 29.437l.938-.937 1.406.156.781-.312.938.312 1.25-.468 1.25.625 2.343-.157.313-.312.781.625 3.906.156 2.813.313 1.093.312.626.938V31l.803.603 1.228-1.228 2.031-.781 1.563-.157L70 28.5l1.406.156.781-.312.938.312 1.25-.468 1.25.625 2.344-.157.312-.312.781.625 3.907.156 2.812.313 1.094.312.625.938V31l1.25.938.313 4.218-.626.469-.624.938-1.25.78-.47.782h-1.562l-.781-.938h-.938l-1.093-1.093h-.781L79.844 36l-.625-.469-1.094-.156-.469-.938-1.094-.468-.78-.313h-4.22l-1.25.313-1.093 1.093-.469.938-.781 1.25-.156.781-.626.469v4.531l.313.625.469 2.188-.781.625-.626 1.093.313 2.657.781.781 1.25.781h2.813l2.656-.156h3.281l1.406.938.157 2.343-.781.938-1.094 1.406-4.531-.156-2.032.781-2.5.469-.156.937-.938.625.938 1.875v7.657l.469.78-.313.782v5.938l-.469 1.093.782.625.156 5 .625.938 2.188.625 1.718.625 1.094 1.25.469 1.094v.937l-.469.625L70 89.437l-2.969.313h-2.344l-.937.469h-1.094l-.781-.625-1.25.625-1.875.469h-1.094l-1.562-.47-.938-.468v-1.563l-.312-.78.156-.782.625-1.094.781-1.25 1.407.156.937-.312.625-.938.625-.78.469-4.844-.782-.782.47-.625v-.937l-.47-.781v-3.126l.157-3.28.625-2.813-.782-.156.47-.938V57.25l-.626.156-3.75-.156-1.562-.625-.122-.424zM23.171 21.217c-.138.208-.334.316-.554.154-.25-.183-.296-.457-.104-.698.248-.309.506-.628.819-.863l.044-.035c-.09-.04-.168-.081-.202-.146-.058-.111-.032-.315.035-.434.405-.72 1.056-1.16 1.79-1.487.215-.096.432-.001.535.196l.005.012c.129-.126.259-.25.385-.378.61-.621 1.334-.701 2.115-.604.058.32-.129.44-.27.476-.796.2-1.308.683-1.564 1.452-.056.167-.158.451-.276.402-.827-.346-.979.577-1.515.786-.527.205-.92.678-1.243 1.167zm72.003 71.788c-.112.094-.26.059-.344-.065-.045-.065-.085-.183-.056-.242.274-.554.497-1.15 1.003-1.546a11.6 11.6 0 0 0 2.938-3.386c.339-.594.968-.845 1.185-1.516l.313.28c-.495.781-.952 1.59-1.495 2.338a67.313 67.313 0 0 1-2.454 3.162c-.306.373-.716.662-1.09.975zM5.948 87.3c.657-.02 2.406 1.133 2.559 1.718.096.367.074.742-.403.834-.717.138-2.587-1.085-2.766-1.788-.126-.494.076-.748.61-.764zm94.59-1.596c-.334-.168-.124-.445.006-.673.934-1.64 1.862-3.283 2.808-4.915.077-.132.267-.197.412-.29.061.2.135.41.039.607-.818 1.667-1.455 3.433-2.658 4.89-.16.195-.302.534-.607.38zm3.213-5.92l.033.03-.02.013-.013-.042zM2.23 55.762c-.256.182-.593.205-.565-.174.13-1.77-.085-3.595.774-5.265.063 1.121.361 2.237.016 3.346-.124.4-.15.77.02 1.158.162.369.09.697-.245.935zm56.617 61.5c.214.009.467.049.428.364-.026.205-.208.261-.383.3-1.453.322-2.848.26-4.14-.599.075-.088.128-.205.178-.203 1.306.036 2.612.081 3.917.138zm20.377-12.915c-1.59.852-3.173 1.108-4.5 2.361 1.665-.005 3.886-1.116 4.5-2.361zm-4.98 2.4c-1.877.372-3.386 1.143-4.944 1.807 1.96.04 3.984-.693 4.945-1.807zM67.59 2.193c1.01.798 2.098 1.242 3.53 1.377-1.502-1.553-2.37-1.878-3.53-1.377zm45.936 47.637c.356 1.25.792 2.429.942 3.687.03.255.095.614-.227.664-.374.06-.34-.303-.338-.558.012-.993-.452-1.877-.651-2.821-.075-.354-.208-.669.274-.972zM100.23 33.753c-.244-.463-.532-.912-.508-1.47.115-.337-.152-.867.44-.952.424-.061.778.436.704 1.05-.048.392-.088.777-.065 1.172.01.182-.05.352-.263.39-.148.026-.246-.072-.308-.19zm-53.624-21.99c-.36.025-.612-.1-.623-.496-.015-.514.644-.904 1.539-.933.309-.01.508.095.527.43.033.6-.553 1.004-1.443.998zM25.978 107.44c.721 1.292 1.919 1.939 3.203 2.468-.49-1.593-2.066-1.738-3.203-2.468zm8.417-.987c-.605-.145-1.202-.31-1.543-.905-.086-.15.02-.287.127-.328.607-.235 1.205.001 1.8.09.249.037.277.307.228.738-.023.176-.097.53-.612.405zM50.981 8.515c-.36-.277-.346-.63.072-.814.36-.16.756-.24 1.029-.323.334.02.585-.037.675.239.08.25-.098.408-.259.562-.613.585-1.063.685-1.517.336zm63.844 48.853c-.201 1.659.035 3.644.5 4.422.056-1.624-.31-3.017-.5-4.422zm-1.354 18.467c.28-.016.36.195.389.432.105.878-.252 1.596-.838 2.558-.189-1.096.007-1.893.054-2.687.01-.18.216-.293.395-.303zM87.48 99.884c-.697.34-.995 1.249-1.874 1.311-.072.005-.15-.072-.284-.14.31-.765 1.064-1.09 1.613-1.602.122-.115.34-.065.475.083.092.1.17.3.07.348zm27.978-26.938c.45-.88.44-1.773.42-2.678-.756 1.032-.857 1.76-.42 2.678zM75.023 4.496c-.584.018-.87-.251-.83-.754.035-.424.335-.456.654-.474.509-.032.705.272.756.715.05.437-.246.503-.58.513zM49.025 1.284c-.386-.063-.8-.2-.764-.711.022-.314.3-.39.6-.395.318.064.777.109.814.46.026.255-.183.722-.65.646zM3.829 85.42c.588.043 1.038.457.973.832-.059.34-.343.387-.61.36-.447-.043-.755-.31-.8-.754-.032-.332.248-.424.437-.438zm87.474 11.26c-1.41.128-1.514.24-1.374 1.437.542-.366.996-.735 1.374-1.437zm-55.8-92.275c-.161-.071-.271-.234-.221-.431.068-.274.32-.328.523-.28.53.127.948.409 1.119 1.073-.575.075-.994-.174-1.42-.362zm5.738 8.733c-.21-.06-.412-.179-.428-.435-.016-.256.143-.451.375-.437.336.02.651.067.99-.055.185-.067.275.155.312.39-.032.072-.08.28-.133.281-.394.01-.709.373-1.116.256zM4.64 35.191c-.378-.058-.81-.111-.927-.557-.06-.228.163-.37.437-.412.4.032.7.265.815.67.055.19-.147.326-.325.299zm101.728 38.677c-.328.05-.473-.196-.462-.49.017-.431.207-.776.672-.84.338-.046.432.217.475.455-.021.492-.235.807-.685.875zm-53.13 42.978c.279-.056.526.002.757.332-.204.306-.474.342-.737.329-.426-.021-1.123.032-1.085-.456.054-.683.694-.131 1.065-.205zM33.457 6.262c-.312-.862-.937-.838-1.896-.773.676.678 1.154.989 1.896.773zm46.223 98.433c-.191-.053-.3-.207-.228-.397.206-.544.754-.522 1.11-.695.34.04.471.169.407.442a.33.33 0 0 1-.054.12c-.308.415-.687.68-1.235.53zM3.187 72.65c.033.404-.331.453-.607.558-.36 0-.602-.178-.643-.522-.05-.41.26-.524.586-.524.32 0 .633.116.664.488zm72.877 40.195c.217-.004.468.046.523.31.057.273-.51.615-1.035.644-.179-.002-.364-.006-.43-.215-.087-.273.476-.73.942-.739zM94.39 93.301c-.784.565-1.257 1.017-1.466 1.714.678-.277 1.304-.598 1.466-1.714zM6.812 30.846c-.353-.113-.846-.09-.859-.635-.004-.191.21-.283.396-.278.443.011.75.214.856.64-.042.257-.218.328-.393.273zm75.884 72.42c-.233-.015-.41-.169-.426-.41-.024-.352.57-.744.962-.658.21.047.256.196.247.405-.086.405-.311.691-.783.662zM73.667 5.092c-.345-.604-.888-.678-1.739-.76.576.655.982 1.045 1.739.76zm-11.788 5.08c-.236-.001-.476-.108-.454-.366.03-.359.358-.324.613-.324.24 0 .42.116.497.373-.128.28-.39.32-.656.318zM1.896 43.219c-.373.04-.817.233-.964-.326-.042-.157.09-.329.29-.38.313-.083.378-.031.78.63-.035.026-.068.072-.106.076zm52.542-32.915c-.287-.014-.513-.148-.501-.466.01-.27.24-.322.466-.34.27.002.565.026.565.373 0 .3-.234.448-.53.433zM62.04 110.67c.006-.35.312-.376.593-.35.243.024.414.138.438.407-.064.245-.23.381-.475.383-.293.002-.561-.13-.556-.44zm42.495-31.956c.06.572-.268.877-.755 1.058-.033-.475-.09-.96.47-1.213.16-.073.272.026.285.155zm-.785 1.07l.03-.012c0 .014.002.027.003.041l-.033-.03zm-64.52 24.907c-.355.029-.57-.2-.645-.526-.06-.259.103-.398.362-.448.329.029.576.191.645.53.052.26-.133.426-.362.444zm21.522 3.857c-.29-.004-.544-.137-.546-.45-.002-.31.234-.463.538-.437.277.023.505.146.582.447-.074.3-.28.444-.574.44zm51.818-25.472c.424-.47.606-.864.448-1.406-.378.328-.662.7-.448 1.406zM43.96 114.66c.215.047.408.145.525.386-.194.302-.413.345-.627.33-.321-.02-.656-.14-.56-.532.077-.315.41-.238.662-.184zm67.904-30.379c.328.116.231.434.11.683-.113.233-.24.465-.552.602-.251-.328-.073-.535-.067-.746.01-.325.05-.7.51-.539zM64.702 1.74c-.254-.108-.46-.289-.398-.604.055-.28.28-.32.51-.26.356.09.49.341.45.685-.133.266-.35.27-.562.18zm3.508 107.52c-.249.02-.579.057-.671-.222-.108-.325.213-.426.454-.504.292-.095.499.025.594.298.037.307-.15.41-.377.428zM49.874 8.18c-.415-.132-.809-.055-1.318.134.55.427.945.367 1.318-.134zm53.792 84.256l.029.028h-.026l-.003-.028zM66.97 107.353c-.256-.001-.413-.169-.4-.406.015-.235.188-.377.44-.387.256.008.422.14.395.396-.025.23-.18.398-.435.397zM.868 52.707c.024.203-.162.3-.335.283-.231-.025-.56.007-.531-.368.015-.198.23-.212.399-.23.232-.006.439.066.467.315zm28.678 57.078c.4-.105.662.073.8.44.02.055-.038.18-.095.218-.377.245-.516-.11-.724-.298-.09-.082-.194-.148-.295-.218.103-.052.204-.113.314-.142zm-.329.138l.004-.004.01.008-.036.019c-.004-.014-.01-.025-.014-.038l.036.015zM93.437 22.7c-.166.25-.378.097-.53-.073-.113-.125-.202-.273-.302-.41l.147-.15c.155.071.314.134.462.218.159.09.324.266.224.415zm-79.265 5.88c.25-.027.408.1.412.35.003.203-.15.28-.352.29-.199-.037-.42-.105-.422-.353-.001-.187.19-.269.362-.287zM3.905 37.1c-.268-.073-.616-.064-.684-.447-.023-.126.091-.255.239-.259.348-.008.567.205.687.5.068.165-.094.196-.242.207zM77.1 113.129c.524.075.86-.207 1.178-.533-.454.047-.9.102-1.178.533zm-16.027 4.348c.187-.027.344.025.41.228-.007.207-.148.305-.322.336-.23.04-.471-.01-.478-.284-.004-.184.214-.255.39-.28zM34.123 15.726c-.175.325-.476.312-.868.319.025-.203.014-.262.038-.284.226-.208.461-.413.798-.257.04.018.062.167.032.223zm57.885 80.647c-.167.02-.26-.096-.237-.23.058-.34.273-.534.608-.56.155.06.237.159.188.302-.091.264-.267.45-.56.488zM10.635 79.775c.175.02.32.094.326.306-.1.22-.277.318-.51.284-.203-.03-.29-.18-.226-.37.06-.181.229-.241.41-.22zm56.334 29.744c-.311.212-.551.092-.786-.15.269-.293.544-.37.836-.165.115.08.066.236-.05.315zm6.755-1.399c.214-.05.44-.053.52.223-.022.212-.151.327-.337.325-.22-.002-.446-.072-.465-.334-.005-.067.172-.188.282-.214zM29.191 7.587c-.223-.083-.566-.005-.572-.378-.001-.067.19-.191.295-.194.228-.004.438.1.51.338.051.174-.09.219-.233.234zm75.243 66.62c-.277.031-.39-.151-.418-.393a.245.245 0 0 1 .221-.28c.29-.038.36.18.414.379.02.185-.078.279-.217.294zM60.234.958c-.264-.085-.282-.3-.185-.509.08-.175.262-.222.425-.115.145.095.227.249.173.439-.085.178-.234.244-.413.185zM56.042.641c-.215-.064-.416-.174-.388-.444a.212.212 0 0 1 .277-.187c.215.064.391.19.392.453-.041.144-.144.219-.281.178zm21.451 111.363c-.07.268-.304.259-.517.272-.13.008-.297-.044-.26-.185.065-.242.32-.272.527-.313.138-.028.235.064.25.226zm28.954-22.105c-.33-.062-.312-.317-.288-.565.25-.022.503-.033.52.322.007.126-.086.27-.232.243zm-22.542 19.963c.135.005.242.082.232.226-.013.201-.153.278-.343.277-.13-.025-.243-.092-.236-.231.01-.206.162-.278.347-.272zM49.77 10.247c.05.007.084.127.127.197-.133.187-.311.31-.542.295-.15-.01-.216-.148-.15-.272.117-.22.343-.252.565-.22zM.524 48.408c-.202.006-.316-.114-.275-.322.034-.17.126-.308.32-.339.2.03.294.159.282.35-.011.194-.144.306-.327.311zm58.843 59.958c-.195-.036-.33-.148-.261-.348.034-.099.176-.208.283-.224.187-.03.359.093.35.284-.008.186-.186.27-.372.288zM38.235 3.413c-.159-.27-.388-.3-.666-.219.166.256.42.212.666.219zm34.402-.899c-.254.013-.444-.096-.43-.37.003-.058.211-.145.327-.148.178-.005.35.062.373.287-.025.153-.134.224-.27.231zm31.588 89.645a.742.742 0 0 1-.534.273c-.027-.209-.005-.407.151-.569.142-.146.294-.392.512-.155.123.134-.023.32-.13.45zm-.56.277c.01 0 .017-.003.026-.004l.004.032-.03-.028zm12.32-23.915c.147.025.214.135.201.261-.02.214-.087.429-.352.429-.04 0-.107-.214-.11-.33-.004-.17.042-.337.261-.36zM88.09 99.337c-.138-.015-.266-.067-.274-.2-.015-.213.16-.275.33-.296.138-.018.242.073.258.204.03.233-.165.25-.314.292zm-9.417-84.15c-.19.009-.331-.085-.333-.293 0-.148.11-.242.247-.253.202-.016.301.115.337.301-.012.156-.114.24-.25.246zm12.786 89.938c.04.006.064.136.095.21-.082.176-.221.27-.414.247-.104-.013-.148-.106-.098-.202.086-.164.221-.282.417-.255zm-60.027 5.781c.168.015.32.103.364.286.04.16-.097.224-.225.218-.182-.01-.341-.105-.385-.288-.038-.157.09-.207.246-.216zm35.083 6.645c.336.024.606.198.948-.195-.349.021-.621-.257-.948.195zM24.396 20.516c.141.004.212.135.213.273 0 .142-.084.234-.218.278-.142-.004-.248-.073-.26-.212-.016-.182.057-.344.265-.339zm16.168 94.475c.208.044.432.106.417.37-.003.063-.197.114-.274.155-.267-.04-.467-.13-.446-.39.01-.13.175-.163.303-.135zm2.24-112.568c-.16-.072-.292-.186-.29-.377 0-.037.115-.072.177-.108.17.058.306.165.338.34.03.17-.092.203-.224.145zM28.408 14.355c-.22-.022-.205-.22-.202-.38.002-.116.027-.24.192-.256.179.062.217.224.22.391 0 .13-.076.26-.21.245zm35.676 95.667c-.131-.005-.258-.07-.22-.23.029-.127.132-.2.35-.155.036.029.198.094.207.176.027.242-.186.214-.337.209zm31.712-85.118a.63.63 0 0 1-.192-.306c-.02-.095.092-.136.177-.058.089.08.155.186.223.271-.048.117-.135.161-.208.093zM23.277 94.496c.129.028.188.141.19.275-.04.144-.14.192-.267.128-.112-.058-.2-.162-.12-.294.036-.058.14-.121.197-.109zm89.429-13.785c-.011.143-.116.22-.26.237-.152-.047-.184-.16-.135-.29.048-.129.16-.208.295-.155.054.02.105.138.1.208zm-1.037-5.865c.044.01.115-.086.172-.133-.027-.16-.153-.2-.282-.218h-.001l-.079.294c.062.025.132.043.19.057zM21.187 96.494c.982-.102 1.362.398 1.62 1.305.262.917.913 1.66 1.803 2.113.893.455 1.566 1.138 2.28 1.837.145.143.299.277.456.407a.824.824 0 0 1 .567.438c.725.522 1.513.978 2.255 1.48.284.193.606.154.919.035.354-.135.653-.04.78.312.557 1.551 2.009 1.972 3.293 2.533.231.101.467.19.706.272a.311.311 0 0 1-.02-.123c.006-.134.097-.219.243-.22.185-.007.331.06.375.25.031.14-.023.218-.104.257.807.254 1.634.465 2.414.785 3.442 1.415 6.976 2.53 10.629 3.208l.167.031a.46.46 0 0 1 .453.028c.043.03.086.056.13.08l.85.155c.188-.015.377-.05.564-.084.588-.103 1.044.187 1.515.436 1.866.292 3.742.5 5.639.502a2.28 2.28 0 0 1 .133-.265c.632-1.09 1.882-1.243 2.688-.154.467.631.827.529 1.312.295.454-.22.927-.324 1.408-.396.56-.251 1.182-.344 1.792-.454.469-.085.95-.085 1.395-.292.76-.356 1.492-.81 2.37-.543.255-.078.457.03.662.152.232-.05.47-.208.68-.344.674-.433 1.37-.818 2.174-.954a1.606 1.606 0 0 0 1.058-.65c.444-.599 1.035-.683 1.706-.5.347.095.738.351 1.022-.046.66-.926 1.691-.978 2.655-1.176.392-.08.81-.12 1.185-.242l-.004-.016c-.135-.4.432-.704.846-.907.794-.39 1.666-.63 2.355-1.226.092-.08.284-.171.356-.135 1.197-.726 2.31-1.598 3.504-2.342-.026-.257.487-.575.772-.823.805-.698 1.603-1.405 2.47-2.021a.933.933 0 0 1 .319-.217c.407-.274.83-.528 1.278-.748.035.024.058.05.073.076.008-.052.014-.106.015-.167 1.227-.56 1.977-1.56 2.531-2.742.02-.042.08-.067.125-.096.658-.427 1.2-.999 1.835-1.464 1.222-.896 1.794-2.383 2.756-3.542.26-.313.426-.699.602-1.082a.29.29 0 0 1-.058-.145c-.032-.241.087-.407.32-.459a.258.258 0 0 1 .053-.006c.191-.31.433-.588.797-.782.125-.067.274-.25.27-.374-.056-1.444 1.28-2.009 1.894-3.025a1.3 1.3 0 0 1 .436-.441c.116-.068.325-.06.454-.002.188.086.202.182.149.281a25.63 25.63 0 0 0 1.517-2.944c-.192.042-.308.17-.399.333-.156.278-.278.576-.449.843-.245.383-.583.623-1.068.49-.218-.058-.38-.22-.393-.446-.023-.417.19-.71.575-.861.078-.03.15-.066.218-.105-.09-.62.23-.96.8-1.127l.022.043c.042-.14.073-.285.092-.43.069-.508.283-.893.505-1.304.532-.986.249-2.135.893-3.2.646-1.067.055-2.711 1.263-3.741.2-.17.189-.593.27-.9.273-1.037-.112-1.882-1.119-2.745 1.39-.022 1.43-.738 1.441-1.591.018-1.466.123-2.93.54-4.357.12-.414.325-1.068-.343-1.2-1.027-.206-.851-.727-.512-1.374.12-.23.34-.465.198-.733-.363-.688-.105-1.195.363-1.715.291-.324.31-.794.301-1.216-.035-1.795-.516-3.538-.813-5.29-.18-1.055-.617-2.106-.695-3.218-.06-.85-.115-1.698-.744-2.374-.392-.422-.48-.97-.394-1.494.122-.736.05-1.336-.55-1.87-.252-.225-.372-.639-.472-.99-.435-1.519-1.367-2.795-2.053-4.189-.924-1.878-2.238-3.58-3.025-5.504-.468-1.143-1.157-1.962-1.986-2.732-.453-.421-.754-.825-.82-1.452a1.769 1.769 0 0 0-1.347-1.528c-.66-.156-.856-.238-.804-.974.058-.829-.349-1.166-1.187-1.015-.726.132-1.016-.066-1.053-.735-.029-.534-.393-.85-.695-1.214-.337-.406-.811-.762-.983-1.229-.435-1.188-1.413-1.823-2.31-2.558-.196-.162-.395-.322-.593-.482l.01.022c-.595-.069-1.07-.087-1.528-.186-.517-.111-.716-.53-.528-.995.06-.15.155-.272.281-.3-.312-.274-.62-.553-.93-.827a.464.464 0 0 1-.102.058c-.454.192-.845.156-1.28-.005-.322-.118-.719-.334-.984.026-.222.303-.127.683.07 1.008.024.038.052.072.074.111.277.49.067.645-.468.607-.553-.29-1.033-.133-1.533.296-.394.34-.763.122-.915-.35-.094-.292-.105-.611-.172-.915-.12-.549.056-.878.65-.885a1.67 1.67 0 0 0 .833-.246c-.318-.116-.648-.203-.969-.314-.516-.18-.845-.477-1.027-.905a5.642 5.642 0 0 1-.601.157c-.375.07-.767.013-.765-.465.003-.414.348-.626.733-.591.16.014.315.046.464.106a4.547 4.547 0 0 1-.006-.47c.232.104.463.197.69.288a7.814 7.814 0 0 1-.073-.078c.377-.12.55.176.772.276a.668.668 0 0 1-.1.042c.721.298 1.377.63 1.873 1.236.108-.073.219-.14.336-.197.165-.078.3-.23.343-.423-2.962-1.982-6.2-3.467-9.448-4.914a19.56 19.56 0 0 0-.615-.262c-.036.01-.071.018-.108.03-.15.049-.432.036-.499-.058-.1-.14-.205-.247-.315-.328a24.431 24.431 0 0 0-.654-.226c-.535-.032-1.111.186-1.63.08-.185-.037-.354.054-.373.278a.4.4 0 0 0 .264.419c.246.101.502.243.756.247 1.172.017 2.081 1.028 3.32.842.25-.038.433.3.568.524h.024c.294.027.643.007.683.455-.07.397-.331.625-.72.677-.018.002-.033 0-.05.002.1.07.192.161.282.28-.485.251-.804.127-1.117-.364.165-.044.305-.059.431-.052a.644.644 0 0 1-.171-.389.666.666 0 0 1 .035-.331c-1.376-.22-2.744.128-4.114.065-.532-.025-1.223.178-1.33-.719-.034-.293-.416-.284-.543-.205-.693.436-1.45.134-2.197.301.665.064 1.217.347 1.716.744.505.401 1.291.274 1.733.83-.211.267-.448.262-.646.196-1.786-.596-3.662-.712-5.496-1.05-.175-.033-.358-.038-.524-.094-.223-.074-.396-.242-.39-.484.009-.287.257-.36.48-.324.914.153 1.758.027 2.552-.687-.118.02-.237.04-.355.057-.56.087-1.004-.307-1.222-.834a1.96 1.96 0 0 1-.04-.107 1.62 1.62 0 0 0-1.041.088c-.24.098-.527-.045-.716-.263-.14-.161-.396-.29-.35-.527.061-.32.37-.338.636-.372.044-.005.093-.019.133-.006.315.1.637.161.96.204a1.15 1.15 0 0 0-.079-.1c1.528-.283 2.718.017 3.911.641.53.141 1.074.123 1.61.193.249.033.462-.056.529-.296.073-.268-.174-.372-.348-.501a2.132 2.132 0 0 0-.555-.293 35.413 35.413 0 0 0-2.407-.381c-1.188-.148-2.365-.376-3.543-.6-.134.067-.27.128-.389.204-.92.588-2.156.225-2.68-.73a22.273 22.273 0 0 0-1.96-.183.756.756 0 0 1-.06.33c-.414 1.064-.399 1.07.472 1.862-.56.495-1.104 1.004-1.678 1.478-.455.376-1.17.19-1.249-.378-.07-.504-.377-1.152.37-1.516.183-.09.29-.329.444-.488.291-.3-.064-.465-.136-.689-.085-.266-.23-.352-.49-.185-.278.178-.615.241-.896.108-.62-.294-1.084-.155-1.527.336-.27.299-.631.263-.987.101-.31-.14-.63-.255-.926-.373.024-.176.064-.327.115-.46-.494.03-.987.067-1.48.112.063.341-.169.557-.47.677-.393.157-.623.481-.896.774-.467.5-1.035.7-1.678.353-.338-.181-.655-.317-.973-.018-.908.852-1.864.16-2.783.054-.332-.039-.261-.424.066-.548.1-.037.184-.075.25-.116-.415.108-.827.22-1.238.335.054.31.012.609-.29.797-.607.377-1.093.85-1.582 1.346-.198.2-.484.19-.813.2-.664-.14-1.372-.38-2.13-.044-.27.12-.354-.295-.277-.45.036-.074.08-.142.13-.208-.67.256-1.335.524-1.994.805.271.104.55.178.858.174.186-.002.397.431.185.47-.51.09-.784.517-1.179.747a7.264 7.264 0 0 1 1.46-.275c.224-.02.406.096.524.293.13.215.075.453-.094.568l-.055.04.31-.143c.452-.209.93-.295 1.646-.014-.6.296-.988.503-1.387.68-.25.11-.579.21-.476.527.215.666-.196.714-.61.618-.696-.163-1.155.205-1.716.5-1.177.62-2.2 1.744-3.821 1.35.003-.568.376-.865.804-1.069l.455-.214a.712.712 0 0 1-.072-.117c-.18-.368-.18-.771.107-1.038.136-.128.276-.248.417-.364-.037-.008-.074-.015-.113-.027-.33-.1-.638-.4-.36-.679.255-.256.314-.49.278-.722-.82.405-1.63.83-2.431 1.276.28.303.463.756.444 1.222-.026.627-.373.925-1.06.907-.66-.016-1.046-.462-1.028-1.175-.513.309-1.023.626-1.528.952.387.243.568.67.808.999.229.314-.093.575-.38.7-.346.151-.651.03-.64-.373.01-.352-.185-.639-.296-.992a57.26 57.26 0 0 0-2.75 1.938c-.55.415-1.316.56-1.687 1.164-.711 1.157-1.763 1.975-2.708 2.897-.61.595-1.2 1.206-1.773 1.83l.046-.017c.594-.196 1.137-.494 1.673-.807.843-.492 1.62.033 2.439.093.056.543-.51.848-.3 1.421.148.4-.33.554-.693.612-.253.04-.529-.035-.676.288-.757 1.663-1.568 2.042-3.438 1.553.129-.75.316-1.51.292-2.293a.882.882 0 0 1 .007-.125 47.36 47.36 0 0 0-1.607 1.928c.063.035.126.072.19.112.96.608 1.581 1.525 2.1 2.482.275.507-.31.8-.659 1.256-.16-.358-.114-.481-.02-.573.363-.356.144-.616-.112-.903-.256-.286-.474-.274-.805-.09-.831.461-1.582.404-2.17-.314-.46.647-.904 1.305-1.333 1.974a.37.37 0 0 1 .114.124c.46.828 1.02 1.542.659 2.697-.268.857-.667 1.648-.934 2.494-.084.27-.224.481-.495.584-.177.068-.364.072-.484-.086a.558.558 0 0 1-.09-.358.772.772 0 0 1 .145-.366c.6-.824.512-1.461-.29-2.182a1.915 1.915 0 0 1-.217-.234c-.25.455-.493.914-.728 1.378.18.09.301.32.454.737.198.54.386 1.093.483 1.657.07.406.278.73.476 1.148-.763.572-1.51.998-1.884 1.812-.073.16-.225.3-.25.462-.046.316.68.67-.027.957-.366.149-.636-.3-1.006-.237-.041.007-.077.044-.188.11.534 1.133.32 2.148-.56 3.075-.326.344-.46.862-.732 1.268-.218.326-.269.606-.128.99.242.662.226 1.249-.502 1.704-.463.29-.518 1.62-.18 2.186a.776.776 0 0 1 .071.153c.175.078.267.238.182.49-.581 1.722-.027 3.702-1.21 5.284a.427.427 0 0 0-.067.18c.468.1.687.583.681 1.12-.003.28-.094.446-.243.555-.039.475-.153.952-.157 1.402-.01 1.096.678 2.279-.198 3.336-.147.176-.057.436.108.577.478.407.416.922.385 1.464-.019.315.033.63.097.945.016-.121.039-.247.067-.38.563.397.513.884.658 1.282.06.166.003.375-.184.438-.182.062-.287-.013-.36-.13 0 .217-.031.434-.114.648-.207.536.09 1.052.237 1.562.138-.139.357-.234.673-.262-.308 1.062.264 2.06-.028 3.05-.147.142-.314.151-.49.135.014.345.028.69.102 1.023.172.767.222 1.612 1.16 1.93.211.071.32.264.37.484.248 1.078.606 2.07 1.192 3.061.463.782.634 1.911.701 2.901.072 1.056.337 1.937 1.096 2.676.391.381.523.915.732 1.403.014.031.027.064.04.096a.537.537 0 0 1 .547-.383c.38.005.52.252.51.623-.116.292-.067.714-.498.811a.248.248 0 0 1-.157-.022c.545 1.462 1.077 2.933 2.454 3.922.101.072.131.283.144.433.056.657.365 1.115.787 1.486.438-.391.782-.864 1.15-1.324.206-.26.509-.325.84-.143.447.245.555.665.634 1.058-.01.518-.515 1.14-1.084 1.514.18.193.305.428.315.74l.008.097.04-.016c.393-.148.682.048.93.323.198.22.28.456.019.686a.705.705 0 0 0-.073.075c.837.585 2.06.891 2.078 2.272.005.313.317.4.6.37zM5.308 48.919a.37.37 0 0 0 .148.02 1.132 1.132 0 0 1-.339-.332c.04.105.101.21.191.312zm.852 19.734a2.1 2.1 0 0 1 .178.357.877.877 0 0 0-.02-.563 1.287 1.287 0 0 1-.158.206zm28.722-58.26c.153-.267.161-.483.104-.683a57.67 57.67 0 0 0-1.187.543c.067.06.134.12.204.174.32.253.433.527.333.864a6.97 6.97 0 0 1 .838-.375c-.334.03-.494-.173-.292-.523zm-4.15-.59c-.453.244-.97.427-1.109 1.178.632.058.964-.227 1.335-.417a68.25 68.25 0 0 1 1.559-.77 2.762 2.762 0 0 1-.064-.146c.116-.001.222.008.32.024a58.521 58.521 0 0 1 5.234-2.179c.237-.085.475-.165.714-.244a1.16 1.16 0 0 0 .014-.274c.51.013.947-.486 1.502-.202l.008.004c.381-.115.762-.231 1.142-.351.015-.15.128-.253.336-.29.181-.033.388-.066.554-.005.186-.065.371-.131.555-.202.291-.11.582-.205.875-.286-.01-.217.256-.33.514-.386.862-.186 1.776.032 2.615-.37.308.141.614.222.919.259a5.603 5.603 0 0 0 2.095-.953c-.307-.534-.695-.376-1.05-.35-1.963.142-3.843.763-5.782 1.02-1.599.211-3.06.74-4.527 1.363-1.414.6-2.746 1.385-4.165 1.927a30.91 30.91 0 0 0-3.593 1.65zm20.424-5.84c-.073.092-.04.16.08.165.032.001.066-.047.098-.072-.018-.036-.029-.088-.058-.102-.032-.016-.102-.014-.12.009zM104.77 85.12c.107-.176.213-.352.318-.529a1.31 1.31 0 0 1-.138.162c-.12.128-.178.251-.18.367zm7.685-37.778c.583 2.77.989 5.6 1.24 8.481.266 3.028.379 6.04-.025 9.058a23.54 23.54 0 0 1-.694 3.256l-.014.055c.036.184.03.377-.05.58-.309.793-.29 1.652-.583 2.456l-.025.07c-.069.371-.14.743-.218 1.112.018.326.138.647.441.94.187.181.123.423.078.633-.334 1.566-.764 3.104-1.445 4.56-.088.189-.185.414-.545.403a.957.957 0 0 1-.118-.521c-.586 1.984-1.312 3.919-2.492 5.69a.298.298 0 0 1 .051.007c.296.063.423.305.356.605-.05.223-.181.413-.422.456-.183.033-.333-.007-.436-.108-.062.175-.12.352-.181.525-.143.404-.226.869-.612 1.084-.418.233-.684.507-.805.91h.004c.36-.001.61-.698 1.008-.24.282.324-.111.65-.257.95-.172.356-.388.69-.584 1.032l.034-.03c0 .01-.002.018-.003.028l-.02.001c-.073.095-.145.192-.224.282-.23.257-.4.668-.82.578-.378-.08-.378-.376-.414-.718-.894.743-1.549 1.645-1.579 2.923a1.563 1.563 0 0 1-.01.142c.094-.045.212-.067.339-.079.079-.007.158-.001.238 0 .01.079.024.158.02.236-.016.34-.116.626-.532.576-.078-.01-.181-.099-.231-.186-.198.406-.53.749-.816 1.085-.834.976-1.672 1.948-2.528 2.901.169-.076.33-.176.493-.288.142-.097.358-.11.47.07a.476.476 0 0 1 .028.365c-.073.204-.154.437-.307.575-.901.819-1.824 1.614-2.815 2.482-.117-.856.527-1.185.803-1.693.06-.11.144-.206.219-.302a51.37 51.37 0 0 1-3.229 3.176c.237-.144.444-.345.663-.545.243-.222.535-.31.89.034-.612.608-1.088 1.305-2.092 1.413a3.392 3.392 0 0 0-.704.164l-.22.182a53.677 53.677 0 0 1-8.032 5.397c-.39.406-.77.824-1.296 1.062-.173.078-.362.051-.49-.099l-.019-.027a47.585 47.585 0 0 1-5.345 2.244c-4.37 1.526-8.809 2.75-13.335 3.5.055.061.11.128.165.204-.974.586-1.916.835-2.952.592a.689.689 0 0 1-.402-.303.282.282 0 0 1-.018-.045c-1.142.13-2.289.227-3.442.288l.007.008c-.68.61-1.52.514-2.258.419-2.054-.264-4.142-.203-6.176-.623a83.57 83.57 0 0 1-.244-.05 49.21 49.21 0 0 1-2.72-.39 6.1 6.1 0 0 0-.846.054c-.564.076-1.194-.437-1.863-.556-1.826-.325-3.582-.872-5.284-1.573a51.568 51.568 0 0 1-3.143-1.221c-1.236.077-2.117-.607-3.061-1.354a5.713 5.713 0 0 0-.288-.211c-2.903-1.475-5.77-3.02-8.346-5.04-4.364-3.423-8.43-7.122-11.752-11.539a.248.248 0 0 1-.15.035c-.186-.013-.34-.119-.374-.298-.025-.134.088-.172.199-.179-.096-.13-.193-.258-.287-.39-.117.063-.266.06-.42.007-.333-.114-.764-.172-.738-.632.024-.452-.097-.878-.262-1.489-.02-.033-.043-.065-.064-.098-.339-.543-.676-1.087-1.008-1.634-.261-.054-.543-.349-.552-.622a1.726 1.726 0 0 0-.066-.409c-1.36-2.307-2.596-4.677-3.444-7.21-.517-1.541-1.03-3.097-1.467-4.673-.225.219-.527.208-.79-.039-.42-.395-.184-1.436.331-1.758a28.605 28.605 0 0 1-.625-3.8l-.275.09c-.064-.71-.283-1.372-.503-2.035-.189-.57-.193-1.11.474-1.395a145.5 145.5 0 0 1-.196-2.276.535.535 0 0 1-.302.164c-.49.1-.726-.345-.809-.727-.235-1.083-.587-2.189-.543-3.271.044-1.086.097-2.221.477-3.28.107-.294.262-.637.63-.581.361.054.416.406.433.73l.03.55c.093-1.34.248-2.679.397-4.014.06-.531.043-1.057.082-1.584.243-3.29.793-6.507 1.801-9.635-.442-.153-.56-.472-.436-1.028.128-.575.5-.695.993-.558.066-.177.133-.354.203-.53.502-1.265.79-2.616 1.301-3.902.168-.421.334-.843.5-1.265a1.547 1.547 0 0 0-.265-.266c-.187-.151-.287-.372-.15-.589.429-.68.554-1.505 1.05-2.153.326-.425.478-.551.728-.319.548-1.25 1.145-2.475 1.845-3.644.109-.182.22-.363.33-.544a.503.503 0 0 1 .003-.08.31.31 0 0 1 .216-.277 61.307 61.307 0 0 1 1.928-2.929.687.687 0 0 1 .127-.183 49.748 49.748 0 0 1 1.803-2.398c2.131-2.657 4.314-5.26 6.955-7.42 4.333-3.544 8.985-6.53 14.295-8.485 2.54-.936 5.09-1.827 7.663-2.658 1.627-.524 3.297-.762 5-.9 2.327-.19 4.649-.43 6.55-.343 5.255-.14 9.955.702 14.634 1.708.36.077.723.208 1.041.39 2.227 1.27 4.646 2.084 7.026 2.985a30.66 30.66 0 0 1 2.352 1.012c.043-.17.19-.229.365-.206.25.033.37.194.384.44a.44.44 0 0 1-.037.115c.674.34 1.338.698 1.996 1.069.496-.023.881-.312 1.313-.497.304-.13.595.078.804.324a.43.43 0 0 1 .044.495c-.15.283-.414.287-.686.248-.22-.032-.432-.13-.686-.12.642.372 1.28.753 1.916 1.135.363.219.708.486 1.097.642 1.428.572 2.756 1.259 3.996 2.223 1.157.9 2.557 1.477 3.745 2.395 3.92 3.026 6.978 6.795 9.732 10.865a52.008 52.008 0 0 1 2.576 4.228c.027-.013.053-.025.081-.04.649-.328 1.007-.052 1.4.33.641.623.657 1.038-.112 1.47a2.41 2.41 0 0 0-.337.232 55 55 0 0 1 3.602 9.489l.935 2.458c.185.486.228.892.016 1.431zM56.106 7.055c-.292.146-.598.201-.853-.04-.09-.085-.152-.306-.104-.405.162-.337.502-.295.802-.272.194.015.384.09.65.159-.114.412-.32.47-.496.558zM41.85 9.291a.36.36 0 0 1-.22-.193c-.061-.175.038-.304.217-.306.163-.002.29.095.328.272-.032.185-.154.27-.325.227z"/>
</svg>
