<svg xmlns="http://www.w3.org/2000/svg" viewBox="0 0 585 1673" preserveAspectRatio="none"><defs><linearGradient id="a" x1="50%" x2="50%" y1="0%" y2="100%"><stop offset="0%" stop-color="#BBF8FF"/><stop offset="100%" stop-color="#BBF8FF" stop-opacity="0"/></linearGradient><linearGradient id="b" x1="50%" x2="50%" y1="0%" y2="100%"><stop offset="0%" stop-color="#BBF8FF"/><stop offset="100%" stop-color="#BBF8FF" stop-opacity="0"/></linearGradient><linearGradient id="c" x1="50%" x2="50%" y1="0%" y2="100%"><stop offset="0%" stop-color="#DDFFFC"/><stop offset="100%" stop-color="#DDFFFC" stop-opacity="0"/></linearGradient><linearGradient id="d" x1="50%" x2="50%" y1="0%" y2="100%"><stop offset="0%" stop-color="#DDFFFC"/><stop offset="100%" stop-color="#DDFFFC" stop-opacity="0"/></linearGradient><linearGradient id="e" x1="50%" x2="50%" y1="0%" y2="100%"><stop offset="0%" stop-color="#FFFFFC"/><stop offset="100%" stop-color="#FFFFFC" stop-opacity="0"/></linearGradient></defs><g fill="none" fill-rule="evenodd"><path fill="url(#a)" d="M86.646 10h412.351l85.418 1663.906H.83z" opacity=".55"/><path fill="url(#b)" d="M143.512 2h296.951l87.416 1654.528H57z" opacity=".38"/><path fill="url(#b)" d="M175.778.124h237.897L498.998 1654H92.565z" opacity=".42"/><path fill="url(#c)" d="M209.937 1.333h166.587L462.759 1653H124.126z" opacity=".55"/><path fill="url(#d)" d="M227.854 0h132.891l66.017 1644H159.086z" opacity=".52"/><path fill="url(#d)" d="M238.943 3.03h108.32L404.475 1636H184.524z" opacity=".55"/><path fill="url(#e)" d="M258.187.798h72.404L363.811 1628H220.674z" opacity=".48"/></g></svg>
