<?xml version="1.0" standalone="no"?>
<!DOCTYPE svg PUBLIC "-//W3C//DTD SVG 20010904//EN"
 "http://www.w3.org/TR/2001/REC-SVG-20010904/DTD/svg10.dtd">
<svg version="1.0" xmlns="http://www.w3.org/2000/svg"
 width="985.000000pt" height="985.000000pt" viewBox="0 0 985.000000 985.000000"
 preserveAspectRatio="xMidYMid meet">
<metadata>
Created by potrace 1.11, written by Peter Selinger 2001-2013
</metadata>
<g transform="translate(0.000000,985.000000) scale(0.100000,-0.100000)"
fill="#000000" stroke="none">
<path d="M7644 9435 c-10 -8 -35 -15 -54 -15 -20 0 -41 -5 -47 -11 -8 -8 -17
-8 -31 0 -17 9 -23 8 -30 -5 -6 -11 -17 -15 -32 -11 -12 3 -40 -1 -62 -9 -22
-7 -43 -12 -47 -10 -3 2 -24 -5 -46 -15 -22 -11 -61 -22 -87 -24 -27 -2 -58
-11 -70 -19 -12 -9 -32 -16 -45 -16 -12 0 -24 -4 -27 -9 -3 -5 -43 -19 -88
-31 -44 -12 -88 -26 -97 -30 -9 -4 -54 -23 -101 -40 -47 -18 -96 -40 -110 -49
-14 -9 -37 -22 -52 -29 -16 -6 -28 -16 -28 -22 0 -5 -13 -16 -29 -22 -39 -17
-226 -192 -253 -238 -12 -19 -43 -60 -69 -90 -25 -30 -56 -75 -68 -100 -29
-59 -62 -114 -84 -138 -9 -10 -17 -23 -17 -28 0 -5 -12 -31 -25 -59 -14 -27
-25 -58 -25 -67 0 -10 -20 -59 -44 -111 -24 -51 -49 -111 -56 -132 -7 -22 -16
-48 -21 -57 -5 -10 -9 -29 -9 -43 0 -14 -8 -42 -19 -63 -10 -20 -22 -59 -26
-87 -4 -27 -13 -66 -21 -85 -8 -19 -19 -68 -25 -109 -6 -41 -17 -88 -25 -103
-8 -16 -14 -34 -13 -41 1 -6 -1 -24 -5 -39 -4 -15 -9 -55 -11 -90 -2 -35 -11
-110 -20 -168 -17 -105 -23 -172 -29 -330 -2 -47 -6 -101 -9 -120 -4 -19 -9
-137 -12 -262 -3 -125 -8 -233 -11 -241 -3 -8 -14 -12 -28 -10 -12 3 -28 -2
-34 -10 -7 -8 -21 -13 -32 -10 -12 3 -22 -3 -30 -17 -11 -20 -13 -20 -35 -6
-21 14 -26 13 -61 -5 -48 -25 -122 -48 -189 -59 -45 -7 -73 -15 -140 -41 -56
-21 -90 -28 -112 -23 -15 4 -30 0 -42 -10 -28 -25 -115 -56 -140 -49 -14 4
-33 -2 -49 -14 -15 -11 -43 -23 -62 -26 -65 -11 -95 -20 -112 -34 -9 -8 -22
-12 -28 -8 -6 3 -37 -3 -70 -14 -33 -12 -65 -21 -71 -21 -6 0 -25 -6 -42 -14
-40 -16 -193 -66 -206 -66 -5 0 -22 -5 -38 -12 -15 -6 -30 -12 -33 -12 -28 -5
-144 -45 -231 -80 -36 -15 -83 -29 -105 -33 -21 -3 -48 -12 -59 -19 -11 -6
-36 -15 -55 -19 -53 -10 -162 -47 -185 -62 -28 -19 -37 -16 -30 8 4 12 2 39
-5 60 -11 31 -11 41 0 54 10 12 10 18 0 30 -10 13 -10 19 2 33 9 9 13 23 11
30 -3 8 0 24 5 35 19 37 31 131 20 144 -6 7 -7 21 -3 30 5 10 9 38 9 63 1 37
4 45 19 43 16 -1 18 4 12 25 -18 73 -17 80 4 91 18 10 19 15 9 31 -10 15 -10
22 0 32 6 6 12 21 12 33 0 11 7 31 17 44 12 18 13 28 5 41 -8 13 -6 24 8 47
10 16 21 50 25 74 4 24 13 51 20 59 7 8 15 28 19 44 4 16 16 40 27 54 12 16
17 33 13 49 -5 18 -1 28 16 40 12 8 31 34 41 57 38 78 43 85 84 107 22 12 42
25 45 28 17 21 99 34 224 37 78 2 147 4 154 3 54 -3 97 -1 222 13 52 5 111 11
130 12 19 1 45 8 58 15 12 7 31 10 40 7 21 -7 180 20 196 32 6 5 27 12 47 16
87 16 233 152 254 237 4 15 20 36 36 48 16 12 29 28 29 35 0 7 7 19 16 27 9 8
13 21 10 35 -5 17 -1 24 14 29 15 5 19 12 15 25 -3 11 1 30 10 43 10 16 14 34
10 50 -5 16 -1 34 9 48 9 13 13 33 9 49 -3 15 0 31 6 34 7 5 6 15 -5 31 -9 13
-13 28 -10 34 4 5 1 21 -5 35 -9 19 -9 32 -1 51 7 15 8 27 2 30 -6 4 -10 15
-10 25 0 11 -9 24 -19 30 -11 5 -22 24 -26 42 -4 18 -12 47 -18 65 -9 27 -15
31 -34 27 -18 -5 -23 -2 -23 14 0 11 -7 25 -15 32 -8 7 -15 9 -15 5 0 -5 -9 0
-21 11 -12 10 -18 26 -15 37 5 20 -72 107 -96 107 -7 0 -31 18 -53 40 -22 21
-44 39 -50 40 -5 0 -23 13 -40 29 -31 30 -70 42 -94 27 -14 -9 -34 12 -24 27
3 4 -4 11 -16 14 -12 3 -21 9 -21 14 0 5 -15 9 -33 9 -21 0 -41 8 -52 20 -12
13 -25 18 -40 14 -15 -4 -24 0 -28 10 -7 18 -73 38 -139 42 -25 1 -55 7 -65
12 -11 6 -25 7 -35 1 -10 -6 -31 -4 -57 6 -23 8 -70 17 -104 20 -62 5 -72 5
-104 4 -10 -1 -32 5 -50 12 -28 11 -34 11 -51 -5 -16 -14 -35 -17 -100 -15
-59 2 -86 -1 -104 -13 -13 -9 -51 -19 -84 -23 -32 -4 -71 -14 -86 -21 -15 -8
-38 -14 -51 -14 -14 0 -50 -12 -81 -26 -31 -14 -60 -22 -66 -19 -6 4 -27 -3
-46 -14 -19 -12 -41 -21 -48 -21 -6 0 -36 -13 -66 -30 -50 -26 -112 -57 -165
-81 -30 -13 -56 -31 -93 -61 -18 -16 -51 -37 -73 -48 -22 -12 -48 -29 -58 -38
-68 -63 -169 -150 -193 -164 -15 -10 -28 -23 -28 -29 0 -13 -66 -79 -79 -79
-5 0 -23 -21 -40 -46 -17 -26 -40 -53 -51 -61 -11 -8 -20 -20 -20 -27 0 -7
-12 -23 -26 -37 -15 -13 -34 -42 -44 -64 -10 -22 -29 -51 -44 -64 -14 -14 -26
-30 -26 -36 0 -7 -14 -31 -31 -55 -17 -23 -36 -57 -42 -74 -6 -17 -30 -63 -54
-102 -24 -39 -43 -79 -43 -88 0 -23 -49 -126 -71 -150 -10 -10 -25 -49 -33
-86 -9 -37 -29 -96 -46 -131 -16 -35 -30 -71 -30 -79 0 -8 -9 -40 -20 -70 -11
-30 -20 -72 -20 -93 0 -21 -8 -59 -19 -85 -30 -78 -41 -117 -41 -153 -1 -34
-20 -145 -41 -229 -11 -45 -15 -79 -23 -180 -2 -30 -9 -98 -16 -150 -14 -118
-20 -196 -25 -330 -2 -58 -7 -141 -11 -185 -4 -44 -7 -160 -8 -257 l0 -177
-49 -26 c-27 -14 -53 -25 -58 -25 -5 0 -46 -17 -92 -39 -45 -21 -93 -43 -107
-50 -14 -6 -32 -15 -40 -20 -8 -5 -26 -14 -40 -20 -14 -6 -32 -15 -40 -21 -8
-5 -37 -19 -65 -31 -27 -12 -66 -32 -85 -45 -19 -13 -42 -24 -52 -24 -18 0
-127 -55 -238 -120 -36 -21 -129 -70 -207 -110 -77 -39 -147 -78 -154 -87 -8
-9 -32 -24 -54 -33 -53 -23 -195 -130 -195 -147 0 -7 -14 -22 -31 -32 -33 -20
-109 -106 -109 -124 0 -5 -10 -24 -23 -41 -39 -52 -92 -250 -90 -336 2 -69 15
-146 35 -205 26 -77 28 -81 93 -167 56 -77 93 -110 135 -123 14 -4 47 -18 73
-32 26 -13 53 -23 60 -21 7 1 70 -4 141 -11 153 -17 362 -9 408 14 17 8 34 13
37 10 11 -6 152 32 164 44 6 6 21 11 33 11 13 0 29 7 38 15 8 8 30 18 48 21
44 8 88 25 88 34 0 5 19 11 42 15 24 4 66 17 93 30 72 33 178 84 195 94 8 5
31 16 50 25 72 32 174 91 177 102 5 15 -86 17 -103 3 -7 -6 -21 -9 -31 -6 -10
2 -33 -5 -50 -15 -20 -12 -41 -17 -53 -13 -13 4 -31 0 -48 -11 -15 -10 -38
-19 -51 -20 -13 -2 -29 -8 -34 -13 -6 -6 -21 -11 -33 -11 -13 0 -35 -11 -50
-25 -15 -14 -36 -25 -46 -25 -26 0 -117 -30 -124 -41 -3 -5 -14 -9 -25 -9 -11
0 -44 -10 -72 -23 -85 -38 -171 -68 -247 -87 -99 -23 -282 -28 -425 -10 -49 6
-98 11 -108 11 -20 0 -101 36 -133 59 -11 8 -46 48 -77 88 -44 57 -58 84 -67
130 -32 173 -32 161 -7 279 14 62 34 127 45 145 12 18 29 46 38 62 16 29 177
196 188 196 3 0 6 -9 6 -20 0 -14 -7 -20 -23 -20 -23 0 -57 -43 -57 -72 0 -8
-9 -23 -19 -32 -11 -10 -17 -25 -14 -36 3 -13 -6 -29 -28 -49 -43 -40 -54
-102 -45 -251 5 -75 27 -142 53 -163 12 -9 24 -34 28 -57 4 -26 13 -41 26 -45
10 -4 19 -13 19 -21 0 -8 10 -18 23 -23 12 -5 39 -30 60 -55 30 -37 43 -45 60
-40 15 3 33 -3 52 -17 24 -19 43 -24 117 -26 49 -2 97 -7 107 -13 14 -7 23 -4
41 15 22 24 59 33 73 19 4 -4 30 -9 58 -11 37 -3 56 0 69 12 12 11 26 14 44 9
19 -4 33 0 57 20 34 29 38 30 58 17 16 -10 56 7 100 40 13 11 31 19 40 19 10
0 22 5 29 12 15 15 83 38 94 31 21 -12 118 43 111 64 -6 16 38 43 84 54 29 6
44 4 62 -7 17 -12 26 -13 34 -5 6 6 20 11 30 11 10 0 30 9 44 20 14 11 35 20
45 20 11 0 22 8 25 19 3 13 17 20 51 25 28 4 53 14 62 25 9 11 34 22 63 25 42
7 47 5 47 -12 0 -11 8 -38 18 -60 12 -27 17 -60 16 -103 -2 -47 2 -69 13 -82
12 -13 14 -20 5 -29 -8 -8 -8 -17 -1 -30 6 -11 8 -31 4 -45 -4 -18 0 -32 13
-47 23 -25 34 -76 22 -96 -6 -9 -3 -18 8 -26 14 -11 15 -16 4 -34 -10 -17 -10
-21 4 -27 10 -4 14 -13 10 -26 -3 -12 0 -27 6 -35 7 -7 11 -35 9 -61 -2 -48
15 -81 41 -81 6 0 4 -8 -5 -18 -22 -25 -21 -38 4 -56 14 -9 18 -19 13 -27 -12
-20 -5 -71 11 -89 8 -9 15 -25 15 -36 0 -10 4 -25 9 -33 5 -7 4 -26 -3 -43 -9
-25 -8 -32 7 -42 9 -7 17 -21 17 -30 0 -24 30 -145 43 -176 6 -14 10 -39 8
-56 -2 -24 4 -35 24 -48 20 -13 25 -24 23 -50 -1 -18 6 -49 15 -69 14 -28 15
-42 7 -57 -8 -15 -7 -27 5 -49 8 -17 15 -37 15 -45 0 -8 9 -20 20 -26 14 -8
19 -17 15 -29 -4 -13 0 -20 13 -23 15 -4 21 -18 26 -62 4 -30 13 -68 21 -83 7
-16 16 -62 20 -103 8 -83 33 -152 63 -171 11 -7 17 -19 15 -30 -3 -10 3 -22
16 -28 18 -10 19 -15 8 -38 -11 -24 -9 -28 25 -57 30 -26 34 -35 26 -50 -8
-15 -7 -22 6 -31 9 -7 16 -20 16 -29 0 -9 7 -19 15 -22 8 -4 15 -17 15 -30 0
-14 7 -27 15 -30 8 -4 15 -17 15 -31 0 -32 24 -77 53 -100 29 -22 47 -54 47
-82 0 -11 13 -29 29 -40 16 -12 32 -33 35 -47 11 -42 37 -74 60 -74 29 0 52
-15 37 -24 -16 -10 -14 -26 3 -26 8 0 16 -10 18 -23 2 -15 14 -25 38 -33 19
-6 36 -16 38 -23 2 -6 12 -11 22 -11 10 0 20 -7 24 -15 3 -8 16 -15 30 -15 14
0 36 -4 50 -10 49 -18 27 -29 -58 -29 -76 0 -92 4 -154 34 -38 19 -75 42 -82
50 -8 9 -30 25 -49 35 -65 33 -224 244 -284 375 -8 17 -21 36 -30 44 -10 7
-17 21 -17 31 0 9 -9 29 -20 43 -11 14 -20 32 -20 41 0 18 -19 65 -36 86 -6 8
-14 24 -17 35 -3 11 -18 58 -35 105 -16 47 -44 131 -61 187 -18 56 -36 105
-41 108 -6 4 -10 21 -10 38 0 18 -14 72 -30 122 -17 49 -30 97 -30 105 0 8 -7
28 -15 44 -8 15 -15 44 -15 62 0 19 -9 51 -20 71 -12 22 -20 57 -20 83 0 25
-6 54 -14 65 -7 11 -16 49 -20 85 -4 36 -12 70 -18 77 -5 7 -16 50 -23 95 -21
133 -36 202 -48 223 -6 11 -12 38 -13 60 -2 39 -8 73 -39 240 -8 44 -17 98
-19 120 -3 22 -10 65 -15 95 -14 77 -20 117 -27 182 -4 32 -13 63 -20 69 -40
33 -105 -40 -89 -99 5 -15 9 -52 10 -82 2 -50 8 -90 22 -130 3 -8 6 -34 8 -58
1 -24 10 -73 18 -110 15 -65 36 -181 58 -332 6 -41 17 -86 25 -100 7 -14 18
-63 24 -110 6 -47 18 -95 26 -107 8 -12 14 -38 14 -57 0 -20 6 -55 14 -78 8
-24 17 -61 20 -83 7 -40 17 -76 54 -195 19 -59 56 -195 80 -295 6 -22 19 -67
30 -100 11 -33 26 -80 33 -105 7 -25 16 -49 21 -54 4 -6 8 -19 8 -29 0 -10 6
-31 14 -45 8 -15 21 -47 31 -72 9 -25 28 -66 41 -91 13 -26 24 -53 24 -61 0
-7 14 -40 32 -73 17 -33 39 -76 49 -95 9 -19 27 -44 38 -54 12 -11 21 -29 21
-41 0 -12 14 -34 31 -51 17 -16 39 -45 49 -64 26 -51 156 -197 182 -206 13 -4
37 -19 55 -35 18 -15 67 -44 109 -64 67 -32 88 -37 178 -42 107 -6 113 -5 221
48 22 10 45 19 51 19 6 0 31 17 55 38 54 48 124 92 144 92 8 0 15 9 15 20 0
20 93 120 112 120 6 0 8 3 5 6 -3 4 3 18 13 32 12 14 20 40 20 61 0 21 5 42
11 48 6 6 12 24 13 40 4 50 18 108 31 129 8 12 10 26 5 34 -5 8 -3 25 6 42 11
21 12 33 4 48 -6 11 -8 25 -5 30 3 6 10 33 14 60 6 38 5 53 -5 61 -17 14 -18
63 -3 91 9 17 8 24 -6 34 -15 11 -17 23 -11 77 5 52 3 67 -10 77 -8 8 -13 22
-11 31 3 10 -1 23 -8 29 -9 8 -11 19 -6 33 5 12 5 35 0 50 -4 16 -5 43 -2 59
4 22 2 34 -10 43 -9 6 -21 24 -26 38 -7 17 -18 27 -31 27 -13 0 -20 7 -20 19
0 26 17 36 35 21 12 -10 15 -10 15 2 0 8 -5 19 -12 26 -8 8 -8 15 1 26 15 18
6 52 -15 60 -10 4 -13 13 -8 31 4 16 2 25 -5 25 -19 0 -34 51 -22 77 7 15 7
24 0 29 -7 4 -8 25 -4 55 5 33 3 49 -4 49 -21 0 -31 46 -18 80 11 28 10 33
-11 48 -21 16 -21 19 -7 40 18 25 14 28 -15 9 -17 -10 -22 -9 -30 3 -14 22 7
42 31 30 15 -9 18 -8 12 7 -3 10 -12 25 -19 33 -7 8 -16 40 -20 70 -4 30 -11
61 -16 67 -14 17 -2 46 14 37 8 -5 7 0 -2 11 -8 10 -14 27 -12 37 2 11 -1 25
-6 31 -6 7 -17 41 -26 76 -12 48 -13 67 -5 77 9 11 8 18 -1 29 -6 8 -9 23 -6
33 4 12 0 24 -9 32 -13 11 -15 25 -10 75 6 49 4 64 -9 74 -9 8 -16 29 -16 48
0 20 -4 32 -10 28 -5 -3 -10 1 -10 10 0 9 5 13 10 10 14 -8 13 18 -1 32 -8 8
-8 17 0 31 8 14 8 29 1 47 -5 14 -10 41 -10 58 0 18 -12 52 -25 76 -14 24 -23
52 -20 61 7 21 -16 68 -31 63 -7 -2 -14 4 -18 13 -5 13 -2 15 19 10 25 -6 25
-6 21 44 -2 28 -10 57 -17 66 -10 12 -10 22 -2 45 10 25 9 31 -7 39 -12 6 -16
17 -13 33 3 14 0 28 -6 31 -6 4 -11 20 -11 35 0 35 44 59 180 96 52 15 136 42
185 61 50 18 104 36 120 39 46 9 109 28 120 36 6 4 30 10 55 13 44 5 89 19
212 63 37 13 85 26 107 28 43 4 109 24 125 37 6 4 23 8 38 8 16 0 44 6 63 14
18 8 36 12 39 9 6 -6 116 26 133 40 7 5 20 6 29 3 9 -3 30 0 47 8 18 8 46 17
62 19 64 11 191 39 210 47 11 5 47 11 80 15 33 3 69 12 80 19 11 7 44 17 73
21 29 4 59 13 67 21 7 8 26 14 42 14 16 0 34 5 40 11 18 18 35 1 22 -22 -5
-11 -8 -27 -5 -37 3 -9 8 -87 11 -172 3 -85 8 -177 10 -205 2 -27 7 -113 10
-189 3 -77 8 -143 11 -148 3 -5 8 -46 10 -91 2 -45 8 -125 14 -177 5 -52 10
-108 10 -123 0 -16 5 -47 12 -70 7 -23 13 -67 14 -97 2 -30 10 -98 18 -150 9
-52 18 -115 20 -140 3 -25 8 -61 11 -80 4 -19 18 -111 32 -205 14 -93 29 -192
34 -220 4 -27 13 -81 19 -119 6 -39 16 -78 21 -87 5 -10 9 -31 9 -48 0 -16 7
-56 17 -88 9 -32 17 -74 18 -93 3 -62 17 -134 32 -163 7 -15 13 -42 12 -60 -1
-30 5 -64 46 -241 9 -38 22 -78 30 -90 8 -11 15 -35 15 -53 0 -17 11 -53 25
-79 14 -26 25 -56 25 -66 0 -10 8 -33 17 -51 9 -18 18 -40 20 -51 2 -10 11
-30 21 -45 32 -48 42 -66 51 -87 5 -12 23 -37 39 -55 16 -19 37 -48 46 -66 9
-18 22 -36 29 -40 7 -4 25 -23 40 -42 30 -36 91 -81 109 -81 7 0 21 -8 32 -18
12 -10 57 -33 101 -50 78 -30 84 -31 218 -27 178 5 289 37 392 115 22 16 55
37 72 47 32 16 50 45 44 72 -6 30 10 61 30 61 25 0 36 27 21 51 -16 25 -15 39
3 39 8 0 15 -5 15 -12 0 -6 9 -3 21 8 20 18 20 26 15 149 -5 99 -10 133 -21
141 -14 10 -14 13 0 24 8 7 15 25 15 41 0 23 -5 29 -21 29 -20 0 -21 4 -16 45
2 25 13 55 22 65 17 19 17 23 0 87 -20 76 -22 127 -5 148 17 21 7 40 -21 40
-14 0 -25 7 -27 18 -3 13 3 17 28 17 28 0 31 2 20 15 -7 8 -10 24 -7 35 3 10
-2 25 -9 31 -8 7 -12 19 -9 26 3 8 0 46 -6 84 -8 50 -8 74 0 83 17 20 4 196
-16 218 -13 14 -13 22 -2 53 12 31 11 40 -5 69 -11 21 -15 42 -11 58 4 15 1
36 -5 48 -10 18 -9 24 1 31 10 6 10 10 0 23 -9 11 -10 20 -3 28 5 7 8 38 6 68
-3 30 -6 87 -7 125 -3 91 -17 184 -28 191 -11 7 -12 81 -1 88 4 2 7 33 6 68
-2 82 -1 75 -26 100 -16 16 -17 20 -5 15 12 -5 17 -1 17 13 0 10 -5 22 -10 25
-7 4 -7 12 0 25 6 12 6 28 -1 49 -6 17 -8 38 -5 47 3 9 3 46 0 84 -5 52 -10
67 -20 63 -8 -3 -14 1 -14 9 0 22 11 29 26 17 10 -8 10 -3 2 25 -6 20 -17 36
-24 36 -18 0 -24 26 -10 46 8 10 20 15 30 11 18 -7 22 8 5 19 -6 3 -8 17 -5
30 4 13 3 24 -1 23 -20 -3 -24 2 -13 16 7 8 10 22 6 31 -3 8 -1 24 4 34 9 16
8 18 -6 13 -20 -8 -37 17 -22 34 6 7 14 10 19 7 5 -3 9 2 9 10 0 8 -5 18 -11
22 -6 3 -8 16 -4 28 11 34 14 169 4 187 -4 9 -9 47 -10 85 -3 84 -13 116 -34
108 -8 -3 -15 -1 -15 6 0 6 4 9 9 5 14 -8 23 30 16 69 -4 19 -3 42 3 52 6 10
6 29 1 47 -5 20 -5 35 2 43 8 10 7 24 -1 50 -8 25 -9 39 -2 46 8 8 7 17 -3 32
-9 14 -13 53 -12 126 2 102 3 105 27 112 14 4 55 16 93 27 37 12 79 21 92 21
14 0 33 4 43 9 28 15 89 28 212 47 63 9 125 21 138 26 13 4 85 11 160 14 75 3
151 10 167 15 17 5 75 9 130 8 470 -3 527 -2 580 13 22 6 51 13 65 14 46 5
115 20 160 36 25 8 63 21 85 28 99 29 239 102 282 145 14 14 33 25 42 25 26 0
198 184 206 220 4 16 17 38 30 48 12 10 26 32 30 50 3 18 10 32 14 32 4 0 7
10 7 23 -1 15 5 23 20 25 15 2 24 12 27 30 3 15 10 45 16 66 6 27 6 46 0 58
-11 20 -6 63 13 111 9 22 7 31 -7 47 -10 11 -15 26 -12 34 4 9 2 18 -3 21 -6
4 -10 16 -10 28 0 12 -7 31 -15 41 -8 11 -15 30 -15 42 0 36 -42 92 -78 104
-17 7 -37 20 -43 31 -5 11 -29 40 -53 64 -33 35 -50 45 -74 45 -23 0 -41 10
-67 36 -27 27 -43 35 -65 32 -15 -1 -37 4 -47 13 -30 26 -100 44 -117 30 -11
-9 -21 -7 -47 8 -41 24 -104 29 -141 11 -23 -11 -35 -11 -67 0 -22 7 -46 10
-55 7 -8 -3 -28 -2 -44 2 -17 5 -36 5 -46 -1 -13 -7 -22 -5 -36 7 -17 15 -19
15 -27 0 -8 -14 -17 -15 -76 -5 -55 10 -70 10 -83 -1 -21 -17 -81 -19 -95 -3
-14 17 -183 7 -222 -13 -17 -8 -40 -12 -57 -8 -16 3 -31 2 -35 -4 -4 -7 -12
-8 -24 -1 -12 6 -22 5 -29 -2 -7 -7 -52 -12 -117 -12 -58 -1 -105 -5 -105 -10
0 -4 -11 -5 -25 -2 -16 4 -35 0 -51 -11 -21 -13 -31 -14 -57 -5 -23 8 -45 8
-77 1 -25 -6 -76 -14 -115 -19 -93 -12 -171 -26 -220 -39 -49 -13 -152 -14
-159 -2 -3 5 1 21 9 37 8 17 16 74 19 139 3 61 8 120 12 131 3 12 1 24 -4 28
-6 4 -5 20 4 43 7 21 13 58 14 84 0 25 5 50 11 56 8 8 8 17 1 30 -8 14 -6 23
10 40 11 12 22 37 24 55 2 18 6 40 9 48 3 9 -1 25 -9 35 -12 17 -12 22 5 44
19 24 19 24 -1 38 -33 23 -26 63 17 99 36 30 37 33 27 70 -10 41 5 83 44 116
15 13 85 39 147 55 38 10 299 18 390 12 46 -3 120 4 205 18 19 3 52 7 72 8 21
2 60 11 87 20 27 9 71 20 97 25 98 18 130 27 171 48 120 62 243 164 243 202 0
10 11 32 25 48 14 17 25 36 25 44 0 8 14 29 30 46 17 18 30 41 30 51 0 11 5
23 10 26 6 3 10 25 10 49 0 31 6 48 21 62 18 16 20 26 14 70 -4 33 -2 55 4 59
16 9 13 36 -6 57 -13 14 -14 21 -5 30 15 15 16 55 2 63 -6 4 -8 21 -4 41 5 26
2 38 -9 47 -19 15 -69 164 -63 186 7 19 -3 35 -26 44 -10 3 -18 16 -18 27 0
13 -12 28 -30 38 -16 9 -30 25 -30 34 0 17 -49 58 -68 58 -6 0 -17 12 -24 28
-11 22 -20 27 -45 25 -20 -2 -33 3 -37 12 -3 8 -15 15 -26 15 -11 0 -23 7 -26
15 -4 8 -17 15 -30 15 -14 0 -30 10 -40 25 -9 14 -24 25 -34 25 -10 0 -23 7
-30 15 -8 10 -31 15 -69 15 -39 0 -73 8 -111 26 -37 17 -65 24 -87 21 -21 -4
-36 -1 -44 9 -14 17 -41 18 -58 2 -10 -11 -16 -9 -29 7 -14 17 -27 20 -82 17
-35 -2 -67 -7 -70 -12 -3 -5 -22 -5 -45 0 -21 5 -43 6 -48 3 -21 -13 -96 -11
-108 3 -14 18 -20 18 -45 -1z m-64 -210 c0 -8 -7 -15 -15 -15 -8 0 -15 7 -15
15 0 8 7 15 15 15 8 0 15 -7 15 -15z m315 -15 c-5 -8 -11 -8 -17 -2 -6 6 -7
16 -3 22 5 8 11 8 17 2 6 -6 7 -16 3 -22z m-235 5 c0 -8 -7 -15 -15 -15 -8 0
-15 7 -15 15 0 8 7 15 15 15 8 0 15 -7 15 -15z m403 -12 c8 -7 -11 -33 -24
-33 -5 0 -9 9 -9 20 0 19 20 27 33 13z m-253 -23 c0 -5 -4 -10 -10 -10 -5 0
-10 5 -10 10 0 6 5 10 10 10 6 0 10 -4 10 -10z m-570 -20 c0 -5 -4 -10 -10
-10 -5 0 -10 5 -10 10 0 6 5 10 10 10 6 0 10 -4 10 -10z m281 -46 c38 -19 73
-95 66 -144 -7 -57 -37 -112 -74 -136 -26 -17 -42 -21 -80 -16 -75 8 -117 41
-143 109 -19 52 -20 62 -9 98 32 98 142 139 240 89z m556 1 c124 -43 374 -193
406 -242 4 -7 15 -13 24 -13 25 0 118 -100 148 -160 53 -105 23 -218 -68 -252
-78 -29 -162 7 -271 116 -75 75 -86 79 -117 43 -15 -18 -30 -27 -37 -23 -17
10 -15 51 3 66 12 10 9 16 -23 38 -43 29 -89 43 -149 45 -27 1 -50 10 -65 24
-13 11 -39 28 -58 36 -19 8 -48 29 -65 46 -28 30 -30 38 -30 104 0 90 16 128
69 168 40 30 44 31 116 25 41 -4 94 -13 117 -21z m-439 3 c7 -7 12 -21 12 -32
0 -12 7 -30 15 -40 17 -23 18 -35 5 -56 -9 -13 -11 -13 -20 0 -5 8 -10 28 -10
44 0 22 -4 27 -16 22 -22 -9 -44 11 -44 39 0 32 35 46 58 23z m-693 -7 c8 -15
-35 -35 -47 -23 -6 6 -7 15 -4 21 9 14 43 14 51 2z m65 -5 c0 -3 -4 -8 -10
-11 -5 -3 -10 -1 -10 4 0 6 5 11 10 11 6 0 10 -2 10 -4z m1759 -35 c21 -13 5
-41 -22 -41 -32 0 -57 28 -36 41 18 11 40 11 58 0z m-1624 -11 c9 -15 -43 -36
-56 -23 -6 6 -8 16 -5 22 9 14 53 14 61 1z m615 -20 c0 -5 -4 -10 -10 -10 -5
0 -10 5 -10 10 0 6 5 10 10 10 6 0 10 -4 10 -10z m-1171 -91 c-11 -11 -24 -18
-27 -14 -4 4 2 13 12 21 30 21 39 17 15 -7z m-59 -58 c0 -11 -19 -26 -45 -35
-17 -6 -17 -4 4 18 25 26 41 33 41 17z m338 -68 c-14 -17 -25 -16 -32 3 -9 24
3 35 24 22 14 -9 16 -16 8 -25z m-456 -58 c-8 -30 -32 -47 -32 -23 0 15 30 61
36 56 2 -2 0 -17 -4 -33z m561 21 c7 -16 -1 -26 -20 -26 -7 0 -13 9 -13 20 0
23 25 27 33 6z m107 -30 c0 -20 -19 -31 -32 -18 -6 6 -7 15 -4 21 10 16 36 13
36 -3z m-181 -40 c11 -13 9 -16 -13 -22 -13 -3 -30 -3 -35 1 -12 7 -15 38 -5
48 8 8 36 -7 53 -27z m951 19 c0 -8 -7 -15 -15 -15 -16 0 -20 12 -8 23 11 12
23 8 23 -8z m-1494 -37 c-37 -53 -55 -105 -49 -142 5 -33 4 -37 -13 -34 -15 2
-20 -5 -24 -39 -5 -30 -14 -49 -34 -64 -23 -18 -27 -28 -25 -61 2 -24 -2 -42
-10 -47 -8 -5 -11 -17 -7 -29 5 -14 -2 -30 -23 -54 -31 -36 -39 -61 -28 -94 4
-11 1 -40 -8 -64 -8 -23 -15 -55 -15 -70 0 -16 -12 -42 -26 -59 -15 -18 -23
-38 -20 -48 3 -10 -1 -29 -8 -42 -10 -19 -11 -31 -3 -48 8 -18 7 -26 -5 -36
-8 -6 -20 -39 -27 -71 -9 -51 -9 -60 5 -71 14 -10 14 -14 3 -26 -21 -22 -41
-78 -50 -144 -5 -33 -14 -85 -20 -115 -6 -30 -13 -96 -16 -147 -3 -63 -9 -95
-19 -104 -17 -14 -18 -52 -3 -80 8 -16 7 -25 -4 -37 -22 -26 -29 -103 -10
-124 14 -15 13 -20 -6 -47 -23 -32 -19 -65 8 -57 9 3 22 2 29 -3 17 -11 -11
-36 -32 -28 -20 8 -43 -60 -27 -76 14 -14 14 -64 0 -73 -6 -3 -9 -15 -6 -25 3
-10 -1 -23 -9 -30 -14 -12 -10 -57 9 -97 8 -18 7 -27 -10 -50 -15 -21 -18 -31
-9 -44 14 -22 7 -28 -40 -31 l-39 -2 0 141 c0 135 7 293 21 454 4 41 7 107 8
147 1 40 5 75 9 79 4 4 7 42 7 84 0 42 5 81 10 86 6 6 12 44 13 85 2 41 7 81
12 89 9 14 14 40 39 185 7 44 18 91 23 105 19 46 33 96 33 117 0 11 7 34 16
52 9 18 25 69 36 114 11 45 37 118 58 162 20 44 43 98 50 120 6 22 18 53 26
68 8 16 14 33 14 37 0 5 11 20 25 34 14 14 25 32 25 42 0 9 8 28 19 42 10 15
28 47 41 71 19 39 86 121 98 121 2 0 -3 -10 -12 -22z m720 -75 c-10 -10 -19 5
-10 18 6 11 8 11 12 0 2 -7 1 -15 -2 -18z m-486 -57 c0 -19 -27 -28 -33 -11
-7 15 1 25 20 25 7 0 13 -6 13 -14z m638 -4 c10 -7 8 -14 -8 -34 -26 -34 -65
-43 -96 -23 -47 30 -23 65 46 65 25 0 51 -4 58 -8z m-3133 -12 c3 -5 -1 -10
-9 -10 -9 0 -16 5 -16 10 0 6 4 10 9 10 6 0 13 -4 16 -10z m2731 -11 c10 -17
-13 -36 -27 -22 -12 12 -4 33 11 33 5 0 12 -5 16 -11z m934 1 c0 -5 -4 -10
-10 -10 -5 0 -10 5 -10 10 0 6 5 10 10 10 6 0 10 -4 10 -10z m1043 -36 c-5
-15 -25 -15 -24 -1 1 4 1 17 1 30 1 21 1 21 15 4 7 -11 11 -25 8 -33z m-4885
12 c12 -27 7 -36 -19 -36 -22 0 -33 28 -18 46 16 20 24 17 37 -10z m3472 -7
c0 -5 -4 -9 -10 -9 -5 0 -10 7 -10 16 0 8 5 12 10 9 6 -3 10 -10 10 -16z
m-888 -4 c0 -5 -5 -11 -11 -13 -6 -2 -11 4 -11 13 0 9 5 15 11 13 6 -2 11 -8
11 -13z m-2793 -19 c9 -11 10 -20 1 -36 -12 -23 -28 -23 -43 2 -22 34 17 65
42 34z m2681 -16 c0 -5 -7 -10 -16 -10 -8 0 -12 5 -9 10 3 6 10 10 16 10 5 0
9 -4 9 -10z m567 -10 c2 -8 -1 -21 -6 -29 -8 -12 -12 -12 -25 -2 -25 21 -21
53 6 49 13 -2 24 -10 25 -18z m-2611 -27 c-10 -10 -19 5 -10 18 6 11 8 11 12
0 2 -7 1 -15 -2 -18z m2464 7 c21 -17 23 -21 10 -30 -17 -11 -60 -13 -84 -4
-9 3 -16 17 -16 30 0 20 5 24 33 24 17 0 43 -9 57 -20z m1250 6 c0 -20 -26
-40 -35 -26 -10 16 2 40 20 40 8 0 15 -6 15 -14z m-3828 -11 c0 -5 -5 -11 -11
-13 -6 -2 -11 4 -11 13 0 9 5 15 11 13 6 -2 11 -8 11 -13z m2928 -16 c0 -5 -4
-9 -10 -9 -5 0 -10 7 -10 16 0 8 5 12 10 9 6 -3 10 -10 10 -16z m530 11 c0 -5
-4 -10 -10 -10 -5 0 -10 5 -10 10 0 6 5 10 10 10 6 0 10 -4 10 -10z m755 0
c-3 -5 -15 -10 -26 -10 -10 0 -19 5 -19 10 0 6 12 10 26 10 14 0 23 -4 19 -10z
m292 -6 c10 -26 -14 -41 -35 -21 -15 16 -15 19 -2 27 21 14 30 12 37 -6z
m-4197 -4 c0 -5 -4 -10 -10 -10 -5 0 -10 5 -10 10 0 6 5 10 10 10 6 0 10 -4
10 -10z m310 6 c0 -3 -4 -8 -10 -11 -5 -3 -10 -1 -10 4 0 6 5 11 10 11 6 0 10
-2 10 -4z m2210 -11 c0 -8 -4 -15 -10 -15 -5 0 -10 7 -10 15 0 8 5 15 10 15 6
0 10 -7 10 -15z m-2790 -13 c61 -10 195 -56 216 -73 7 -6 22 -8 33 -4 11 3 23
0 28 -7 9 -15 34 -31 118 -78 78 -43 101 -61 188 -145 109 -106 121 -124 131
-200 5 -39 2 -57 -13 -81 -14 -22 -16 -35 -9 -42 14 -14 3 -42 -18 -42 -9 0
-18 8 -21 19 -4 14 -17 20 -59 24 -58 6 -110 41 -169 116 -28 36 -216 175
-253 188 -9 3 -39 16 -67 28 -51 23 -196 46 -270 43 -70 -2 -122 19 -150 60
-54 82 3 178 120 206 26 6 126 0 195 -12z m-342 -14 c17 -17 15 -48 -4 -55
-24 -9 -46 24 -33 48 11 22 20 24 37 7z m4650 1 c-2 -6 -8 -10 -13 -10 -5 0
-11 4 -13 10 -2 6 4 11 13 11 9 0 15 -5 13 -11z m-5298 -39 c0 -5 -9 -10 -20
-10 -11 0 -20 5 -20 10 0 6 9 10 20 10 11 0 20 -4 20 -10z m398 -13 c29 -24
43 -67 36 -115 -8 -62 -26 -88 -70 -102 -29 -10 -45 -10 -75 0 -22 7 -39 16
-39 20 0 12 -37 50 -49 50 -15 0 -14 9 5 27 8 9 13 22 10 30 -4 8 3 27 13 42
11 15 21 34 23 42 2 8 8 18 13 22 13 10 116 -2 133 -16z m3335 16 c4 -3 2 -12
-4 -20 -9 -10 -15 -10 -25 -2 -8 6 -11 15 -8 20 6 11 28 12 37 2z m487 -3 c0
-5 -4 -10 -10 -10 -5 0 -10 5 -10 10 0 6 5 10 10 10 6 0 10 -4 10 -10z m-2850
-15 c0 -8 -4 -15 -9 -15 -13 0 -22 16 -14 24 11 11 23 6 23 -9z m2720 -9 c0
-21 -21 -31 -31 -15 -5 8 -3 17 4 21 18 12 27 10 27 -6z m978 -4 c2 -7 -3 -12
-12 -12 -9 0 -16 7 -16 16 0 17 22 14 28 -4z m102 -3 c0 -5 -7 -9 -15 -9 -15
0 -20 12 -9 23 8 8 24 -1 24 -14z m-5000 -3 c0 -16 -18 -31 -27 -22 -8 8 5 36
17 36 5 0 10 -6 10 -14z m3664 -1 c-6 -16 -34 -21 -34 -7 0 13 11 22 26 22 8
0 11 -6 8 -15z m1424 -6 c-2 -6 -8 -10 -13 -10 -5 0 -11 4 -13 10 -2 6 4 11
13 11 9 0 15 -5 13 -11z m-2131 -20 l28 -11 -30 -14 c-55 -24 -87 -10 -53 24
15 15 20 15 55 1z m1253 -45 c0 -8 -7 -14 -15 -14 -15 0 -21 21 -9 33 10 9 24
-2 24 -19z m-233 -1 c6 -16 -41 -45 -61 -37 -35 13 -7 57 33 52 14 -2 26 -8
28 -15z m-2367 -14 c0 -5 -4 -9 -10 -9 -5 0 -10 7 -10 16 0 8 5 12 10 9 6 -3
10 -10 10 -16z m1598 9 c19 -19 15 -48 -6 -48 -23 0 -56 35 -47 49 8 15 38 14
53 -1z m-438 -7 c0 -6 -4 -13 -10 -16 -5 -3 -10 1 -10 9 0 9 5 16 10 16 6 0
10 -4 10 -9z m850 -1 c0 -5 -4 -10 -10 -10 -5 0 -10 5 -10 10 0 6 5 10 10 10
6 0 10 -4 10 -10z m1538 -1 c-2 -6 -8 -10 -13 -10 -5 0 -11 4 -13 10 -2 6 4
11 13 11 9 0 15 -5 13 -11z m-1698 -19 c0 -5 -4 -10 -10 -10 -5 0 -10 5 -10
10 0 6 5 10 10 10 6 0 10 -4 10 -10z m830 -50 c0 -5 -4 -10 -10 -10 -5 0 -10
5 -10 10 0 6 5 10 10 10 6 0 10 -4 10 -10z m-4816 -32 c-3 -4 -15 -8 -26 -8
-21 0 -21 1 -3 20 14 15 21 17 26 8 4 -7 5 -16 3 -20z m266 -19 c0 -17 -23
-20 -38 -6 -13 14 -13 18 -2 32 13 16 15 15 27 -1 7 -10 13 -21 13 -25z m75
31 c3 -5 1 -10 -4 -10 -6 0 -11 5 -11 10 0 6 2 10 4 10 3 0 8 -4 11 -10z
m3700 -26 c0 -22 -5 -29 -20 -29 -23 0 -32 30 -14 51 18 22 34 11 34 -22z
m175 26 c0 -5 -2 -10 -4 -10 -3 0 -8 5 -11 10 -3 6 -1 10 4 10 6 0 11 -4 11
-10z m-390 -40 c-18 -11 -24 -6 -16 16 5 14 9 15 19 5 9 -9 9 -14 -3 -21z
m1732 6 c5 -7 -9 -14 -43 -19 -60 -10 -79 -5 -79 24 0 20 3 21 58 14 31 -4 60
-12 64 -19z m228 16 c0 -4 -9 -13 -20 -20 -16 -10 -20 -10 -20 1 0 8 3 17 7
20 9 9 33 9 33 -1z m-4870 -18 c0 -9 -5 -14 -12 -12 -18 6 -21 28 -4 28 9 0
16 -7 16 -16z m2820 8 c0 -5 -9 -17 -19 -26 -16 -15 -25 -16 -60 -6 -67 18
-49 35 42 39 20 0 37 -3 37 -7z m-2932 -24 c-2 -13 -10 -23 -18 -23 -8 0 -16
10 -18 23 -3 17 2 22 18 22 16 0 21 -5 18 -22z m-725 -13 c-6 -17 -25 -15 -31
3 -2 7 5 12 17 12 14 0 19 -5 14 -15z m65 -73 c-28 -49 -54 -64 -64 -38 -11
29 6 66 39 86 48 29 58 10 25 -48z m580 41 c4 -30 -42 -43 -66 -19 -16 16 -16
18 3 32 28 20 59 14 63 -13z m2683 14 c-1 -12 -15 -9 -19 4 -3 6 1 10 8 8 6
-3 11 -8 11 -12z m-3547 -30 c-3 -9 -14 -19 -25 -22 -10 -3 -24 -18 -31 -33
-7 -15 -23 -31 -35 -37 -12 -5 -28 -22 -34 -38 -7 -15 -29 -43 -50 -61 -22
-18 -39 -42 -39 -54 0 -11 -18 -39 -41 -63 -32 -33 -39 -47 -34 -66 6 -25 -7
-44 -37 -56 -10 -3 -18 -15 -18 -25 0 -11 -9 -31 -20 -45 -11 -14 -19 -29 -18
-34 5 -15 -30 -88 -52 -108 -15 -13 -21 -30 -20 -55 3 -60 1 -68 -20 -75 -11
-3 -20 -13 -20 -22 0 -8 -9 -28 -21 -44 -12 -18 -18 -37 -14 -48 4 -13 -4 -35
-21 -60 -18 -28 -27 -55 -28 -87 -1 -33 -7 -50 -21 -61 -14 -11 -16 -17 -8
-20 17 -6 6 -84 -15 -100 -8 -7 -15 -27 -14 -44 0 -18 -7 -48 -17 -68 -33 -65
-35 -81 -11 -81 18 0 21 -5 18 -32 -2 -26 -8 -34 -26 -36 -17 -3 -21 -8 -17
-22 3 -10 1 -21 -5 -25 -7 -4 -9 -17 -6 -30 4 -15 -1 -28 -14 -40 -27 -24 -27
-48 0 -40 14 4 20 2 20 -8 0 -9 -5 -17 -11 -19 -6 -2 -12 -19 -14 -38 -6 -53
-17 -94 -27 -107 -6 -7 -7 -20 -4 -29 4 -10 -1 -22 -11 -29 -15 -11 -15 -15
-4 -29 10 -12 11 -19 2 -30 -7 -8 -9 -25 -6 -39 4 -14 1 -36 -6 -48 -22 -42
-28 -87 -13 -100 20 -16 17 -47 -6 -76 -21 -26 -20 -73 1 -114 6 -11 4 -21 -6
-29 -17 -14 -20 -72 -5 -100 7 -13 6 -28 -1 -47 -6 -15 -11 -56 -11 -90 0 -35
-3 -63 -8 -63 -4 0 -2 -18 3 -40 8 -30 8 -49 -2 -76 -11 -30 -11 -38 3 -53 14
-15 14 -22 1 -66 -13 -43 -13 -50 0 -65 25 -28 2 -70 -39 -70 -11 0 -28 -7
-38 -16 -14 -13 -21 -14 -32 -5 -12 10 -14 42 -11 174 2 89 6 182 9 207 2 25
5 88 6 140 2 110 25 381 44 525 7 55 14 109 14 120 2 30 10 75 22 123 6 24 12
60 15 80 11 82 39 214 49 230 4 6 14 51 22 99 8 49 22 98 30 110 8 12 14 33
14 46 0 14 16 59 35 101 19 43 35 87 35 99 0 12 6 32 13 44 6 12 25 48 41 80
15 32 35 70 42 85 8 14 14 32 14 39 0 6 18 43 40 81 22 39 43 81 46 94 3 13 9
24 13 24 10 0 61 79 61 95 0 7 7 18 16 25 8 8 27 34 41 59 15 25 38 58 52 73
45 47 65 72 89 107 13 19 46 55 73 81 27 25 49 52 49 58 0 7 6 12 14 12 7 0
19 7 26 15 15 19 23 14 14 -8z m1553 1 c-3 -8 -6 -5 -6 6 -1 11 2 17 5 13 3
-3 4 -12 1 -19z m2955 7 c0 -5 -5 -11 -11 -13 -6 -2 -11 4 -11 13 0 9 5 15 11
13 6 -2 11 -8 11 -13z m-3192 -5 c0 -5 -4 -10 -10 -10 -5 0 -10 5 -10 10 0 6
5 10 10 10 6 0 10 -4 10 -10z m2446 -37 c-3 -8 -6 -17 -6 -19 0 -2 -6 -4 -14
-4 -21 0 -30 19 -16 35 14 17 43 8 36 -12z m212 10 c-5 -26 -38 -29 -38 -4 0
15 6 21 21 21 14 0 19 -5 17 -17z m1797 7 c14 5 24 6 21 1 -6 -9 -61 -29 -146
-54 -186 -53 -457 -94 -514 -78 -22 6 -72 6 -133 0 -126 -11 -143 -11 -143 0
0 5 24 19 53 32 39 18 72 24 132 26 44 1 100 6 125 11 25 6 52 6 60 2 9 -5 34
-6 56 -4 21 3 69 6 105 8 36 2 72 7 80 12 14 9 29 10 151 16 38 2 63 9 74 20
13 12 22 14 35 7 11 -6 27 -5 44 1z m-5291 -9 c9 -15 -23 -36 -36 -23 -5 5 -7
15 -4 21 9 13 33 14 40 2z m118 -16 c17 -37 -4 -56 -33 -29 -11 10 -25 27 -30
36 -8 15 -5 18 21 18 23 0 33 -6 42 -25z m884 -6 c8 -14 -11 -33 -25 -25 -11
7 -4 36 9 36 5 0 12 -5 16 -11z m1044 -19 c0 -22 -16 -26 -40 -10 -13 9 -13
11 0 20 24 16 40 12 40 -10z m1900 -34 c-18 -18 -34 8 -19 35 l12 23 9 -24 c5
-15 5 -27 -2 -34z m268 31 c3 -12 -11 -23 -44 -37 -26 -11 -50 -18 -53 -14 -8
8 70 75 83 71 6 -2 12 -11 14 -20z m-3408 -26 c0 -14 -28 -33 -40 -26 -11 7
-14 38 -4 48 8 8 44 -10 44 -22z m540 -22 c0 -5 -7 -9 -15 -9 -15 0 -20 12 -9
23 8 8 24 -1 24 -14z m-1105 -29 c-6 -20 -9 -21 -23 -7 -13 13 -13 19 -2 32
17 21 34 4 25 -25z m275 30 c0 -5 -4 -10 -10 -10 -5 0 -10 5 -10 10 0 6 5 10
10 10 6 0 10 -4 10 -10z m3840 -35 c0 -3 -11 -5 -25 -5 -17 0 -23 4 -19 15 5
11 11 12 25 4 10 -5 19 -12 19 -14z m-3460 -5 c0 -5 -4 -10 -10 -10 -5 0 -10
5 -10 10 0 6 5 10 10 10 6 0 10 -4 10 -10z m3318 -11 c-4 -13 -108 -51 -108
-39 0 4 15 17 33 29 34 22 81 28 75 10z m-4463 -9 c7 -11 -12 -40 -25 -40 -11
0 -21 30 -14 41 7 12 31 11 39 -1z m2015 0 c0 -5 -4 -10 -10 -10 -5 0 -10 5
-10 10 0 6 5 10 10 10 6 0 10 -4 10 -10z m1370 -5 c0 -8 -7 -15 -15 -15 -8 0
-15 7 -15 15 0 8 7 15 15 15 8 0 15 -7 15 -15z m-2060 -48 c0 -21 -27 -34 -41
-20 -6 6 -7 22 -4 36 6 23 9 24 26 14 10 -6 19 -20 19 -30z m310 23 c8 -15 6
-21 -8 -29 -22 -12 -42 3 -42 31 0 25 36 23 50 -2z m-1275 -9 c3 -6 -3 -15
-14 -21 -21 -11 -37 2 -26 20 8 13 32 13 40 1z m400 -11 c15 -16 15 -22 5 -35
-19 -23 -49 -18 -56 9 -11 46 19 62 51 26z m652 -16 c-9 -9 -28 6 -21 18 4 6
10 6 17 -1 6 -6 8 -13 4 -17z m-929 -2 c2 -7 -3 -12 -12 -12 -9 0 -16 7 -16
16 0 17 22 14 28 -4z m-618 -22 c0 -23 -24 -42 -44 -34 -22 8 -21 51 2 56 26
6 42 -2 42 -22z m980 14 c11 -12 10 -18 -3 -32 -21 -21 -42 -3 -32 27 8 25 18
27 35 5z m1218 -5 c-2 -6 -8 -10 -13 -10 -5 0 -11 4 -13 10 -2 6 4 11 13 11 9
0 15 -5 13 -11z m1940 -11 c-4 -30 -48 -39 -48 -10 0 10 3 22 7 25 3 4 15 7
25 7 14 0 19 -6 16 -22z m-194 -5 c7 -16 -8 -33 -30 -33 -14 0 -26 28 -18 41
9 15 41 10 48 -8z m-2836 -10 c5 -17 -26 -29 -40 -15 -6 6 -7 15 -3 22 9 14
37 9 43 -7z m2952 3 c0 -8 -4 -17 -9 -21 -12 -7 -24 12 -16 25 9 15 25 12 25
-4z m-4310 -16 c0 -5 -7 -10 -15 -10 -8 0 -15 5 -15 10 0 6 7 10 15 10 8 0 15
-4 15 -10z m3838 -2 c17 -17 15 -38 -3 -38 -12 0 -35 28 -35 44 0 11 26 6 38
-6z m-3389 -22 c9 -11 8 -15 -5 -20 -23 -9 -24 -8 -24 14 0 23 13 26 29 6z
m1171 -2 c0 -9 -5 -14 -12 -12 -18 6 -21 28 -4 28 9 0 16 -7 16 -16z m398 -2
c2 -7 -3 -12 -12 -12 -9 0 -16 7 -16 16 0 17 22 14 28 -4z m96 9 c10 -16 -5
-41 -24 -41 -22 0 -35 30 -18 42 17 10 36 10 42 -1z m1816 -11 c0 -5 -4 -10
-10 -10 -5 0 -10 5 -10 10 0 6 5 10 10 10 6 0 10 -4 10 -10z m-3740 -29 c20
-38 -19 -76 -49 -47 -12 12 -12 20 -3 41 14 30 37 33 52 6z m650 4 c15 -18 6
-45 -13 -45 -17 0 -67 38 -67 51 0 15 67 10 80 -6z m-554 -6 c10 -17 -13 -36
-27 -22 -12 12 -4 33 11 33 5 0 12 -5 16 -11z m851 5 c30 -8 16 -36 -31 -58
-37 -17 -61 -14 -70 11 -15 37 41 63 101 47z m2597 -13 c12 -19 -62 -60 -85
-46 -16 11 30 55 57 55 13 0 25 -4 28 -9z m636 -6 c11 -13 10 -18 -6 -30 -10
-8 -22 -15 -25 -15 -14 0 -31 30 -25 45 7 19 40 19 56 0z m-4395 -20 c0 -23
-30 -32 -51 -14 -11 9 -12 15 -2 26 17 20 53 12 53 -12z m749 -21 c8 -21 1
-28 -18 -21 -9 4 -13 13 -10 22 8 20 20 19 28 -1z m2816 2 c0 -16 -18 -31 -27
-22 -8 8 5 36 17 36 5 0 10 -6 10 -14z m473 -11 c1 -5 -6 -11 -15 -13 -11 -2
-18 3 -18 13 0 17 30 18 33 0z m-3025 -19 c5 -26 -6 -34 -68 -42 -52 -7 -54
-6 -40 11 21 26 72 56 90 52 8 -1 16 -11 18 -21z m1182 14 c0 -5 -7 -10 -15
-10 -8 0 -15 5 -15 10 0 6 7 10 15 10 8 0 15 -4 15 -10z m-1931 -24 c9 -10 8
-16 -4 -26 -13 -11 -19 -11 -32 2 -16 17 -10 38 11 38 8 0 19 -6 25 -14z
m1235 -13 c9 -23 -13 -46 -30 -32 -14 12 -19 41 -8 52 9 9 32 -3 38 -20z m516
-27 c0 -22 -6 -36 -16 -40 -35 -13 -46 24 -17 56 24 27 33 22 33 -16z m-1866
-1 c2 -7 -1 -18 -8 -24 -17 -14 -41 12 -32 34 6 17 32 10 40 -10z m226 10 c10
-12 10 -18 0 -30 -20 -24 -50 -19 -50 8 0 39 26 50 50 22z m1206 -12 c-10 -10
-19 5 -10 18 6 11 8 11 12 0 2 -7 1 -15 -2 -18z m-1666 -14 c0 -10 -4 -19 -10
-19 -5 0 -10 12 -10 26 0 14 4 23 10 19 6 -3 10 -15 10 -26z m677 11 c11 -17
10 -21 -8 -31 -17 -9 -25 -8 -37 4 -8 9 -12 23 -9 31 9 22 40 20 54 -4z m3853
4 c0 -9 -5 -14 -12 -12 -18 6 -21 28 -4 28 9 0 16 -7 16 -16z m-3366 -20 c11
-29 6 -44 -14 -44 -23 0 -35 22 -26 45 7 20 32 19 40 -1z m2426 -9 c0 -8 -4
-15 -9 -15 -13 0 -22 16 -14 24 11 11 23 6 23 -9z m531 -8 c-13 -13 -26 -3
-16 12 3 6 11 8 17 5 6 -4 6 -10 -1 -17z m-2623 -21 c12 -27 7 -36 -20 -36
-24 0 -34 26 -18 45 17 21 25 19 38 -9z m-540 -32 c-19 -19 -38 -11 -38 16 0
24 21 31 40 14 12 -12 12 -16 -2 -30z m1532 17 c-13 -24 -40 -34 -74 -25 -50
12 -20 44 41 44 40 0 43 -2 33 -19z m-1612 -8 c5 -17 -26 -29 -40 -15 -6 6 -7
15 -3 22 9 14 37 9 43 -7z m-605 -7 c7 -18 -1 -26 -25 -26 -11 0 -18 7 -18 20
0 23 35 28 43 6z m337 -12 c0 -8 -7 -14 -15 -14 -15 0 -21 21 -9 33 10 9 24
-2 24 -19z m3718 -2 c4 -28 -24 -40 -45 -19 -14 13 -14 19 -3 32 18 22 44 15
48 -13z m-3060 6 c-6 -18 -28 -21 -28 -4 0 9 7 16 16 16 9 0 14 -5 12 -12z
m-748 -13 c15 -18 6 -45 -14 -45 -16 0 -31 34 -21 50 9 14 21 12 35 -5z m-463
-21 c5 -15 -28 -27 -40 -15 -5 5 -6 14 -2 21 8 13 37 9 42 -6z m851 -41 c3
-21 -22 -38 -39 -27 -13 8 -11 42 4 47 20 9 32 2 35 -20z m1302 19 c0 -13 -12
-22 -22 -16 -10 6 -1 24 13 24 5 0 9 -4 9 -8z m-1858 -17 c0 -5 -5 -11 -11
-13 -6 -2 -11 4 -11 13 0 9 5 15 11 13 6 -2 11 -8 11 -13z m1588 -4 c12 -24
13 -51 1 -70 -16 -25 -41 6 -41 50 0 43 21 54 40 20z m588 1 c2 -7 -3 -12 -12
-12 -9 0 -16 7 -16 16 0 17 22 14 28 -4z m1990 1 c-4 -22 -22 -20 -26 1 -2 10
3 16 13 16 10 0 15 -7 13 -17z m-4372 -20 c-10 -10 -19 5 -10 18 6 11 8 11 12
0 2 -7 1 -15 -2 -18z m1099 -3 c8 -13 -13 -40 -31 -40 -14 0 -19 31 -7 43 10
10 31 8 38 -3z m-1188 -16 c8 -21 -13 -42 -28 -27 -13 13 -5 43 11 43 6 0 13
-7 17 -16z m543 -4 c0 -5 -7 -10 -15 -10 -8 0 -15 5 -15 10 0 6 7 10 15 10 8
0 15 -4 15 -10z m-102 -12 c16 -16 15 -38 -1 -38 -19 0 -36 20 -30 36 6 17 15
18 31 2z m1542 -23 c0 -18 -21 -24 -44 -12 -18 9 -18 10 5 22 26 14 39 11 39
-10z m-620 -25 c0 -20 -17 -30 -37 -22 -16 5 -17 34 -1 50 15 15 38 -2 38 -28z
m2530 36 c0 -3 -4 -8 -10 -11 -5 -3 -10 -1 -10 4 0 6 5 11 10 11 6 0 10 -2 10
-4z m631 -8 c-1 -5 -1 -17 -1 -28 0 -11 -6 -20 -14 -20 -17 0 -31 34 -21 50 7
12 36 10 36 -2z m-2823 -15 c5 -17 -26 -29 -40 -15 -6 6 -7 15 -3 22 9 14 37
9 43 -7z m-1055 0 c9 -9 -13 -34 -24 -27 -14 8 -11 34 4 34 8 0 17 -3 20 -7z
m187 -7 c0 -8 -4 -18 -10 -21 -5 -3 -10 -4 -10 -1 0 2 -3 11 -6 20 -4 11 -1
16 10 16 9 0 16 -6 16 -14z m-683 -40 c-7 -18 -42 -22 -52 -5 -4 5 1 19 11 30
15 17 19 18 32 5 8 -8 12 -22 9 -30z m-101 8 c16 -23 16 -27 1 -41 -22 -22
-47 -9 -47 25 0 49 20 56 46 16z m289 16 c12 -19 -16 -40 -51 -40 -39 0 -43
12 -12 34 26 18 54 21 63 6z m1458 -10 c28 -22 48 -25 63 -10 6 6 30 6 64 1
30 -5 59 -6 65 -3 17 11 79 1 96 -14 14 -12 22 -13 39 -4 12 7 38 8 65 5 32
-5 58 -2 101 14 56 21 107 22 74 1 -8 -6 -26 -10 -40 -10 -14 0 -37 -6 -51
-14 -27 -14 -72 -22 -168 -31 -29 -3 -61 -10 -71 -15 -9 -5 -19 -7 -21 -5 -3
2 -22 0 -44 -5 -40 -10 -224 -25 -257 -21 -28 2 -54 2 -185 -2 -115 -4 -123
-3 -123 14 0 12 7 19 20 19 10 0 36 11 56 25 20 14 44 25 53 25 10 0 26 6 36
14 13 9 25 11 37 5 21 -11 102 0 125 17 25 18 36 17 66 -6z m1837 10 c0 -5 -4
-10 -10 -10 -5 0 -10 5 -10 10 0 6 5 10 10 10 6 0 10 -4 10 -10z m-3127 -25
c8 -19 -13 -31 -23 -14 -9 14 -4 29 10 29 4 0 10 -7 13 -15z m3927 -34 c0 -29
-34 -69 -44 -53 -11 18 21 95 36 86 4 -3 8 -18 8 -33z m-4484 -10 c-22 -21
-46 0 -26 24 10 12 16 13 27 3 12 -10 12 -13 -1 -27z m-115 19 c39 -21 -15
-70 -61 -55 -26 8 -25 30 2 49 26 19 33 19 59 6z m4072 3 c31 -5 38 -9 35 -27
-6 -45 -108 -26 -108 20 0 15 15 17 73 7z m-3279 -28 c6 -18 -29 -41 -39 -25
-10 16 2 40 19 40 7 0 16 -7 20 -15z m3606 0 c18 -21 5 -45 -24 -45 -31 0 -40
14 -26 40 13 24 33 26 50 5z m-3830 -5 c0 -5 -5 -10 -11 -10 -5 0 -7 5 -4 10
3 6 8 10 11 10 2 0 4 -4 4 -10z m417 -16 c3 -9 -3 -24 -15 -36 l-20 -20 -12
21 c-9 17 -9 26 1 37 15 19 38 18 46 -2z m503 1 c0 -8 -9 -15 -20 -15 -11 0
-20 7 -20 15 0 8 9 15 20 15 11 0 20 -7 20 -15z m-321 -9 c9 -10 8 -16 -4 -26
-19 -15 -47 3 -38 26 7 18 27 18 42 0z m-262 -32 c1 -5 -5 -19 -15 -31 l-17
-23 -29 23 -29 24 22 22 c20 20 25 21 44 8 11 -7 22 -18 24 -23z m481 14 c17
-17 15 -55 -4 -62 -21 -8 -20 -9 -27 37 -6 39 7 49 31 25z m3450 1 c-2 -6 -8
-10 -13 -10 -5 0 -11 4 -13 10 -2 6 4 11 13 11 9 0 15 -5 13 -11z m-4738 -15
c0 -17 -22 -14 -28 4 -2 7 3 12 12 12 9 0 16 -7 16 -16z m-190 -19 c17 -20 5
-45 -20 -45 -11 0 -23 7 -26 15 -6 15 11 45 26 45 4 0 13 -7 20 -15z m486 -9
c15 -12 17 -18 8 -33 -24 -38 -67 -10 -50 33 7 18 17 18 42 0z m4069 -16 c0
-22 -29 -18 -33 3 -3 14 1 18 15 15 10 -2 18 -10 18 -18z m-3700 -1 c4 -5 -1
-19 -11 -30 -16 -18 -19 -18 -27 -4 -14 27 23 60 38 34z m3343 -1 c-5 -14 -95
-34 -105 -25 -3 4 -3 13 0 22 8 19 111 22 105 3z m-3538 -37 c0 -37 -13 -46
-34 -25 -18 18 -18 17 -10 38 3 9 15 16 25 16 14 0 19 -7 19 -29z m406 15 c3
-8 -5 -25 -19 -38 -13 -13 -28 -32 -34 -42 -8 -15 -17 -17 -46 -12 -20 4 -45
15 -58 24 -18 16 -20 22 -10 40 13 24 51 29 94 13 21 -8 26 -6 30 10 6 22 35
26 43 5z m214 -16 c0 -5 -4 -10 -10 -10 -5 0 -10 5 -10 10 0 6 5 10 10 10 6 0
10 -4 10 -10z m3034 1 c3 -5 -1 -11 -9 -15 -15 -6 -29 7 -18 18 9 9 21 8 27
-3z m-360 -16 c3 -8 1 -15 -4 -15 -6 0 -10 7 -10 15 0 8 2 15 4 15 2 0 6 -7
10 -15z m936 8 c0 -5 -4 -15 -10 -23 -11 -18 -25 -7 -17 15 6 15 27 21 27 8z
m-4510 -17 c0 -11 -19 -15 -25 -6 -3 5 1 10 9 10 9 0 16 -2 16 -4z m-452 -27
c-2 -6 -8 -10 -13 -10 -5 0 -11 4 -13 10 -2 6 4 11 13 11 9 0 15 -5 13 -11z
m360 -1 c-5 -15 -48 -24 -48 -10 0 14 12 22 33 22 10 0 17 -5 15 -12z m282 -3
c10 -12 9 -16 -5 -21 -19 -8 -40 9 -31 25 10 15 21 14 36 -4z m200 6 c0 -17
-18 -21 -24 -6 -3 9 0 15 9 15 8 0 15 -4 15 -9z m390 -15 c0 -42 -65 -71 -90
-40 -13 14 -11 19 13 40 38 32 77 32 77 0z m-685 -28 c28 -13 30 -19 13 -36
-29 -29 -76 -4 -62 33 7 18 15 19 49 3z m183 -32 c-2 -13 -10 -21 -23 -21 -23
0 -32 30 -14 51 16 19 41 -1 37 -30z m-544 15 c8 -12 -3 -41 -15 -41 -5 0 -9
11 -9 25 0 25 14 34 24 16z m4190 -10 c11 -17 -6 -101 -20 -101 -10 0 -14 14
-14 48 0 27 3 52 7 55 9 10 21 9 27 -2z m-3938 -17 c-15 -40 -17 -66 -8 -94
l11 -30 -60 0 c-68 0 -85 17 -51 53 11 12 27 37 36 55 13 26 23 32 47 32 24 0
30 -3 25 -16z m4501 -1 c2 -6 -3 -13 -12 -16 -10 -5 -15 0 -15 14 0 21 21 22
27 2z m-4873 1 c23 -9 20 -17 -14 -37 -33 -20 -50 -16 -50 12 0 30 25 40 64
25z m4500 -2 c8 -13 -11 -35 -23 -28 -16 10 -14 36 3 36 8 0 17 -4 20 -8z
m-743 -45 c-8 -8 -11 -7 -11 4 0 9 3 19 7 23 4 4 9 2 11 -4 3 -7 -1 -17 -7
-23z m976 11 c-3 -8 -6 -5 -6 6 -1 11 2 17 5 13 3 -3 4 -12 1 -19z m-3977 -3
c0 -8 -4 -15 -9 -15 -13 0 -22 16 -14 24 11 11 23 6 23 -9z m284 -6 c-3 -5
-10 -7 -15 -3 -5 3 -7 10 -3 15 3 5 10 7 15 3 5 -3 7 -10 3 -15z m2626 6 c0
-8 -4 -15 -10 -15 -5 0 -10 7 -10 15 0 8 5 15 10 15 6 0 10 -7 10 -15z m952 3
c24 -19 6 -60 -24 -56 -27 3 -38 46 -16 59 17 12 21 11 40 -3z m-4047 -8 c11
-17 -5 -32 -21 -19 -7 6 -11 15 -8 20 7 12 21 11 29 -1z m575 -6 c0 -9 -5 -14
-12 -12 -18 6 -21 28 -4 28 9 0 16 -7 16 -16z m-990 -39 c10 -12 10 -18 0 -30
-17 -20 -27 -19 -35 5 -11 36 12 53 35 25z m-192 -17 c-7 -19 -38 -22 -38 -4
0 10 9 16 21 16 12 0 19 -5 17 -12z m532 -8 c0 -5 -5 -12 -11 -16 -14 -8 -33
11 -25 25 7 11 36 4 36 -9z m384 -15 c3 -9 -1 -18 -10 -22 -19 -7 -28 2 -21
22 8 19 23 19 31 0z m204 -18 c2 -9 -4 -20 -13 -23 -20 -8 -50 19 -40 36 10
17 49 8 53 -13z m3317 13 c3 -5 1 -10 -4 -10 -6 0 -11 5 -11 10 0 6 2 10 4 10
3 0 8 -4 11 -10z m284 -27 c-15 -18 -34 -1 -25 22 5 14 9 15 21 5 12 -10 13
-16 4 -27z m-4099 7 c8 -15 6 -21 -10 -30 -16 -9 -22 -8 -26 5 -7 18 2 45 15
45 6 0 15 -9 21 -20z m3990 -21 c0 -5 -4 -9 -10 -9 -5 0 -10 7 -10 16 0 8 5
12 10 9 6 -3 10 -10 10 -16z m-4400 -14 c0 -8 -4 -15 -9 -15 -13 0 -22 16 -14
24 11 11 23 6 23 -9z m993 -10 c-3 -8 -9 -15 -14 -15 -10 0 -12 24 -3 33 11
11 24 -3 17 -18z m-1275 -12 c3 -22 -28 -40 -48 -28 -12 7 -13 38 -3 49 15 14
48 1 51 -21z m401 13 c9 -11 8 -15 -5 -20 -18 -7 -37 11 -28 26 8 12 20 10 33
-6z m370 -22 c-15 -18 -28 -18 -36 2 -8 20 17 36 34 22 10 -8 10 -14 2 -24z
m-689 11 c0 -8 -4 -15 -9 -15 -13 0 -22 16 -14 24 11 11 23 6 23 -9z m3928 -7
c4 -19 -27 -33 -41 -19 -7 7 -6 16 3 26 15 18 34 15 38 -7z m2792 12 c0 -12
-28 -25 -36 -17 -9 9 6 27 22 27 8 0 14 -5 14 -10z m-6590 -10 c0 -5 -7 -10
-15 -10 -8 0 -15 5 -15 10 0 6 7 10 15 10 8 0 15 -4 15 -10z m648 -22 c-2 -17
-9 -22 -23 -20 -26 5 -29 8 -22 27 4 8 16 15 27 15 16 0 21 -5 18 -22z m4103
-1 c-13 -13 -26 -3 -16 12 3 6 11 8 17 5 6 -4 6 -10 -1 -17z m-4361 -8 c0 -5
-4 -9 -10 -9 -5 0 -10 7 -10 16 0 8 5 12 10 9 6 -3 10 -10 10 -16z m6538 3 c2
-7 -2 -10 -12 -6 -9 3 -16 11 -16 16 0 13 23 5 28 -10z m-6046 -7 c0 -5 -5
-11 -11 -13 -6 -2 -11 4 -11 13 0 9 5 15 11 13 6 -2 11 -8 11 -13z m117 -4
c12 -8 12 -12 2 -25 -16 -19 -35 -20 -50 -3 -20 25 18 47 48 28z m2546 0 c3
-5 1 -12 -5 -16 -5 -3 -10 1 -10 9 0 18 6 21 15 7z m715 -12 c0 -5 -4 -9 -10
-9 -5 0 -10 7 -10 16 0 8 5 12 10 9 6 -3 10 -10 10 -16z m310 11 c0 -5 -4 -10
-10 -10 -5 0 -10 5 -10 10 0 6 5 10 10 10 6 0 10 -4 10 -10z m-82 -38 c4 -26
-22 -40 -43 -22 -11 9 -12 17 -4 32 13 25 43 19 47 -10z m-4373 8 c3 -5 1 -19
-6 -31 -10 -19 -12 -20 -26 -6 -9 9 -13 23 -10 31 7 18 32 21 42 6z m401 0
c26 -10 26 -11 9 -30 -33 -37 -86 -12 -55 25 15 18 12 18 46 5z m3354 -10 c0
-5 -7 -10 -15 -10 -8 0 -15 5 -15 10 0 6 7 10 15 10 8 0 15 -4 15 -10z m322
-22 c-6 -6 -15 -9 -18 -5 -4 3 -4 14 0 23 5 13 9 15 18 6 9 -9 9 -15 0 -24z
m-4383 8 c10 -12 8 -17 -8 -25 -22 -12 -37 0 -27 24 7 19 20 19 35 1z m91 -11
c0 -8 -7 -15 -15 -15 -16 0 -20 12 -8 23 11 12 23 8 23 -8z m92 0 c0 -5 -5
-11 -11 -13 -6 -2 -11 4 -11 13 0 9 5 15 11 13 6 -2 11 -8 11 -13z m219 5 c27
-15 24 -30 -6 -30 -18 0 -25 5 -25 20 0 23 4 24 31 10z m131 -15 c5 -16 -50
-31 -64 -17 -18 18 7 42 37 34 14 -4 26 -11 27 -17z m5528 15 c0 -5 -7 -7 -15
-4 -8 4 -15 8 -15 10 0 2 7 4 15 4 8 0 15 -4 15 -10z m170 2 c0 -12 -40 -33
-50 -27 -22 14 -9 35 20 35 17 0 30 -3 30 -8z m-5345 -21 c3 -5 1 -12 -5 -16
-5 -3 -10 1 -10 9 0 18 6 21 15 7z m3075 -11 c0 -12 -9 -22 -24 -26 -57 -14
-88 16 -34 33 49 16 58 15 58 -7z m854 -51 c-14 -28 -39 -47 -49 -37 -8 8 14
70 32 90 17 19 17 19 25 -2 5 -14 2 -32 -8 -51z m-101 13 c-15 -50 -26 -71
-39 -76 -20 -8 -19 56 2 96 15 29 17 30 30 14 7 -10 10 -25 7 -34z m1641 22
c9 -23 -30 -54 -68 -54 -51 0 -52 15 -6 49 42 30 64 32 74 5z m-5216 4 c-3 -7
-11 -13 -18 -13 -7 0 -15 6 -17 13 -3 7 4 12 17 12 13 0 20 -5 18 -12z m3002
-2 c0 -24 -26 -38 -40 -22 -6 9 -9 20 -5 26 9 15 45 12 45 -4z m1388 -35 c4
-53 -3 -72 -21 -65 -27 10 -49 89 -30 108 4 4 16 6 28 4 16 -2 21 -12 23 -47z
m-4908 8 c0 -5 -4 -9 -10 -9 -5 0 -10 7 -10 16 0 8 5 12 10 9 6 -3 10 -10 10
-16z m3699 12 c11 -7 9 -11 -9 -21 -24 -13 -48 0 -36 19 9 13 26 14 45 2z
m1491 0 c0 -6 -4 -13 -10 -16 -5 -3 -10 1 -10 9 0 9 5 16 10 16 6 0 10 -4 10
-9z m-5890 -32 c0 -12 -7 -19 -20 -19 -21 0 -24 8 -14 34 8 20 34 9 34 -15z
m116 -10 c3 -6 0 -18 -9 -26 -12 -12 -19 -13 -38 -3 -22 12 -22 13 -4 26 23
17 41 18 51 3z m214 -4 c0 -8 -9 -15 -20 -15 -11 0 -20 7 -20 15 0 8 9 15 20
15 11 0 20 -7 20 -15z m90 11 c0 -11 -19 -15 -25 -6 -3 5 1 10 9 10 9 0 16 -2
16 -4z m6317 -2 c-3 -3 -12 -4 -19 -1 -8 3 -5 6 6 6 11 1 17 -2 13 -5z m-6527
-18 c0 -21 -21 -31 -30 -15 -5 7 -6 17 -4 21 9 14 34 9 34 -6z m300 0 c0 -24
-26 -38 -40 -22 -6 9 -9 20 -5 26 9 15 45 12 45 -4z m392 -18 c-15 -15 -26 -4
-18 18 5 13 9 15 18 6 9 -9 9 -15 0 -24z m3043 7 c33 -32 33 -65 2 -65 -29 0
-82 53 -74 74 9 24 45 19 72 -9z m2694 11 c9 -10 7 -19 -7 -35 l-17 -23 -19
21 c-15 17 -16 23 -6 36 15 19 34 19 49 1z m221 -17 c0 -12 -7 -19 -20 -19
-22 0 -26 20 -8 38 15 15 28 6 28 -19z m-6047 14 c9 -8 -22 -43 -39 -43 -17 0
-27 18 -20 35 5 15 47 21 59 8z m217 -2 c0 -17 -18 -21 -24 -6 -3 9 0 15 9 15
8 0 15 -4 15 -9z m198 -8 c-4 -22 -22 -20 -26 1 -2 10 3 16 13 16 10 0 15 -7
13 -17z m152 -2 c0 -20 -17 -37 -27 -28 -7 8 7 47 18 47 5 0 9 -9 9 -19z
m3188 -11 c3 -30 -32 -73 -56 -68 -43 8 -12 102 31 96 15 -2 23 -11 25 -28z
m780 6 c5 -22 -16 -46 -39 -46 -29 0 -33 20 -8 46 25 27 42 27 47 0z m1602 4
c0 -5 -5 -10 -11 -10 -5 0 -7 5 -4 10 3 6 8 10 11 10 2 0 4 -4 4 -10z m120 0
c0 -5 -4 -10 -10 -10 -5 0 -10 5 -10 10 0 6 5 10 10 10 6 0 10 -4 10 -10z
m-2850 -16 c11 -12 11 -18 -2 -31 -19 -18 -38 -10 -38 16 0 33 20 40 40 15z
m1280 -4 c0 -5 -7 -10 -15 -10 -8 0 -15 5 -15 10 0 6 7 10 15 10 8 0 15 -4 15
-10z m950 -10 c0 -13 -19 -22 -30 -15 -14 9 0 34 16 28 8 -3 14 -9 14 -13z
m-2052 -2 c-3 -7 -11 -13 -18 -13 -7 0 -15 6 -17 13 -3 7 4 12 17 12 13 0 20
-5 18 -12z m2370 -24 c-4 -23 -18 -24 -32 -1 -8 14 -8 20 4 27 18 11 33 -2 28
-26z m-6734 -11 c-15 -24 -31 -27 -38 -6 -9 22 22 49 38 33 7 -7 7 -16 0 -27z
m5079 18 c8 -8 8 -14 0 -22 -14 -14 -64 3 -85 29 -12 13 -8 15 31 9 24 -3 48
-10 54 -16z m711 -32 c-7 -12 -31 -11 -39 1 -4 6 -1 18 6 26 12 14 14 14 26
-2 7 -9 10 -21 7 -25z m-4739 1 c0 -22 -29 -18 -33 3 -3 14 1 18 15 15 10 -2
18 -10 18 -18z m-645 0 c0 -5 -7 -10 -16 -10 -8 0 -12 5 -9 10 3 6 10 10 16
10 5 0 9 -4 9 -10z m290 -9 c0 -27 -38 -71 -61 -71 -28 0 -33 23 -14 59 12 24
22 31 45 31 23 0 30 -5 30 -19z m3918 -7 c2 -14 -7 -25 -33 -37 -47 -22 -57
-21 -53 5 3 21 54 59 73 54 6 -1 11 -11 13 -22z m2224 0 c-5 -26 -10 -30 -23
-17 -14 14 -3 46 14 40 6 -2 10 -13 9 -23z m636 2 c6 -29 -15 -43 -35 -24 -14
14 -14 20 -3 33 16 19 34 15 38 -9z m-3480 -9 c2 -10 -3 -17 -12 -17 -18 0
-29 16 -21 31 9 14 29 6 33 -14z m3582 3 c0 -5 -4 -10 -10 -10 -5 0 -10 5 -10
10 0 6 5 10 10 10 6 0 10 -4 10 -10z m-3410 -25 c15 -18 6 -45 -15 -45 -18 0
-30 24 -21 45 7 19 20 19 36 0z m1040 0 c0 -8 0 -18 1 -22 0 -4 -4 -9 -9 -11
-12 -4 -24 26 -16 39 8 14 24 11 24 -6z m500 -27 c0 -22 -15 -31 -28 -15 -6 8
-6 21 0 37 7 20 11 22 18 10 5 -8 10 -23 10 -32z m-1800 -8 c0 -22 -19 -28
-85 -26 -43 1 -50 4 -50 21 0 15 8 21 35 25 59 9 100 0 100 -20z m2520 15 c0
-8 -20 -28 -44 -44 l-43 -30 5 -71 c3 -45 1 -70 -6 -70 -26 0 -42 14 -53 47
-10 30 -9 39 8 62 10 14 25 41 32 59 20 47 101 86 101 47z m-460 -10 c0 -8 -7
-15 -15 -15 -8 0 -15 7 -15 15 0 8 7 15 15 15 8 0 15 -7 15 -15z m765 -6 c0
-7 -8 -15 -17 -17 -18 -3 -25 18 -11 32 10 10 28 1 28 -15z m-6155 -30 c14
-24 -2 -49 -31 -49 -24 0 -38 48 -18 61 22 14 38 10 49 -12z m4098 -41 c17
-53 11 -78 -17 -78 -22 0 -29 17 -31 75 -3 56 -2 57 17 53 10 -2 23 -21 31
-50z m1852 37 c0 -8 -4 -15 -9 -15 -13 0 -22 16 -14 24 11 11 23 6 23 -9z
m-1324 -22 c-10 -10 -19 5 -10 18 6 11 8 11 12 0 2 -7 1 -15 -2 -18z m1732 16
c-2 -6 -8 -10 -13 -10 -5 0 -11 4 -13 10 -2 6 4 11 13 11 9 0 15 -5 13 -11z
m-6588 -7 c0 -13 -12 -22 -22 -16 -10 6 -1 24 13 24 5 0 9 -4 9 -8z m739 -5
c8 -10 7 -17 -1 -25 -18 -18 -38 -14 -38 6 0 32 20 42 39 19z m5741 -2 c0 -8
-7 -15 -15 -15 -8 0 -15 7 -15 15 0 8 7 15 15 15 8 0 15 -7 15 -15z m-195 -5
c7 -11 -12 -40 -25 -40 -11 0 -21 30 -14 41 7 12 31 11 39 -1z m-5352 -15 c4
-8 2 -17 -3 -20 -6 -4 -10 3 -10 14 0 25 6 27 13 6z m3710 8 c34 -5 38 -9 35
-32 -3 -24 -7 -26 -60 -29 -83 -4 -152 30 -121 61 8 9 96 9 146 0z m151 -14
c-3 -5 -10 -7 -15 -3 -5 3 -7 10 -3 15 3 5 10 7 15 3 5 -3 7 -10 3 -15z m466
-4 c0 -8 -4 -15 -9 -15 -13 0 -22 16 -14 24 11 11 23 6 23 -9z m835 -4 c7 -12
-12 -24 -25 -16 -11 7 -4 25 10 25 5 0 11 -4 15 -9z m-6465 -11 c0 -5 -7 -10
-15 -10 -8 0 -15 5 -15 10 0 6 7 10 15 10 8 0 15 -4 15 -10z m305 -9 c0 -8 -8
-19 -17 -25 -22 -13 -41 3 -32 28 8 20 49 18 49 -3z m5685 4 c0 -8 -4 -15 -9
-15 -13 0 -22 16 -14 24 11 11 23 6 23 -9z m-5080 -9 c0 -8 -5 -18 -11 -22
-14 -8 -33 11 -25 25 10 16 36 13 36 -3z m3310 4 c0 -5 -7 -10 -15 -10 -8 0
-15 5 -15 10 0 6 7 10 15 10 8 0 15 -4 15 -10z m-4030 -9 c0 -6 -4 -13 -10
-16 -5 -3 -10 1 -10 9 0 9 5 16 10 16 6 0 10 -4 10 -9z m6560 -12 c0 -5 -7 -9
-15 -9 -15 0 -20 12 -9 23 8 8 24 -1 24 -14z m-6163 -5 c9 -23 -11 -38 -26
-20 -13 16 -7 36 10 36 5 0 12 -7 16 -16z m3153 6 c0 -5 -4 -10 -10 -10 -5 0
-10 5 -10 10 0 6 5 10 10 10 6 0 10 -4 10 -10z m1470 -5 c10 -12 10 -18 0 -30
-19 -23 -56 -15 -52 10 6 34 32 44 52 20z m-4098 -37 c-22 -23 -42 -17 -42 12
0 23 19 30 44 18 18 -10 18 -11 -2 -30z m4338 32 c0 -5 -4 -10 -10 -10 -5 0
-10 5 -10 10 0 6 5 10 10 10 6 0 10 -4 10 -10z m-1885 -70 c-9 -15 -42 -12
-48 4 -3 7 2 24 10 36 l16 23 14 -27 c8 -15 11 -31 8 -36z m590 50 c4 -6 1
-17 -5 -25 -9 -11 -17 -12 -32 -4 -15 8 -17 13 -7 25 14 16 35 18 44 4z m653
-18 c4 -23 -12 -28 -37 -13 -12 8 -13 12 -1 26 17 20 34 14 38 -13z m532 13
c0 -8 -4 -15 -10 -15 -5 0 -10 7 -10 15 0 8 5 15 10 15 6 0 10 -7 10 -15z
m1300 -6 c0 -5 -7 -9 -15 -9 -9 0 -12 6 -9 15 6 15 24 11 24 -6z m-5940 1 c0
-5 -7 -10 -15 -10 -8 0 -15 5 -15 10 0 6 7 10 15 10 8 0 15 -4 15 -10z m4300
-20 c0 -23 -29 -35 -36 -15 -7 18 14 47 27 39 5 -3 9 -13 9 -24z m655 10 c7
-23 -1 -40 -20 -40 -21 0 -27 17 -15 40 14 25 27 26 35 0z m1470 -25 c0 -34
-3 -40 -23 -43 -26 -4 -52 13 -52 34 0 21 39 56 58 52 13 -2 17 -14 17 -43z
m-677 8 c5 -17 -26 -29 -40 -15 -6 6 -7 15 -3 22 9 14 37 9 43 -7z m-1358 -9
c0 -10 -7 -14 -22 -12 -32 5 -35 28 -4 28 17 0 26 -5 26 -16z m665 6 c9 -15
-14 -40 -36 -40 -19 0 -27 29 -12 43 10 11 41 8 48 -3z m275 -5 c0 -8 -4 -15
-9 -15 -5 0 -11 7 -15 15 -3 9 0 15 9 15 8 0 15 -7 15 -15z m1216 4 c3 -6 0
-15 -7 -20 -22 -14 -29 -11 -29 11 0 21 24 27 36 9z m-6946 -9 c0 -5 -7 -10
-15 -10 -8 0 -15 5 -15 10 0 6 7 10 15 10 8 0 15 -4 15 -10z m-112 -24 c3 -12
-1 -17 -10 -14 -7 3 -15 13 -16 22 -3 12 1 17 10 14 7 -3 15 -13 16 -22z
m4062 3 c0 -5 -4 -9 -10 -9 -5 0 -10 7 -10 16 0 8 5 12 10 9 6 -3 10 -10 10
-16z m420 0 c0 -5 -7 -9 -15 -9 -15 0 -20 12 -9 23 8 8 24 -1 24 -14z m2695
-4 c0 -22 -31 -33 -47 -17 -17 17 -1 44 24 40 15 -2 23 -10 23 -23z m-6546 6
c14 -9 9 -41 -7 -41 -15 0 -34 28 -27 40 8 12 16 13 34 1z m4400 -10 c24 -15
3 -50 -37 -61 -51 -14 -99 -13 -105 3 -9 23 6 35 63 50 69 19 63 18 79 8z
m351 -10 c0 -13 -12 -22 -44 -31 -55 -15 -81 -10 -81 15 0 21 28 32 88 34 30
1 37 -3 37 -18z m1018 10 c10 -6 10 -10 -3 -21 -18 -15 -42 0 -31 19 8 13 16
14 34 2z m-5535 -25 c7 -16 -1 -26 -20 -26 -7 0 -13 9 -13 20 0 23 25 27 33 6z
m-339 -4 c2 -4 -2 -16 -10 -27 -10 -14 -17 -16 -25 -8 -7 7 -9 19 -6 27 7 17
32 22 41 8z m4086 -28 c0 -16 -6 -24 -17 -24 -17 1 -63 32 -63 43 0 8 42 13
63 9 10 -3 17 -14 17 -28z m233 10 c-7 -18 -17 -18 -32 -1 -14 17 -5 26 19 20
11 -3 16 -11 13 -19z m-3898 6 c3 -5 1 -10 -4 -10 -6 0 -11 5 -11 10 0 6 2 10
4 10 3 0 8 -4 11 -10z m5545 -4 c0 -3 -4 -8 -10 -11 -5 -3 -10 -1 -10 4 0 6 5
11 10 11 6 0 10 -2 10 -4z m519 -9 c14 -18 -19 -50 -43 -41 -16 6 -22 35 -9
47 11 12 40 8 52 -6z m-1300 -10 c6 -8 8 -17 4 -20 -11 -12 -41 -7 -46 7 -10
27 22 36 42 13z m-5743 -8 c10 -17 -13 -36 -27 -22 -12 12 -4 33 11 33 5 0 12
-5 16 -11z m5914 1 c0 -5 -4 -10 -10 -10 -5 0 -10 5 -10 10 0 6 5 10 10 10 6
0 10 -4 10 -10z m140 6 c0 -11 -19 -15 -25 -6 -3 5 1 10 9 10 9 0 16 -2 16 -4z
m1076 -7 c10 -17 -12 -32 -36 -24 -17 5 -19 10 -9 21 14 17 35 18 45 3z m208
-31 c-3 -4 -12 -8 -20 -8 -17 0 -19 27 -1 33 14 5 28 -13 21 -25z m-3574 7 c0
-8 -4 -15 -10 -15 -5 0 -10 7 -10 15 0 8 5 15 10 15 6 0 10 -7 10 -15z m2690
-20 c0 -8 -4 -15 -9 -15 -13 0 -22 16 -14 24 11 11 23 6 23 -9z m500 -24 c0
-20 -19 -41 -36 -41 -20 0 -25 32 -9 57 13 20 19 22 31 12 8 -6 14 -19 14 -28z
m-6120 14 c15 -18 5 -35 -20 -35 -22 0 -34 15 -26 35 7 19 30 19 46 0z m100
-10 c0 -8 -4 -15 -9 -15 -13 0 -22 16 -14 24 11 11 23 6 23 -9z m3665 -24
c-14 -14 -17 -14 -25 -1 -13 21 8 44 27 28 12 -10 12 -14 -2 -27z m188 -5 c11
-33 1 -76 -17 -76 -13 0 -26 74 -18 100 6 18 25 5 35 -24z m867 19 c13 -16 6
-35 -15 -35 -18 0 -26 15 -19 34 8 20 18 20 34 1z m-220 -26 c0 -12 -7 -19
-20 -19 -22 0 -29 35 -7 43 18 6 27 -2 27 -24z m329 17 c9 -11 10 -20 1 -35
-14 -27 -24 -26 -39 3 -21 39 11 65 38 32z m1298 -19 c-2 -7 -13 -13 -25 -15
-16 -3 -22 2 -22 16 0 10 3 22 6 25 10 10 46 -13 41 -26z m-249 -20 c-2 -12
-9 -22 -17 -22 -19 0 -36 29 -28 49 10 26 49 2 45 -27z m-128 16 c0 -5 -5 -15
-10 -23 -7 -11 -12 -12 -21 -3 -6 6 -8 16 -5 22 8 12 36 15 36 4z m-1440 -37
c0 -35 -32 -86 -54 -86 -8 0 -16 17 -20 38 -10 60 -7 70 17 75 53 10 57 8 57
-27z m1333 19 c1 -5 -6 -11 -15 -13 -11 -2 -18 3 -18 13 0 17 30 18 33 0z
m-5812 -11 c10 -13 10 -17 -2 -25 -18 -12 -26 -11 -34 1 -8 13 1 40 13 40 5 0
15 -7 23 -16z m3749 -5 c0 -5 -7 -9 -15 -9 -15 0 -20 12 -9 23 8 8 24 -1 24
-14z m2387 5 c3 -8 -1 -23 -10 -32 -15 -14 -18 -14 -36 2 -11 10 -17 24 -14
32 7 19 52 18 60 -2z m-3197 -4 c0 -5 -2 -10 -4 -10 -3 0 -8 5 -11 10 -3 6 -1
10 4 10 6 0 11 -4 11 -10z m2495 -32 c-12 -84 -34 -115 -70 -102 -21 9 -19 28
8 61 12 15 28 40 35 56 18 43 35 34 27 -15z m-1775 17 c10 -12 10 -18 0 -30
-16 -19 -39 -19 -46 0 -6 15 11 45 26 45 4 0 13 -7 20 -15z m600 -5 c12 -8 11
-13 -9 -34 -25 -26 -51 -25 -51 3 0 34 31 50 60 31z m-1950 -30 c-18 -11 -24
-6 -16 16 5 14 9 15 19 5 9 -9 9 -14 -3 -21z m2311 -25 c6 -53 3 -75 -12 -75
-14 0 -29 47 -29 91 0 33 3 40 18 37 12 -2 19 -17 23 -53z m-496 25 c0 -7 -6
-15 -12 -17 -8 -3 -13 4 -13 17 0 13 5 20 13 18 6 -3 12 -11 12 -18z m1615 10
c22 -12 41 -70 33 -102 -13 -52 -53 -67 -53 -20 0 15 -11 48 -25 74 -18 33
-21 48 -12 51 20 9 37 8 57 -3z m490 -6 c11 -12 11 -18 -1 -30 -13 -12 -18
-12 -34 0 -16 12 -17 16 -6 30 17 20 25 20 41 0z m-7160 -9 c0 -8 -4 -15 -10
-15 -5 0 -10 7 -10 15 0 8 5 15 10 15 6 0 10 -7 10 -15z m340 -1 c11 -12 10
-18 -3 -32 -16 -15 -18 -15 -34 0 -13 14 -14 20 -3 32 7 9 16 16 20 16 4 0 13
-7 20 -16z m5520 -5 c0 -5 -4 -9 -10 -9 -5 0 -10 7 -10 16 0 8 5 12 10 9 6 -3
10 -10 10 -16z m180 5 c0 -17 -22 -14 -28 4 -2 7 3 12 12 12 9 0 16 -7 16 -16z
m759 2 c8 -10 8 -16 -2 -24 -17 -14 -42 2 -34 22 8 20 21 20 36 2z m-4352 -11
c7 -20 -2 -29 -21 -22 -9 4 -13 13 -10 22 8 19 23 19 31 0z m349 -44 c-10 -16
-46 -13 -52 4 -4 8 0 22 7 31 11 13 14 13 32 -4 11 -11 16 -25 13 -31z m214
28 c0 -5 -4 -9 -10 -9 -5 0 -10 7 -10 16 0 8 5 12 10 9 6 -3 10 -10 10 -16z
m3900 7 c0 -19 -27 -28 -33 -11 -7 15 1 25 20 25 7 0 13 -6 13 -14z m-6464
-17 c8 -14 -18 -31 -30 -19 -9 9 0 30 14 30 5 0 12 -5 16 -11z m6914 1 c0 -5
-4 -10 -10 -10 -5 0 -10 5 -10 10 0 6 5 10 10 10 6 0 10 -4 10 -10z m-4444
-11 c10 -17 -13 -36 -27 -22 -12 12 -4 33 11 33 5 0 12 -5 16 -11z m-2995 -10
c23 -12 16 -29 -12 -29 -12 0 -19 7 -19 20 0 23 4 24 31 9z m3232 -4 c1 -5 -6
-11 -15 -13 -11 -2 -18 3 -18 13 0 17 30 18 33 0z m1067 0 c0 -19 -24 -29 -46
-21 -13 5 -14 9 -4 21 16 20 50 19 50 0z m744 0 c3 -9 -3 -19 -14 -25 -17 -9
-20 -7 -20 15 0 27 24 35 34 10z m-3995 -9 c9 -10 9 -16 1 -21 -16 -10 -40 2
-40 20 0 19 24 20 39 1z m5100 -5 c12 -8 12 -12 2 -25 -24 -29 -60 -13 -47 19
6 17 24 19 45 6z m1012 -7 c10 -13 10 -17 -2 -25 -18 -12 -26 -11 -34 1 -8 13
1 40 13 40 5 0 15 -7 23 -16z m-1997 -7 c16 -12 16 -14 -3 -31 -22 -20 -41
-14 -41 13 0 32 16 39 44 18z m-3049 -17 c3 -11 3 -29 0 -40 -4 -14 -2 -20 8
-20 23 0 27 -26 7 -45 -17 -15 -18 -15 -25 13 -3 16 -19 39 -35 51 -36 26 -38
39 -7 51 34 14 45 12 52 -10z m1640 10 c3 -5 -1 -10 -9 -10 -9 0 -16 5 -16 10
0 6 4 10 9 10 6 0 13 -4 16 -10z m1079 -5 c4 -10 -1 -15 -14 -15 -20 0 -26 11
-13 23 10 11 20 8 27 -8z m1811 -15 c-5 -8 -11 -8 -17 -2 -6 6 -7 16 -3 22 5
8 11 8 17 2 6 -6 7 -16 3 -22z m-1195 5 c26 -32 -13 -81 -47 -59 -35 22 -23
74 17 74 10 0 23 -7 30 -15z m1416 4 c10 -17 -13 -36 -27 -22 -12 12 -4 33 11
33 5 0 12 -5 16 -11z m-6518 -21 c-6 -18 -28 -21 -28 -4 0 9 7 16 16 16 9 0
14 -5 12 -12z m1962 -8 c0 -5 -2 -10 -4 -10 -3 0 -8 5 -11 10 -3 6 -1 10 4 10
6 0 11 -4 11 -10z m3915 -15 c0 -28 -29 -25 -33 3 -3 19 0 23 15 20 10 -2 18
-12 18 -23z m830 0 c0 -10 -6 -20 -12 -22 -8 -3 -13 5 -13 22 0 17 5 25 13 23
6 -3 12 -13 12 -23z m358 17 c16 -7 14 -10 -14 -31 -33 -25 -49 -18 -49 22 0
18 29 22 63 9z m-6853 -27 c0 -8 -4 -15 -10 -15 -5 0 -10 7 -10 15 0 8 5 15
10 15 6 0 10 -7 10 -15z m4447 -11 c5 -14 -11 -34 -27 -34 -3 0 -11 4 -19 9
-19 12 -6 41 19 41 11 0 23 -7 27 -16z m-2252 -4 c-3 -5 -10 -10 -16 -10 -5 0
-9 5 -9 10 0 6 7 10 16 10 8 0 12 -4 9 -10z m3829 -7 c5 -11 1 -22 -11 -31
-15 -11 -19 -10 -25 5 -12 31 -9 43 11 43 10 0 22 -8 25 -17z m-2054 -3 c0 -5
-2 -10 -4 -10 -3 0 -8 5 -11 10 -3 6 -1 10 4 10 6 0 11 -4 11 -10z m750 -4 c0
-16 -18 -31 -27 -22 -8 8 5 36 17 36 5 0 10 -6 10 -14z m385 -16 c0 -16 -6
-26 -18 -28 -19 -4 -32 20 -23 44 9 25 41 13 41 -16z m-5285 -21 c0 -25 -19
-34 -37 -16 -12 12 -13 19 -3 36 9 18 14 20 26 10 8 -6 14 -20 14 -30z m730
21 c9 -16 8 -22 -5 -26 -21 -8 -39 10 -32 30 9 22 24 20 37 -4z m5225 11 c3
-5 1 -12 -5 -16 -5 -3 -10 1 -10 9 0 18 6 21 15 7z m365 -1 c11 -7 12 -12 3
-21 -14 -14 -53 -2 -53 17 0 16 28 18 50 4z m110 -26 c0 -15 -27 -44 -41 -44
-14 0 -11 68 4 73 15 5 37 -11 37 -29z m-1635 5 c0 -7 -8 -15 -17 -17 -18 -3
-25 18 -11 32 10 10 28 1 28 -15z m585 16 c0 -3 -12 -29 -27 -58 l-28 -52 -3
33 c-4 37 20 82 43 82 8 0 15 -2 15 -5z m226 -16 c10 -17 -23 -46 -37 -32 -7
7 -9 19 -6 27 7 18 33 21 43 5z m-5911 -24 c0 -23 -34 -33 -45 -14 -13 20 1
40 24 37 13 -2 21 -10 21 -23z m5378 0 c-1 -5 -8 -14 -17 -20 -18 -11 -42 7
-31 25 8 13 51 9 48 -5z m-5283 -5 c0 -5 -7 -10 -15 -10 -8 0 -15 5 -15 10 0
6 7 10 15 10 8 0 15 -4 15 -10z m6330 -11 c0 -5 -7 -9 -15 -9 -15 0 -20 12 -9
23 8 8 24 -1 24 -14z m580 6 c13 -16 4 -58 -13 -52 -18 6 -31 33 -24 51 8 20
21 21 37 1z m-4400 -10 c0 -8 -4 -15 -9 -15 -13 0 -22 16 -14 24 11 11 23 6
23 -9z m-1981 -4 c19 -12 6 -41 -19 -41 -13 0 -20 7 -20 18 0 31 14 39 39 23z
m111 1 c0 -13 -12 -22 -22 -16 -10 6 -1 24 13 24 5 0 9 -4 9 -8z m90 -1 c0 -6
-4 -13 -10 -16 -5 -3 -10 1 -10 9 0 9 5 16 10 16 6 0 10 -4 10 -9z m3338 0
c10 -6 10 -10 -3 -21 -18 -15 -42 0 -31 19 8 13 16 14 34 2z m522 -1 c0 -5 -7
-10 -15 -10 -8 0 -15 5 -15 10 0 6 7 10 15 10 8 0 15 -4 15 -10z m1639 -4 c15
-18 3 -46 -19 -46 -25 0 -33 16 -20 40 13 23 23 25 39 6z m855 5 c3 -5 -1 -11
-9 -15 -9 -3 -15 0 -15 9 0 16 16 20 24 6z m-2058 -50 c-11 -18 -36 -13 -36 7
0 10 3 22 7 26 10 10 37 -20 29 -33z m870 12 c-10 -10 -19 5 -10 18 6 11 8 11
12 0 2 -7 1 -15 -2 -18z m238 18 c9 -14 -4 -41 -19 -41 -12 0 -25 21 -25 41 0
12 37 12 44 0z m316 0 c0 -15 -30 -41 -46 -41 -8 0 -16 0 -19 0 -3 0 -4 3 -2
8 1 4 5 6 9 5 4 -2 12 6 18 17 11 20 40 28 40 11z m-4688 -16 c0 -5 -5 -11
-11 -13 -6 -2 -11 4 -11 13 0 9 5 15 11 13 6 -2 11 -8 11 -13z m3058 -5 c0 -5
-4 -10 -10 -10 -5 0 -10 5 -10 10 0 6 5 10 10 10 6 0 10 -4 10 -10z m-1083
-22 c-3 -8 -6 -5 -6 6 -1 11 2 17 5 13 3 -3 4 -12 1 -19z m3059 11 c10 -17
-13 -36 -27 -22 -12 12 -4 33 11 33 5 0 12 -5 16 -11z m-6981 -8 c7 -12 -12
-24 -25 -16 -11 7 -4 25 10 25 5 0 11 -4 15 -9z m395 -6 c0 -8 -4 -15 -9 -15
-13 0 -22 16 -14 24 11 11 23 6 23 -9z m104 0 c7 -19 -32 -41 -46 -27 -15 15
-2 42 21 42 10 0 21 -7 25 -15z m2109 1 c6 -15 -1 -26 -15 -26 -4 0 -8 9 -8
20 0 23 15 27 23 6z m4206 -10 c18 -21 -14 -50 -40 -36 -19 11 -25 31 -12 43
11 12 40 8 52 -7z m-4309 -5 c0 -14 -18 -23 -30 -16 -6 4 -8 11 -5 16 8 12 35
12 35 0z m433 -5 c6 -15 -1 -26 -15 -26 -4 0 -8 9 -8 20 0 23 15 27 23 6z
m587 -21 c0 -24 -18 -26 -52 -8 l-33 17 30 6 c36 8 55 2 55 -15z m988 8 c-5
-25 -28 -28 -28 -4 0 12 6 21 16 21 9 0 14 -7 12 -17z m1092 3 c0 -8 -4 -17
-9 -21 -12 -7 -24 12 -16 25 9 15 25 12 25 -4z m-4257 -11 c8 -19 -13 -31 -24
-14 -13 20 -11 29 5 29 8 0 16 -7 19 -15z m969 0 c0 -5 -5 -11 -11 -13 -6 -2
-11 4 -11 13 0 9 5 15 11 13 6 -2 11 -8 11 -13z m1886 -6 c-2 -6 -8 -10 -13
-10 -5 0 -11 4 -13 10 -2 6 4 11 13 11 9 0 15 -5 13 -11z m2156 4 c4 -5 17 -9
29 -10 12 -1 60 -10 107 -21 59 -14 91 -17 103 -10 10 5 26 6 35 2 9 -4 24 -6
34 -5 9 1 19 -3 23 -9 4 -6 22 -8 46 -4 26 4 39 3 39 -5 0 -12 -31 -21 -75
-22 -16 0 -167 -1 -335 -2 -168 -1 -310 -5 -317 -10 -6 -4 -73 -10 -149 -12
-75 -3 -160 -12 -188 -20 -28 -8 -64 -14 -81 -14 -16 1 -51 -4 -77 -11 -26 -6
-60 -10 -75 -7 -21 3 -18 4 13 6 23 0 47 8 54 16 7 8 21 15 30 15 12 0 23 12
30 36 14 43 61 74 111 74 32 0 59 -14 59 -31 0 -4 -18 -10 -40 -14 -47 -8 -73
-39 -40 -48 12 -3 23 1 28 10 7 11 37 15 133 19 143 5 192 16 213 46 12 16 21
19 43 14 39 -10 75 -8 87 4 13 13 53 13 61 0 4 -7 13 -7 26 0 11 6 24 8 29 5
5 -3 11 -1 15 5 7 12 19 13 29 3z m-2394 -13 c0 -5 -2 -10 -4 -10 -3 0 -8 5
-11 10 -3 6 -1 10 4 10 6 0 11 -4 11 -10z m130 -11 c0 -5 -7 -9 -15 -9 -15 0
-20 12 -9 23 8 8 24 -1 24 -14z m-1601 -12 c54 -28 61 -44 26 -57 -41 -16 -72
-12 -101 13 -20 18 -25 29 -20 45 9 28 38 28 95 -1z m231 2 c0 -5 -7 -9 -15
-9 -15 0 -20 12 -9 23 8 8 24 -1 24 -14z m4198 4 c2 -9 -8 -13 -32 -13 -28 0
-34 3 -29 16 7 18 54 16 61 -3z m-3288 -8 c0 -8 -4 -15 -10 -15 -5 0 -10 7
-10 15 0 8 5 15 10 15 6 0 10 -7 10 -15z m-2185 -15 c0 -7 -6 -15 -12 -17 -8
-3 -13 4 -13 17 0 13 5 20 13 18 6 -3 12 -11 12 -18z m-905 -16 c0 -9 -5 -14
-12 -12 -18 6 -21 28 -4 28 9 0 16 -7 16 -16z m2557 -11 c-3 -3 -11 -2 -17 2
-9 6 -9 10 1 16 14 8 27 -7 16 -18z m-1539 0 c-2 -10 -10 -18 -18 -18 -8 0
-16 8 -18 18 -2 12 3 17 18 17 15 0 20 -5 18 -17z m2687 -11 c0 -18 -20 -15
-23 4 -3 10 1 15 10 12 7 -3 13 -10 13 -16z m110 8 c3 -5 -1 -10 -9 -10 -9 0
-16 5 -16 10 0 6 4 10 9 10 6 0 13 -4 16 -10z m-3996 -81 c-20 -12 -49 -11
-49 2 0 7 10 28 22 48 l22 35 9 -38 c7 -29 6 -40 -4 -47z m1003 35 c2 -19 2
-34 -1 -34 -12 0 -41 35 -41 50 0 44 37 31 42 -16z m3808 9 c0 -33 -24 -25
-28 10 -3 21 0 26 12 21 9 -3 16 -17 16 -31z m-2840 23 c0 -11 -19 -15 -25 -6
-3 5 1 10 9 10 9 0 16 -2 16 -4z m2241 -9 c-1 -12 -15 -9 -19 4 -3 6 1 10 8 8
6 -3 11 -8 11 -12z m-4631 -17 c0 -5 -4 -10 -10 -10 -5 0 -10 5 -10 10 0 6 5
10 10 10 6 0 10 -4 10 -10z m5330 -4 c0 -8 -4 -17 -9 -20 -10 -7 -23 19 -14
28 11 11 23 6 23 -8z m142 -48 c-7 -7 -12 -8 -12 -2 0 14 12 26 19 19 2 -3 -1
-11 -7 -17z m-1114 -5 c-2 -10 -10 -18 -18 -18 -8 0 -16 8 -18 18 -2 12 3 17
18 17 15 0 20 -5 18 -17z m180 -5 c20 -20 13 -28 -25 -28 -44 0 -69 13 -59 29
9 15 69 14 84 -1z m871 -14 c-13 -7 -32 -13 -43 -14 -10 0 -37 -10 -60 -21
-22 -12 -49 -25 -58 -30 -18 -9 -48 -12 -48 -5 0 2 -3 11 -6 19 -4 11 1 15 18
15 13 0 61 13 108 30 84 29 138 33 89 6z m-4586 -4 c12 -11 -47 -32 -79 -28
-35 4 -41 22 -12 36 23 11 76 7 91 -8z m3315 -3 c2 -12 -3 -17 -17 -17 -15 0
-21 6 -21 21 0 25 33 22 38 -4z m637 3 c0 -22 -29 -18 -33 3 -3 14 1 18 15 15
10 -2 18 -10 18 -18z m-3155 0 c0 -5 -4 -10 -10 -10 -5 0 -10 5 -10 10 0 6 5
10 10 10 6 0 10 -4 10 -10z m1860 0 c0 -5 -5 -10 -11 -10 -5 0 -7 5 -4 10 3 6
8 10 11 10 2 0 4 -4 4 -10z m1778 -1 c-2 -6 -8 -10 -13 -10 -5 0 -11 4 -13 10
-2 6 4 11 13 11 9 0 15 -5 13 -11z m-2998 -39 c-16 -31 -70 -54 -70 -30 0 17
39 50 60 50 18 0 19 -3 10 -20z m798 -18 c2 -7 -3 -12 -12 -12 -9 0 -16 7 -16
16 0 17 22 14 28 -4z m-1934 -17 c-3 -7 -12 -11 -20 -8 -11 4 -12 9 -3 19 14
17 30 9 23 -11z m643 -2 c8 -21 -39 -63 -71 -63 -35 0 -60 23 -52 48 8 23 23
29 79 31 27 1 39 -4 44 -16z m211 -33 c-2 -8 -11 -16 -21 -18 -13 -3 -17 3
-17 26 0 16 3 32 7 36 10 10 34 -25 31 -44z m1302 40 c0 -5 -4 -10 -10 -10 -5
0 -10 5 -10 10 0 6 5 10 10 10 6 0 10 -4 10 -10z m-640 -20 c0 -11 -7 -20 -15
-20 -8 0 -15 9 -15 20 0 11 7 20 15 20 8 0 15 -9 15 -20z m-2372 -48 c-4 -44
-24 -53 -39 -16 -14 39 4 82 27 63 9 -8 14 -25 12 -47z m262 48 c0 -5 -4 -10
-10 -10 -5 0 -10 5 -10 10 0 6 5 10 10 10 6 0 10 -4 10 -10z m85 0 c3 -5 1
-10 -4 -10 -6 0 -11 5 -11 10 0 6 2 10 4 10 3 0 8 -4 11 -10z m4220 0 c3 -5
-1 -10 -9 -10 -9 0 -16 5 -16 10 0 6 4 10 9 10 6 0 13 -4 16 -10z m220 -29
c-3 -12 -10 -21 -15 -21 -14 0 -21 32 -9 47 16 19 33 1 24 -26z m-4205 20 c0
-6 -4 -13 -10 -16 -5 -3 -10 1 -10 9 0 9 5 16 10 16 6 0 10 -4 10 -9z m518 -9
c3 -9 -2 -13 -14 -10 -9 1 -19 9 -22 16 -3 9 2 13 14 10 9 -1 19 -9 22 -16z
m2712 8 c0 -5 -4 -10 -10 -10 -5 0 -10 5 -10 10 0 6 5 10 10 10 6 0 10 -4 10
-10z m-1965 -14 c18 -13 17 -14 -8 -30 -38 -25 -66 1 -35 32 15 15 20 15 43
-2z m-1075 -11 c0 -8 -4 -15 -10 -15 -5 0 -10 7 -10 15 0 8 5 15 10 15 6 0 10
-7 10 -15z m2548 -12 c-4 -22 -22 -20 -26 1 -2 10 3 16 13 16 10 0 15 -7 13
-17z m120 -21 c2 -7 -3 -12 -12 -12 -9 0 -16 7 -16 16 0 17 22 14 28 -4z
m-2788 -2 c0 -5 -5 -10 -11 -10 -5 0 -7 5 -4 10 3 6 8 10 11 10 2 0 4 -4 4
-10z m589 -6 c7 -6 -21 -34 -35 -34 -17 0 -27 17 -20 36 4 11 13 13 28 8 13
-3 25 -8 27 -10z m2721 0 c0 -8 -5 -12 -10 -9 -6 4 -8 11 -5 16 9 14 15 11 15
-7z m-3867 0 c8 -9 -14 -54 -24 -48 -14 8 -10 54 4 54 8 0 16 -3 20 -6z m2115
-6 c14 -14 15 -37 3 -57 -12 -18 -51 3 -51 27 0 17 18 42 30 42 3 0 11 -5 18
-12z m-2402 -13 c3 -8 3 -19 0 -24 -10 -16 -36 -1 -36 20 0 22 28 26 36 4z
m1268 -6 c14 -11 24 -25 21 -30 -10 -15 -91 -11 -105 6 -34 42 36 62 84 24z
m1796 -15 c0 -16 -16 -19 -25 -4 -8 13 4 32 16 25 5 -4 9 -13 9 -21z m990 22
c0 -3 -4 -8 -10 -11 -5 -3 -10 -1 -10 4 0 6 5 11 10 11 6 0 10 -2 10 -4z m774
-5 c3 -5 0 -11 -8 -14 -15 -6 -26 1 -26 15 0 11 27 10 34 -1z m-2740 -7 c20
-8 9 -34 -15 -34 -18 0 -26 20 -12 33 8 8 8 8 27 1z m2636 -4 c13 -8 13 -11
-2 -27 -17 -16 -19 -16 -34 -1 -28 27 1 50 36 28z m-3096 -9 c3 -5 0 -11 -8
-14 -15 -6 -26 1 -26 15 0 11 27 10 34 -1z m-104 -11 c0 -5 -4 -10 -10 -10 -5
0 -10 5 -10 10 0 6 5 10 10 10 6 0 10 -4 10 -10z m3040 1 c0 -6 -4 -13 -10
-16 -5 -3 -10 1 -10 9 0 9 5 16 10 16 6 0 10 -4 10 -9z m-860 -32 c0 -5 -9 -9
-20 -9 -22 0 -27 16 -7 23 15 5 27 -1 27 -14z m-3802 -17 c3 -17 -1 -22 -20
-22 -13 0 -33 6 -44 14 -18 14 -18 15 6 25 36 14 55 9 58 -17z m4465 11 c-13
-36 -63 -47 -63 -15 0 25 9 32 41 32 23 0 27 -3 22 -17z m-273 -8 c0 -8 -4
-15 -9 -15 -13 0 -22 16 -14 24 11 11 23 6 23 -9z m-745 -4 c3 -5 1 -12 -5
-16 -5 -3 -10 1 -10 9 0 18 6 21 15 7z m-1870 -11 c3 -6 -1 -13 -10 -16 -19
-8 -30 0 -20 15 8 14 22 14 30 1z m2396 0 c25 -14 24 -24 -5 -38 -19 -8 -27
-8 -36 3 -14 16 -7 45 10 45 6 0 20 -5 31 -10z m1177 -2 c22 -22 14 -48 -13
-48 -20 0 -25 5 -25 23 0 36 16 47 38 25z m-4425 -5 c13 -12 -16 -33 -46 -33
-29 0 -30 0 -12 20 18 20 46 26 58 13z m1373 -4 c7 -12 -15 -31 -28 -23 -4 3
-8 12 -8 20 0 17 26 19 36 3z m1158 -5 c4 -11 0 -15 -16 -12 -12 2 -23 9 -26
16 -6 18 35 15 42 -4z m-1587 -19 c-4 -8 -11 -15 -17 -15 -14 0 -13 27 3 33
16 6 21 1 14 -18z m991 8 c-4 -22 -22 -20 -26 1 -2 10 3 16 13 16 10 0 15 -7
13 -17z m92 7 c0 -5 -4 -10 -10 -10 -5 0 -10 5 -10 10 0 6 5 10 10 10 6 0 10
-4 10 -10z m2113 -36 c-3 -8 -14 -14 -24 -14 -19 0 -24 16 -13 45 6 15 8 15
25 -1 10 -9 15 -22 12 -30z m164 14 c-3 -8 -6 -5 -6 6 -1 11 2 17 5 13 3 -3 4
-12 1 -19z m-1303 -9 c-3 -5 -10 -7 -15 -3 -5 3 -7 10 -3 15 3 5 10 7 15 3 5
-3 7 -10 3 -15z m951 11 c-3 -5 -10 -10 -16 -10 -5 0 -9 5 -9 10 0 6 7 10 16
10 8 0 12 -4 9 -10z m-2325 -10 c0 -5 -4 -10 -10 -10 -5 0 -10 5 -10 10 0 6 5
10 10 10 6 0 10 -4 10 -10z m-2520 -19 c0 -11 -4 -22 -9 -25 -12 -8 -34 21
-26 34 11 17 35 11 35 -9z m1141 -11 c-20 -17 -71 -28 -71 -16 0 25 16 36 54
36 l41 -1 -24 -19z m3263 -1 c-8 -14 -24 -10 -24 6 0 9 6 12 15 9 8 -4 12 -10
9 -15z m-361 -96 c3 -3 1 -17 -5 -32 -13 -32 -11 -90 4 -108 12 -15 20 -74 18
-150 -1 -28 5 -61 11 -72 10 -15 10 -27 -1 -60 -12 -38 -11 -45 13 -101 20
-47 22 -60 11 -60 -16 0 -19 -16 -3 -25 6 -4 8 -22 4 -46 -5 -30 -2 -47 15
-74 15 -25 20 -44 16 -61 -4 -15 -2 -32 5 -40 6 -8 9 -27 6 -44 -4 -16 -1 -54
5 -84 9 -47 13 -54 27 -46 12 6 27 2 50 -12 28 -18 31 -22 16 -31 -9 -5 -30
-7 -47 -5 -29 5 -29 4 -24 -28 4 -17 1 -43 -5 -58 -9 -19 -9 -32 1 -56 9 -21
10 -34 3 -41 -10 -10 1 -57 20 -87 5 -7 5 -26 2 -43 -5 -21 -2 -36 9 -48 15
-16 21 -62 29 -214 1 -21 7 -41 12 -45 14 -10 18 -111 5 -127 -8 -10 -7 -16 6
-23 16 -9 16 -14 5 -51 -11 -38 -10 -45 8 -75 22 -36 28 -96 10 -96 -15 0 -2
-70 18 -92 8 -9 13 -20 10 -25 -3 -4 11 -8 31 -8 30 0 37 -4 37 -20 0 -20 -23
-25 -55 -11 -11 5 -16 -1 -17 -24 -2 -25 4 -33 30 -46 30 -16 30 -18 12 -26
-16 -7 -20 -20 -22 -60 -1 -28 1 -56 4 -62 4 -6 8 -64 10 -130 3 -96 6 -122
19 -129 12 -7 13 -12 3 -23 -9 -11 -9 -18 -1 -26 6 -6 8 -26 5 -44 -3 -19 -1
-39 4 -46 6 -7 11 -37 11 -66 1 -31 8 -64 17 -78 9 -14 14 -42 13 -69 -1 -37
3 -49 20 -61 18 -13 20 -19 11 -36 -9 -16 -7 -24 10 -42 16 -17 19 -30 15 -57
-4 -25 -1 -39 10 -48 9 -7 16 -22 16 -32 0 -10 9 -21 20 -24 15 -5 19 -12 14
-29 -3 -15 0 -25 9 -29 8 -3 17 -21 21 -41 4 -22 14 -37 26 -41 14 -4 20 -15
20 -36 0 -29 35 -75 123 -160 20 -20 37 -46 37 -57 0 -12 6 -22 14 -22 9 0 12
8 8 25 -5 28 0 30 29 15 23 -13 49 -61 49 -91 0 -18 4 -20 25 -15 18 5 27 2
31 -9 4 -8 12 -15 20 -15 7 0 20 -10 28 -21 9 -14 21 -19 31 -15 10 3 29 -2
44 -13 20 -15 31 -17 45 -9 12 7 21 7 29 -1 21 -21 -6 -26 -138 -26 -112 0
-136 3 -152 18 -11 9 -28 17 -39 18 -10 0 -39 16 -64 35 -25 18 -54 38 -65 43
-36 17 -146 155 -190 239 -15 29 -31 55 -36 58 -5 3 -9 14 -9 26 0 11 -8 32
-19 46 -10 15 -21 41 -24 57 -4 26 -24 91 -58 190 -6 17 -12 45 -14 63 -2 18
-7 38 -12 45 -16 20 -32 89 -38 162 -6 62 -21 125 -45 191 -4 11 -6 31 -3 45
2 13 -5 58 -17 99 -12 41 -23 93 -25 115 -1 22 -7 63 -13 90 -35 167 -45 224
-47 261 -1 22 -5 46 -9 53 -5 7 -9 25 -11 39 -12 125 -17 169 -22 182 -3 8 -6
33 -8 55 -2 22 -6 54 -9 70 -11 58 -37 260 -37 290 -1 17 -6 48 -12 70 -6 22
-12 63 -14 90 -1 28 -7 91 -12 140 -24 229 -40 432 -46 590 -6 163 -16 351
-20 362 -2 7 1 26 6 43 17 48 5 75 -38 88 -37 11 -182 7 -213 -5 -8 -4 -49 -7
-91 -8 -53 0 -84 -6 -102 -18 -14 -9 -42 -17 -61 -17 -19 0 -45 -4 -58 -9 -28
-11 -180 -46 -190 -43 -8 2 -144 -32 -172 -44 -13 -5 -17 -4 -12 4 8 14 60 38
100 47 16 3 30 14 33 26 5 19 26 23 23 5 -3 -17 30 -27 63 -20 18 3 54 17 81
31 26 13 54 22 61 19 8 -3 19 2 25 10 7 8 29 14 49 14 20 0 43 4 50 9 9 6 22
6 33 0 13 -7 20 -5 28 10 15 28 71 44 114 33 27 -8 38 -7 46 3 6 8 18 11 25 8
8 -3 26 4 41 16 21 16 35 19 64 15 32 -5 40 -3 49 15 13 23 41 27 71 11 20
-11 82 10 97 32 5 8 10 -8 14 -40 4 -29 9 -56 12 -59z m263 68 c-10 -16 -36
-13 -36 3 0 17 21 27 34 16 4 -5 5 -13 2 -19z m462 17 c-6 -18 -28 -21 -28 -4
0 9 7 16 16 16 9 0 14 -5 12 -12z m-4658 -18 c0 -21 -15 -27 -25 -10 -7 12 2
30 16 30 5 0 9 -9 9 -20z m210 0 c0 -13 -5 -18 -15 -14 -8 4 -15 12 -15 20 0
8 7 14 15 14 8 0 15 -9 15 -20z m3230 10 c0 -5 -4 -10 -10 -10 -5 0 -10 5 -10
10 0 6 5 10 10 10 6 0 10 -4 10 -10z m1580 -20 c0 -13 -38 -32 -50 -25 -14 9
-12 43 3 48 15 5 47 -10 47 -23z m-5222 -4 c2 -10 -1 -23 -8 -30 -14 -14 -41
19 -33 40 8 20 37 13 41 -10z m1042 6 c0 -13 -12 -22 -22 -16 -10 6 -1 24 13
24 5 0 9 -4 9 -8z m448 -19 c4 -28 -22 -31 -50 -6 -27 24 -22 35 15 31 24 -2
33 -8 35 -25z m1022 17 c0 -5 -4 -10 -10 -10 -5 0 -10 5 -10 10 0 6 5 10 10
10 6 0 10 -4 10 -10z m460 -26 c0 -20 -19 -27 -35 -14 -11 9 -12 17 -4 32 8
15 13 17 25 7 8 -6 14 -17 14 -25z m-2065 -4 c0 -21 -5 -26 -32 -28 -37 -4
-44 15 -17 43 23 23 49 15 49 -15z m1945 21 c0 -39 -39 -68 -70 -51 -40 21
-16 60 37 60 18 0 33 -4 33 -9z m2554 0 c9 -14 -4 -41 -20 -41 -15 0 -17 10
-8 34 7 18 20 21 28 7z m-3674 -11 c0 -5 -4 -10 -10 -10 -5 0 -10 5 -10 10 0
6 5 10 10 10 6 0 10 -4 10 -10z m229 -19 c-3 -6 -10 -7 -18 -2 -7 5 -10 14 -6
21 9 14 29 -2 24 -19z m-1390 -17 c-16 -20 -39 -17 -39 4 0 27 10 33 32 21 15
-8 17 -13 7 -25z m1861 11 c10 -12 10 -18 0 -31 -12 -13 -15 -13 -28 0 -15 15
-10 46 6 46 5 0 15 -7 22 -15z m2510 0 c0 -8 -6 -15 -14 -15 -17 0 -28 14 -19
24 12 12 33 6 33 -9z m-4490 -5 c0 -5 -4 -10 -10 -10 -5 0 -10 5 -10 10 0 6 5
10 10 10 6 0 10 -4 10 -10z m-386 -15 c6 -18 -16 -30 -39 -21 -8 3 -15 12 -15
21 0 20 46 20 54 0z m2530 7 c2 -4 1 -14 -4 -21 -11 -19 -41 -6 -34 14 6 16
29 20 38 7z m2446 -26 c0 -32 -16 -42 -29 -18 -7 13 -7 22 1 30 19 19 28 14
28 -12z m-210 -1 c0 -8 -7 -15 -15 -15 -26 0 -18 20 13 29 1 1 2 -6 2 -14z
m-3780 -5 c0 -5 -4 -10 -10 -10 -5 0 -10 5 -10 10 0 6 5 10 10 10 6 0 10 -4
10 -10z m738 -21 c2 -18 -3 -29 -14 -33 -24 -9 -38 8 -30 39 9 34 40 30 44 -6z
m1702 21 c0 -5 -4 -10 -10 -10 -5 0 -10 5 -10 10 0 6 5 10 10 10 6 0 10 -4 10
-10z m840 0 c0 -5 -5 -10 -11 -10 -5 0 -7 5 -4 10 3 6 8 10 11 10 2 0 4 -4 4
-10z m-1290 -21 c0 -5 -7 -9 -15 -9 -15 0 -20 12 -9 23 8 8 24 -1 24 -14z
m-1563 -15 c10 -28 -12 -38 -62 -28 -54 11 -63 26 -20 35 52 11 75 9 82 -7z
m93 1 c0 -8 -4 -15 -10 -15 -5 0 -10 7 -10 15 0 8 5 15 10 15 6 0 10 -7 10
-15z m322 0 c0 -5 -5 -11 -11 -13 -6 -2 -11 4 -11 13 0 9 5 15 11 13 6 -2 11
-8 11 -13z m2346 3 c-6 -18 -28 -21 -28 -4 0 9 7 16 16 16 9 0 14 -5 12 -12z
m-928 -13 c0 -8 -4 -15 -10 -15 -5 0 -10 7 -10 15 0 8 5 15 10 15 6 0 10 -7
10 -15z m-1310 -5 c0 -5 -4 -10 -10 -10 -5 0 -10 5 -10 10 0 6 5 10 10 10 6 0
10 -4 10 -10z m529 -86 c-24 -24 -49 -44 -55 -44 -12 0 -30 37 -22 45 1 1 28
23 58 48 l55 46 3 -26 c3 -19 -7 -36 -39 -69z m1971 60 c0 -17 -22 -14 -28 4
-2 7 3 12 12 12 9 0 16 -7 16 -16z m338 -10 c25 -17 29 -52 8 -60 -8 -3 -31 6
-51 19 l-36 25 22 16 c29 20 29 20 57 0z m-3678 2 c0 -11 -19 -15 -25 -6 -3 5
1 10 9 10 9 0 16 -2 16 -4z m3220 -6 c0 -5 -4 -10 -10 -10 -5 0 -10 5 -10 10
0 6 5 10 10 10 6 0 10 -4 10 -10z m-1486 -51 c-3 -5 -12 -9 -20 -9 -17 0 -19
31 -2 48 10 10 14 8 20 -9 5 -11 6 -25 2 -30z m-824 20 c0 -5 -7 -9 -15 -9
-15 0 -20 12 -9 23 8 8 24 -1 24 -14z m94 0 c-3 -5 -10 -7 -15 -3 -5 3 -7 10
-3 15 3 5 10 7 15 3 5 -3 7 -10 3 -15z m116 6 c0 -8 -7 -15 -15 -15 -8 0 -15
7 -15 15 0 8 7 15 15 15 8 0 15 -7 15 -15z m135 4 c10 -15 -1 -23 -20 -15 -9
3 -13 10 -10 16 8 13 22 13 30 -1z m-1987 -27 c2 -7 -6 -12 -17 -12 -21 0 -27
11 -14 24 9 9 26 2 31 -12z m932 -13 c0 -20 -24 -26 -35 -9 -4 6 -4 17 -1 25
7 20 36 7 36 -16z m225 20 c9 -13 -27 -40 -39 -29 -12 12 0 40 18 40 8 0 18
-5 21 -11z m1037 -4 c0 -5 -5 -11 -11 -13 -6 -2 -11 4 -11 13 0 9 5 15 11 13
6 -2 11 -8 11 -13z m-3057 -14 c3 -5 1 -12 -5 -16 -5 -3 -10 1 -10 9 0 18 6
21 15 7z m3460 -20 c-6 -5 -30 -11 -55 -14 -25 -2 -56 -8 -70 -13 -22 -7 -24
-6 -12 9 13 15 42 22 112 25 20 1 30 -2 25 -7z m2258 -6 c1 -5 -6 -11 -15 -13
-11 -2 -18 3 -18 13 0 17 30 18 33 0z m-5378 -15 c0 -22 -29 -18 -33 3 -3 14
1 18 15 15 10 -2 18 -10 18 -18z m4863 7 l23 -13 -21 -19 c-21 -19 -22 -19
-35 -1 -13 17 -10 46 4 46 3 -1 16 -6 29 -13z m-1928 -16 c0 -5 -15 -14 -32
-21 -18 -6 -41 -16 -50 -21 -23 -12 -48 -12 -48 1 0 16 41 32 67 27 15 -3 27
1 30 9 6 15 33 19 33 5z m1473 -6 c8 -19 -13 -31 -23 -14 -9 14 -4 29 10 29 4
0 10 -7 13 -15z m-1756 -34 c11 -17 9 -21 -8 -26 -25 -8 -44 8 -36 29 9 22 30
20 44 -3z m-2211 -18 c-10 -10 -19 5 -10 18 6 11 8 11 12 0 2 -7 1 -15 -2 -18z
m1684 12 c0 -8 -9 -15 -20 -15 -11 0 -20 7 -20 15 0 8 9 15 20 15 11 0 20 -7
20 -15z m2552 -17 c-15 -15 -26 -4 -18 18 5 13 9 15 18 6 9 -9 9 -15 0 -24z
m-1932 2 c-59 -20 -70 -19 -50 5 8 10 29 15 59 15 l46 -1 -55 -19z m-3346 -32
c-7 -10 -34 -10 -34 0 0 4 5 13 12 20 9 9 14 9 19 0 4 -7 5 -16 3 -20z m3261
2 c-11 -5 -30 -9 -43 -9 -12 -1 -41 -10 -63 -21 -22 -12 -44 -18 -50 -15 -9 6
-62 -7 -104 -25 -34 -15 -137 -41 -142 -37 -2 3 8 15 24 27 19 15 36 20 54 16
15 -3 35 1 45 9 11 8 27 15 36 15 10 0 22 9 28 20 12 22 40 26 58 8 10 -9 16
-8 29 5 12 12 33 16 82 15 44 0 59 -3 46 -8z m-1345 -4 c0 -11 -19 -15 -25 -6
-3 5 1 10 9 10 9 0 16 -2 16 -4z m940 -16 c0 -13 -5 -18 -15 -14 -16 7 -19 17
-8 27 12 13 23 7 23 -13z m2233 5 c-4 -15 -36 -12 -41 3 -3 9 3 13 19 10 13
-1 23 -7 22 -13z m-3595 -23 c2 -14 -2 -22 -12 -22 -19 0 -29 17 -22 36 8 22
30 12 34 -14z m-742 -19 c-10 -10 -19 5 -10 18 6 11 8 11 12 0 2 -7 1 -15 -2
-18z m108 9 c2 -4 1 -14 -4 -22 -7 -11 -12 -12 -21 -3 -6 6 -8 16 -5 22 8 13
23 14 30 3z m188 -7 c0 -5 -5 -11 -11 -13 -6 -2 -11 4 -11 13 0 9 5 15 11 13
6 -2 11 -8 11 -13z m1703 -15 c-5 -8 -11 -8 -17 -2 -6 6 -7 16 -3 22 5 8 11 8
17 2 6 -6 7 -16 3 -22z m3131 19 c10 -17 -13 -36 -27 -22 -12 12 -4 33 11 33
5 0 12 -5 16 -11z m-4586 -9 c0 -5 -7 -10 -15 -10 -8 0 -15 5 -15 10 0 6 7 10
15 10 8 0 15 -4 15 -10z m4090 -16 c0 -8 -7 -14 -15 -14 -15 0 -21 21 -9 33
10 9 24 -2 24 -19z m-5640 1 c16 -20 1 -38 -23 -29 -17 6 -22 25 -10 37 10 11
19 8 33 -8z m6001 4 c23 -12 16 -29 -11 -29 -21 0 -34 15 -25 30 8 13 12 12
36 -1z m-5491 -9 c0 -5 -7 -10 -15 -10 -8 0 -15 5 -15 10 0 6 7 10 15 10 8 0
15 -4 15 -10z m945 0 c8 -13 -14 -42 -26 -34 -5 3 -9 14 -9 25 0 20 24 26 35
9z m1335 0 c13 -8 12 -11 -5 -24 -27 -21 -45 -20 -45 2 0 32 21 41 50 22z
m-202 -24 c2 -10 -1 -23 -8 -30 -17 -17 -44 22 -28 41 14 17 32 12 36 -11z
m-2385 0 c3 -8 -1 -17 -10 -20 -20 -8 -27 -1 -20 19 8 19 23 20 30 1z m2499
-18 c-15 -15 -26 -4 -18 18 5 13 9 15 18 6 9 -9 9 -15 0 -24z m-457 -8 c14
-16 16 -23 7 -32 -10 -10 -17 -7 -33 9 -12 11 -18 26 -15 32 10 16 21 14 41
-9z m791 -11 c-38 -16 -74 -28 -80 -25 -6 2 -2 7 9 11 11 3 38 15 60 25 22 10
49 19 60 19 11 0 -11 -13 -49 -30z m2864 21 c0 -5 -7 -10 -15 -10 -8 0 -15 5
-15 10 0 6 7 10 15 10 8 0 15 -4 15 -10z m-5483 -27 c8 -21 -42 -65 -71 -61
-33 5 -31 33 6 57 40 25 57 26 65 4z m663 -12 c0 -23 -76 -91 -101 -91 -10 0
-23 9 -29 20 -9 17 -6 25 17 46 49 46 113 60 113 25z m5100 -16 c0 -6 -9 -20
-20 -30 -18 -17 -19 -16 -26 9 -8 33 12 62 32 45 8 -6 14 -17 14 -24z m-122 8
c-4 -22 -22 -20 -26 1 -2 10 3 16 13 16 10 0 15 -7 13 -17z m304 2 c0 -5 -5
-11 -11 -13 -6 -2 -11 4 -11 13 0 9 5 15 11 13 6 -2 11 -8 11 -13z m-408 -17
c11 -16 13 -25 4 -35 -25 -30 -54 -8 -44 33 8 30 20 31 40 2z m-3824 -12 c0
-16 -7 -27 -20 -30 -11 -3 -29 -9 -40 -12 -30 -8 -25 20 8 45 36 27 52 26 52
-3z m775 14 c-3 -5 -25 -14 -48 -20 -23 -5 -64 -17 -90 -26 -36 -12 -51 -14
-60 -5 -8 8 -6 17 10 33 18 18 25 19 37 9 8 -7 20 -9 27 -5 7 4 25 7 40 6 16
0 31 4 34 9 4 5 17 9 31 9 14 0 22 -4 19 -10z m-2870 -30 c0 -22 -29 -18 -33
3 -3 14 1 18 15 15 10 -2 18 -10 18 -18z m-155 -5 c11 -13 8 -15 -19 -15 -21
0 -31 5 -31 15 0 8 8 15 19 15 10 0 24 -7 31 -15z m610 5 c13 -9 12 -12 -5
-25 -16 -13 -21 -13 -33 -1 -26 26 6 47 38 26z m-740 -10 c0 -5 -4 -10 -10
-10 -5 0 -10 5 -10 10 0 6 5 10 10 10 6 0 10 -4 10 -10z m-70 -20 c0 -11 -7
-20 -15 -20 -18 0 -19 12 -3 28 16 16 18 15 18 -8z m2263 6 c3 -8 -1 -17 -10
-20 -20 -8 -27 -1 -20 19 8 19 23 20 30 1z m-125 -14 c2 -7 -3 -12 -12 -12 -9
0 -16 7 -16 16 0 17 22 14 28 -4z m590 0 c2 -7 -3 -12 -12 -12 -9 0 -16 7 -16
16 0 17 22 14 28 -4z m2952 -12 c0 -5 -7 -10 -15 -10 -8 0 -15 5 -15 10 0 6 7
10 15 10 8 0 15 -4 15 -10z m414 -6 c21 -8 20 -21 -2 -49 -14 -17 -22 -21 -35
-13 -22 12 -22 44 1 57 21 13 17 12 36 5z m-5669 -39 c0 -16 -6 -20 -29 -18
-36 3 -42 9 -26 28 18 22 55 15 55 -10z m1430 15 c3 -5 -1 -10 -9 -10 -9 0
-16 5 -16 10 0 6 4 10 9 10 6 0 13 -4 16 -10z m4385 -29 c0 -25 -26 -34 -45
-15 -18 18 -19 26 -3 42 15 15 48 -3 48 -27z m-5943 13 c4 -13 -91 -59 -106
-50 -6 4 -11 18 -11 31 0 20 6 24 38 28 54 6 75 3 79 -9z m328 6 c-3 -5 -10
-10 -16 -10 -5 0 -9 5 -9 10 0 6 7 10 16 10 8 0 12 -4 9 -10z m923 -8 c2 -7
-3 -12 -12 -12 -9 0 -16 7 -16 16 0 17 22 14 28 -4z m5236 3 c-4 -8 -10 -12
-15 -9 -14 8 -10 24 6 24 9 0 12 -6 9 -15z m-6674 -10 c31 -38 -27 -60 -80
-30 l-25 14 35 15 c44 19 55 19 70 1z m1670 1 c0 -18 -27 -29 -36 -14 -4 5 0
14 7 19 20 13 29 11 29 -5z m-530 -11 c0 -8 -7 -15 -15 -15 -8 0 -15 7 -15 15
0 8 7 15 15 15 8 0 15 -7 15 -15z m720 -30 c0 -12 -21 -25 -41 -25 -16 0 -10
29 8 39 20 11 33 6 33 -14z m230 4 c0 -5 -7 -9 -15 -9 -15 0 -20 12 -9 23 8 8
24 -1 24 -14z m540 6 c0 -8 -7 -15 -15 -15 -8 0 -15 7 -15 15 0 8 7 15 15 15
8 0 15 -7 15 -15z m3277 -22 c-9 -9 -23 -13 -32 -10 -13 5 -14 11 -5 27 9 17
14 18 32 9 18 -10 19 -12 5 -26z m-4975 13 c9 -13 11 -76 2 -76 -3 0 -22 11
-42 25 -20 14 -47 25 -59 25 -20 0 -31 19 -19 31 10 9 112 6 118 -5z m-293 -5
c21 -13 -27 -41 -71 -41 -38 0 -44 5 -30 26 13 20 77 30 101 15z m5666 -21 c3
-5 1 -19 -6 -31 -9 -17 -13 -19 -20 -8 -14 22 -11 49 5 49 8 0 18 -4 21 -10z
m-6060 -10 c11 -17 -5 -32 -21 -19 -7 6 -11 15 -8 20 7 12 21 11 29 -1z m5573
-7 c-2 -10 -13 -19 -26 -21 -17 -3 -22 2 -22 17 0 16 6 21 26 21 19 0 25 -5
22 -17z m222 -2 c8 -16 6 -21 -11 -26 -26 -8 -42 6 -33 28 8 23 31 21 44 -2z
m564 10 c3 -5 -1 -14 -8 -20 -16 -13 -32 2 -21 19 8 12 22 13 29 1z m-5334
-45 c-7 -9 -17 -16 -22 -16 -16 0 -21 30 -7 46 11 13 14 13 27 0 13 -12 13
-18 2 -30z m1563 22 c7 -21 -4 -38 -24 -38 -14 0 -19 7 -19 25 0 18 5 25 19
25 11 0 21 -6 24 -12z m-2783 -8 c0 -5 -4 -10 -10 -10 -5 0 -10 5 -10 10 0 6
5 10 10 10 6 0 10 -4 10 -10z m6335 1 c3 -5 1 -12 -5 -16 -5 -3 -10 1 -10 9 0
18 6 21 15 7z m-303 -28 c22 -20 23 -52 2 -60 -24 -9 -48 21 -40 51 7 30 13
32 38 9z m-5253 -4 c41 -14 38 -43 -5 -47 -37 -4 -94 35 -72 49 18 12 39 11
77 -2z m671 -53 c-16 -21 -49 -20 -57 0 -3 8 0 26 8 40 l13 25 25 -25 c20 -21
22 -27 11 -40z m515 43 c0 -7 -8 -15 -17 -17 -18 -3 -25 18 -11 32 10 10 28 1
28 -15z m3915 1 c0 -4 -7 -13 -15 -20 -22 -18 -44 2 -26 24 12 14 41 12 41 -4z
m-342 -18 c2 -7 -3 -12 -12 -12 -9 0 -16 7 -16 16 0 17 22 14 28 -4z m-5098
-6 c0 -3 -4 -8 -10 -11 -5 -3 -10 -1 -10 4 0 6 5 11 10 11 6 0 10 -2 10 -4z
m5199 -22 c-14 -18 -24 -11 -15 11 3 9 11 13 16 10 8 -5 7 -11 -1 -21z m131
12 c0 -8 -4 -17 -8 -20 -13 -8 -35 11 -28 23 10 16 36 14 36 -3z m385 -6 c0
-22 -29 -18 -33 3 -3 14 1 18 15 15 10 -2 18 -10 18 -18z m85 11 c0 -6 -4 -13
-10 -16 -5 -3 -10 1 -10 9 0 9 5 16 10 16 6 0 10 -4 10 -9z m-5000 -30 c13
-26 3 -51 -21 -51 -19 0 -25 23 -13 54 8 21 21 20 34 -3z m5129 5 c12 -14 5
-46 -9 -46 -5 0 -15 -3 -24 -6 -12 -5 -16 1 -16 24 0 27 9 38 31 41 4 1 12 -5
18 -13z m181 -2 c0 -9 -5 -14 -12 -12 -18 6 -21 28 -4 28 9 0 16 -7 16 -16z
m-6757 -95 c-5 -19 -35 -42 -68 -52 -19 -6 -20 -2 -19 62 1 38 5 75 9 82 12
18 84 -67 78 -92z m1371 8 c54 -51 58 -67 16 -67 -51 0 -80 26 -80 71 0 22 4
39 9 39 4 0 29 -19 55 -43z m4556 22 c13 -24 13 -24 -18 -33 -15 -5 -24 -3
-28 8 -16 41 26 63 46 25z m-5310 -15 c0 -16 -16 -19 -25 -4 -8 13 4 32 16 25
5 -4 9 -13 9 -21z m5614 -1 c8 -20 -1 -33 -25 -33 -24 0 -35 25 -19 45 13 16
36 10 44 -12z m101 -3 c0 -29 -32 -41 -41 -16 -9 24 4 48 23 44 12 -2 18 -12
18 -28z m-5835 10 c0 -5 -4 -10 -10 -10 -5 0 -10 5 -10 10 0 6 5 10 10 10 6 0
10 -4 10 -10z m5100 -4 c0 -16 -18 -31 -27 -22 -8 8 5 36 17 36 5 0 10 -6 10
-14z m-5186 -5 c3 -5 -1 -14 -8 -20 -16 -13 -32 2 -21 19 8 12 22 13 29 1z
m1936 0 c0 -6 -4 -13 -10 -16 -5 -3 -10 1 -10 9 0 9 5 16 10 16 6 0 10 -4 10
-9z m-2142 -29 c2 -7 -3 -12 -12 -12 -9 0 -16 7 -16 16 0 17 22 14 28 -4z m96
-8 c4 -10 -1 -25 -11 -36 -17 -18 -17 -18 -30 7 -8 14 -11 30 -8 35 10 16 42
11 49 -6z m6246 1 c15 -18 5 -35 -21 -35 -12 0 -19 7 -19 18 0 33 20 42 40 17z
m-5390 -37 c0 -9 12 -30 26 -47 l26 -31 -46 0 c-51 0 -50 -1 -35 71 8 36 14
47 20 38 5 -8 9 -22 9 -31z m1494 11 c20 -18 -4 -39 -43 -39 -40 0 -71 20 -71
45 0 11 12 13 53 8 28 -3 56 -9 61 -14z m3176 -1 c0 -30 -35 -84 -45 -68 -4 6
-4 23 0 38 12 50 45 71 45 30z m-5250 -2 c0 -8 -4 -18 -10 -21 -5 -3 -10 3
-10 14 0 12 5 21 10 21 6 0 10 -6 10 -14z m958 -8 c3 -13 -3 -18 -22 -18 -20
0 -26 5 -26 21 0 15 5 20 22 17 13 -2 24 -11 26 -20z m4450 11 c-2 -6 -8 -10
-13 -10 -5 0 -11 4 -13 10 -2 6 4 11 13 11 9 0 15 -5 13 -11z m-5512 -38 c-9
-14 -33 -14 -41 -1 -4 6 -1 18 6 26 11 13 14 13 27 0 8 -8 11 -19 8 -25z
m6154 14 c0 -26 -14 -33 -25 -15 -9 14 1 40 15 40 5 0 10 -11 10 -25z m-6278
-10 c0 -5 -5 -11 -11 -13 -6 -2 -11 4 -11 13 0 9 5 15 11 13 6 -2 11 -8 11
-13z m5883 -30 c0 -25 -4 -30 -25 -30 -28 0 -39 27 -19 51 20 24 44 13 44 -21z
m84 21 c9 -10 8 -16 -4 -26 -20 -16 -38 -1 -29 23 8 21 18 22 33 3z m-6259
-51 c0 -34 -5 -47 -19 -55 -30 -15 -31 -14 -31 45 0 52 1 55 25 55 23 0 25 -4
25 -45z m6365 36 c7 -12 -12 -24 -25 -16 -11 7 -4 25 10 25 5 0 11 -4 15 -9z
m-364 -16 c-1 -15 -24 -12 -29 3 -3 9 2 13 12 10 10 -1 17 -7 17 -13z m-5217
-4 c3 -5 0 -11 -8 -14 -8 -3 -17 1 -20 9 -6 15 19 20 28 5z m5682 -2 c10 -17
-13 -36 -27 -22 -12 12 -4 33 11 33 5 0 12 -5 16 -11z m-6576 -15 c0 -17 -22
-14 -28 4 -2 7 3 12 12 12 9 0 16 -7 16 -16z m6685 -24 c0 -13 -6 -25 -12 -27
-16 -6 -27 21 -19 43 9 23 31 11 31 -16z m-4035 -10 c0 -13 -33 -21 -43 -11
-16 16 12 44 29 30 8 -6 14 -15 14 -19z m3530 26 c0 -2 3 -11 6 -20 4 -12 0
-16 -15 -16 -14 0 -21 6 -21 20 0 11 7 20 15 20 8 0 15 -2 15 -4z m-5397 -21
c7 -17 -8 -29 -28 -21 -17 6 -9 36 10 36 7 0 15 -7 18 -15z m1927 5 c0 -12
-28 -25 -36 -17 -9 9 6 27 22 27 8 0 14 -5 14 -10z m3034 -6 c9 -23 8 -24 -14
-24 -19 0 -27 20 -13 33 11 11 20 8 27 -9z m524 -30 c2 -11 -4 -26 -12 -33
-12 -10 -17 -8 -26 9 -6 12 -9 28 -6 37 8 21 40 12 44 -13z m-6000 -12 c2 -15
-2 -22 -12 -22 -11 0 -16 9 -16 26 0 31 23 28 28 -4z m6116 -3 c-8 -14 -34
-11 -34 4 0 8 3 17 7 20 9 9 34 -13 27 -24z m-5364 -39 c-35 -22 -65 5 -39 36
11 13 15 13 33 -6 18 -18 19 -22 6 -30z m181 37 c-1 -12 -15 -9 -19 4 -3 6 1
10 8 8 6 -3 11 -8 11 -12z m5297 0 c8 -10 6 -16 -10 -26 -17 -11 -23 -10 -35
2 -9 8 -12 20 -9 26 10 15 41 14 54 -2z m-430 -14 c-4 -22 -22 -20 -26 1 -2
10 3 16 13 16 10 0 15 -7 13 -17z m-5190 -11 c3 -9 -2 -13 -14 -10 -9 1 -19 9
-22 16 -3 9 2 13 14 10 9 -1 19 -9 22 -16z m6012 8 c0 -5 -7 -10 -15 -10 -8 0
-15 5 -15 10 0 6 7 10 15 10 8 0 15 -4 15 -10z m-6276 -30 c19 -19 19 -19 -7
-26 -32 -7 -77 18 -77 42 0 22 57 11 84 -16z m162 6 c6 -14 -38 -110 -55 -121
-17 -10 -32 31 -21 59 24 65 63 96 76 62z m5194 -1 c0 -8 -7 -15 -15 -15 -16
0 -20 12 -8 23 11 12 23 8 23 -8z m-3450 -15 c0 -5 -4 -10 -10 -10 -5 0 -10 5
-10 10 0 6 5 10 10 10 6 0 10 -4 10 -10z m3620 -20 c-9 -6 -19 -5 -25 1 -6 6
-5 13 5 19 9 6 19 5 25 -1 6 -6 5 -13 -5 -19z m-6051 4 c2 -2 -4 -13 -15 -25
-31 -35 -103 -14 -104 30 0 10 12 12 58 6 31 -4 59 -9 61 -11z m92 -17 c-1
-12 -15 -9 -19 4 -3 6 1 10 8 8 6 -3 11 -8 11 -12z m2645 -4 c22 -29 17 -53
-10 -53 -32 0 -41 16 -25 46 15 29 18 29 35 7z m3565 1 c10 -13 10 -17 -2 -25
-21 -13 -36 -11 -43 7 -13 33 21 47 45 18z m-3471 -9 c0 -8 -4 -15 -10 -15 -5
0 -10 7 -10 15 0 8 5 15 10 15 6 0 10 -7 10 -15z m3330 -11 c0 -8 -7 -14 -15
-14 -15 0 -21 21 -9 33 10 9 24 -2 24 -19z m-212 4 c17 -17 15 -48 -4 -55 -23
-8 -38 12 -30 41 7 29 16 32 34 14z m820 -16 c3 -19 0 -23 -19 -20 -12 2 -26
13 -30 26 -8 21 -6 23 19 20 20 -2 28 -9 30 -26z m-4498 -6 c0 -29 -19 -44
-30 -26 -8 13 8 50 22 50 5 0 8 -11 8 -24z m-1910 4 c0 -38 -60 -106 -85 -96
-14 5 -14 9 -1 35 24 45 86 89 86 61z m5226 -11 c3 -6 1 -16 -5 -22 -9 -9 -14
-8 -21 3 -9 15 -4 30 10 30 5 0 12 -5 16 -11z m962 -12 c2 -10 -4 -20 -13 -23
-21 -9 -28 0 -20 26 8 24 28 22 33 -3z m-5818 -2 c0 -8 -4 -15 -10 -15 -5 0
-10 7 -10 15 0 8 5 15 10 15 6 0 10 -7 10 -15z m5123 -2 c9 -9 -13 -34 -24
-27 -14 8 -11 34 4 34 8 0 17 -3 20 -7z m-143 -28 c17 -21 5 -45 -24 -45 -25
0 -39 20 -30 45 8 19 38 19 54 0z m505 5 c8 -13 -3 -50 -15 -50 -12 0 -23 37
-15 50 3 5 10 10 15 10 5 0 12 -5 15 -10z m115 -35 c0 -16 -6 -25 -15 -25 -16
0 -19 9 -9 34 9 25 24 19 24 -9z m-3250 5 c0 -5 -2 -10 -4 -10 -3 0 -8 5 -11
10 -3 6 -1 10 4 10 6 0 11 -4 11 -10z m3536 -17 c-10 -10 -19 5 -10 18 6 11 8
11 12 0 2 -7 1 -15 -2 -18z m-4466 13 c0 -3 -4 -8 -10 -11 -5 -3 -10 -1 -10 4
0 6 5 11 10 11 6 0 10 -2 10 -4z m3761 -17 c9 -17 8 -23 -2 -30 -34 -21 -63 7
-39 36 17 20 27 19 41 -6z m-3129 -4 c0 -5 -5 -11 -11 -13 -6 -2 -11 4 -11 13
0 9 5 15 11 13 6 -2 11 -8 11 -13z m-2072 -21 c0 -8 -6 -14 -14 -14 -18 0 -29
27 -13 33 16 6 27 -1 27 -19z m1808 -2 c4 -29 -15 -62 -37 -62 -24 0 -33 23
-21 54 15 40 53 45 58 8z m4022 14 c0 -8 -5 -18 -11 -22 -14 -8 -33 11 -25 25
10 16 36 13 36 -3z m-763 -32 c8 -21 -13 -42 -28 -27 -13 13 -5 43 11 43 6 0
13 -7 17 -16z m406 2 c6 -15 -22 -46 -41 -46 -7 0 -12 14 -12 30 0 25 4 30 24
30 13 0 26 -6 29 -14z m-3473 -6 c0 -5 -4 -10 -10 -10 -5 0 -10 5 -10 10 0 6
5 10 10 10 6 0 10 -4 10 -10z m2960 -36 c0 -16 -16 -19 -25 -4 -8 13 4 32 16
25 5 -4 9 -13 9 -21z m594 9 c8 -21 -10 -41 -24 -27 -11 11 -3 44 10 44 4 0
11 -8 14 -17z m-5994 -8 c0 -8 -7 -15 -15 -15 -16 0 -20 12 -8 23 11 12 23 8
23 -8z m1976 -9 c12 -49 -24 -63 -52 -21 -19 29 -12 45 21 45 18 0 26 -7 31
-24z m368 5 c3 -5 -2 -19 -12 -31 -16 -20 -19 -20 -31 -6 -7 9 -11 23 -7 31 6
16 41 21 50 6z m4193 -7 c8 -21 -23 -52 -38 -37 -8 8 -8 17 0 32 14 25 29 27
38 5z m-457 -19 c0 -8 -7 -15 -15 -15 -9 0 -12 6 -9 15 4 8 10 15 15 15 5 0 9
-7 9 -15z m-480 -26 c0 -5 -9 -9 -20 -9 -22 0 -23 1 -14 24 5 13 9 14 20 5 8
-6 14 -15 14 -20z m80 1 c0 -5 -7 -10 -16 -10 -8 0 -12 5 -9 10 3 6 10 10 16
10 5 0 9 -4 9 -10z m-180 -20 c0 -5 -7 -10 -15 -10 -8 0 -15 5 -15 10 0 6 7
10 15 10 8 0 15 -4 15 -10z m388 -15 c7 -14 12 -28 12 -31 0 -3 -28 -4 -62 -2
-35 2 -62 7 -61 12 1 8 71 41 94 45 3 1 11 -10 17 -24z m-470 -18 c16 -13 -3
-37 -30 -37 -24 0 -34 26 -18 45 12 14 21 13 48 -8z m587 13 c3 -5 1 -10 -4
-10 -6 0 -11 5 -11 10 0 6 2 10 4 10 3 0 8 -4 11 -10z m-3440 -10 c3 -6 -1
-13 -10 -16 -19 -8 -30 0 -20 15 8 14 22 14 30 1z m3565 -16 c0 -15 -27 -30
-36 -21 -3 3 -3 15 1 26 7 22 35 18 35 -5z m-556 -32 c3 -5 -8 -31 -24 -59
-24 -41 -33 -50 -50 -46 -20 5 -20 6 6 52 15 25 29 49 31 54 6 10 31 9 37 -1z
m684 -61 c5 -92 -30 -95 -44 -4 -7 47 0 66 24 61 13 -2 18 -16 20 -57z m-4124
34 c4 -10 -1 -15 -14 -15 -20 0 -26 11 -13 23 10 11 20 8 27 -8z m530 -6 c-3
-5 -10 -7 -15 -3 -5 3 -7 10 -3 15 3 5 10 7 15 3 5 -3 7 -10 3 -15z m2783 -20
c-8 -63 -57 -107 -57 -52 0 46 22 93 43 93 17 0 19 -5 14 -41z m-3832 -8 c0
-8 -4 -16 -10 -18 -16 -5 -38 14 -30 26 9 16 40 9 40 -8z m4390 -51 c10 -16
-14 -50 -35 -50 -25 0 -31 21 -12 43 17 19 38 22 47 7z m-3138 -34 c-4 -9 -11
-16 -17 -16 -11 0 -14 33 -3 44 11 10 26 -11 20 -28z m-565 9 c0 -5 -5 -11
-11 -13 -6 -2 -11 4 -11 13 0 9 5 15 11 13 6 -2 11 -8 11 -13z m3853 5 c3 -5
-1 -10 -9 -10 -9 0 -16 5 -16 10 0 6 4 10 9 10 6 0 13 -4 16 -10z m-3985 -39
c0 -21 -8 -36 -30 -51 -28 -20 -30 -20 -30 -3 0 23 36 83 50 83 5 0 10 -13 10
-29z m3588 13 c27 -8 29 -21 3 -29 -20 -6 -71 13 -71 27 0 9 35 10 68 2z
m-4018 -14 c0 -5 -4 -10 -10 -10 -5 0 -10 5 -10 10 0 6 5 10 10 10 6 0 10 -4
10 -10z m818 -23 c2 -12 -3 -17 -17 -17 -12 0 -21 6 -21 13 0 31 32 34 38 4z
m-178 -17 c0 -5 -4 -10 -10 -10 -5 0 -10 5 -10 10 0 6 5 10 10 10 6 0 10 -4
10 -10z m-136 -41 c-3 -5 -10 -7 -15 -3 -5 3 -7 10 -3 15 3 5 10 7 15 3 5 -3
7 -10 3 -15z m3656 11 c11 -7 12 -12 3 -21 -13 -13 -33 -4 -33 17 0 16 9 18
30 4z m480 -31 c0 -11 -4 -17 -10 -14 -5 3 -10 13 -10 21 0 8 5 14 10 14 6 0
10 -9 10 -21z m180 1 c0 -5 -7 -10 -15 -10 -8 0 -15 5 -15 10 0 6 7 10 15 10
8 0 15 -4 15 -10z m-4204 -21 c10 -17 -13 -36 -27 -22 -12 12 -4 33 11 33 5 0
12 -5 16 -11z m204 -24 c10 -12 10 -18 0 -30 -16 -19 -39 -19 -64 0 -21 16
-21 17 9 33 27 15 40 15 55 -3z m3340 -5 c0 -5 -4 -10 -10 -10 -5 0 -10 5 -10
10 0 6 5 10 10 10 6 0 10 -4 10 -10z m-3753 -32 c-3 -8 -6 -5 -6 6 -1 11 2 17
5 13 3 -3 4 -12 1 -19z m3544 12 c14 0 19 -7 19 -30 0 -30 0 -30 -59 -30 -79
0 -130 20 -131 52 0 12 34 17 94 12 32 -2 67 -4 77 -4z m146 -7 c2 -6 -3 -13
-12 -16 -10 -5 -15 0 -15 14 0 21 21 22 27 2z m-3787 -11 c-1 -17 -19 -34 -29
-28 -8 5 -8 13 -1 27 10 18 30 18 30 1z m208 -10 c2 -14 -2 -22 -11 -22 -17 0
-30 27 -21 41 9 16 29 4 32 -19z m412 24 c0 -3 -4 -8 -10 -11 -5 -3 -10 -1
-10 4 0 6 5 11 10 11 6 0 10 -2 10 -4z m3622 -11 c0 -5 -5 -11 -11 -13 -6 -2
-11 4 -11 13 0 9 5 15 11 13 6 -2 11 -8 11 -13z m308 -24 c0 -14 -5 -18 -20
-14 -16 4 -18 8 -9 19 16 20 29 17 29 -5z m-720 -26 c17 -20 -3 -45 -36 -45
-28 0 -31 16 -7 42 20 22 27 22 43 3z m-404 -31 c8 -33 -15 -52 -33 -28 -9 13
-9 21 0 35 16 26 25 24 33 -7z m644 22 c0 -3 -4 -8 -10 -11 -5 -3 -10 -1 -10
4 0 6 5 11 10 11 6 0 10 -2 10 -4z m-116 -27 c-3 -5 -10 -7 -15 -3 -5 3 -7 10
-3 15 3 5 10 7 15 3 5 -3 7 -10 3 -15z m-3644 1 c0 -5 -2 -10 -4 -10 -3 0 -8
5 -11 10 -3 6 -1 10 4 10 6 0 11 -4 11 -10z m3957 -1 c14 -14 -4 -62 -21 -56
-13 4 -20 33 -12 53 6 17 18 18 33 3z m-4457 -35 c0 -28 -15 -32 -29 -6 -7 13
-7 22 1 30 16 16 28 5 28 -24z m3806 9 c-3 -8 -6 -17 -6 -19 0 -2 -6 -4 -14
-4 -21 0 -30 19 -16 35 14 17 43 8 36 -12z m92 -6 c4 -20 -25 -34 -40 -19 -15
15 -1 44 19 40 10 -2 19 -11 21 -21z m632 -18 c0 -27 -2 -30 -15 -19 -24 20
-19 39 13 49 1 1 2 -13 2 -30z m-3420 5 c0 -17 -22 -14 -28 4 -2 7 3 12 12 12
9 0 16 -7 16 -16z m2921 -46 c-11 -31 -47 -48 -104 -48 -44 0 -48 2 -45 22 3
24 57 45 120 47 35 1 37 -1 29 -21z m339 9 c0 -28 -100 -51 -115 -27 -4 6 -4
17 -1 25 7 20 116 21 116 2z m-3820 -28 c0 -5 -4 -9 -10 -9 -5 0 -10 7 -10 16
0 8 5 12 10 9 6 -3 10 -10 10 -16z m3290 -4 c0 -8 -4 -16 -9 -19 -12 -8 -34
21 -27 33 9 14 36 2 36 -14z m-3195 -15 c3 -5 1 -10 -4 -10 -6 0 -11 5 -11 10
0 6 2 10 4 10 3 0 8 -4 11 -10z m4052 -6 c9 -23 -11 -38 -26 -20 -13 16 -7 36
10 36 5 0 12 -7 16 -16z m-3762 -14 c0 -7 -6 -15 -12 -17 -8 -3 -13 4 -13 17
0 13 5 20 13 18 6 -3 12 -11 12 -18z m2811 -74 c9 -37 1 -91 -14 -91 -9 0 -15
18 -18 58 -3 45 -1 57 11 57 8 0 17 -11 21 -24z m978 -8 c7 -12 6 -21 -3 -32
-17 -20 -41 -9 -41 18 0 39 23 46 44 14z m-325 -1 c13 -16 5 -27 -21 -27 -11
0 -18 7 -18 20 0 23 22 27 39 7z m-4041 -8 c-2 -6 -8 -10 -13 -10 -5 0 -11 4
-13 10 -2 6 4 11 13 11 9 0 15 -5 13 -11z m-458 -9 c0 -5 -4 -10 -9 -10 -6 0
-13 5 -16 10 -3 6 1 10 9 10 9 0 16 -4 16 -10z m320 0 c0 -12 -28 -25 -36 -17
-9 9 6 27 22 27 8 0 14 -5 14 -10z m730 2 c0 -17 -38 -43 -66 -45 -23 -2 -30
3 -32 20 -2 16 3 23 20 26 41 8 78 7 78 -1z m224 -11 c3 -5 -1 -14 -8 -20 -16
-13 -32 2 -21 19 8 12 22 13 29 1z m3046 -6 c0 -23 -35 -87 -59 -109 -21 -19
-21 -19 -21 13 0 17 -6 47 -14 66 l-15 34 42 4 c23 2 48 4 55 5 6 1 12 -5 12
-13z m-3554 -40 c4 -8 0 -22 -7 -31 -11 -13 -14 -13 -27 0 -17 17 -9 46 13 46
9 0 18 -7 21 -15z m115 -6 c16 -8 18 -13 8 -25 -17 -20 -49 -18 -49 4 0 32 11
37 41 21z m3209 2 c0 -5 -9 -19 -20 -32 -20 -23 -20 -24 -35 -5 -11 14 -12 23
-4 33 13 15 59 18 59 4z m354 -13 c11 -43 7 -96 -9 -102 -8 -3 -15 -4 -15 -2
0 2 -4 27 -10 56 -5 29 -7 56 -4 61 10 17 32 9 38 -13z m-491 -14 c-5 -15 -16
-18 -26 -8 -10 11 4 33 18 28 8 -3 11 -12 8 -20z m-3678 -14 c33 -34 29 -45
-14 -35 -30 6 -48 35 -36 55 10 16 19 12 50 -20z m129 24 c20 -8 20 -20 0 -28
-21 -8 -34 1 -27 19 6 17 6 17 27 9z m898 -39 c0 -5 -5 -11 -11 -13 -6 -2 -11
4 -11 13 0 9 5 15 11 13 6 -2 11 -8 11 -13z m-606 -36 c9 -16 -12 -33 -31 -25
-14 5 -15 9 -5 21 15 18 26 19 36 4z m3164 -3 c0 -8 -7 -17 -16 -20 -23 -9
-24 -8 -24 14 0 13 7 20 20 20 11 0 20 -6 20 -14z m-3290 -16 c0 -5 -5 -10
-11 -10 -5 0 -7 5 -4 10 3 6 8 10 11 10 2 0 4 -4 4 -10z m3416 -11 c3 -6 -1
-18 -9 -27 -13 -12 -19 -13 -31 -3 -8 7 -12 19 -9 27 6 17 39 19 49 3z m285
-19 l24 -20 -25 -20 c-32 -25 -42 -25 -66 1 -19 21 -18 21 5 40 29 24 33 24
62 -1z m-444 -56 c7 -18 -12 -34 -39 -34 -18 0 -25 30 -11 43 12 13 44 7 50
-9z m-3187 -43 c0 -39 -20 -68 -40 -56 -15 9 -12 33 7 66 23 39 33 36 33 -10z
m3452 7 c-9 -9 -15 -9 -24 0 -10 10 -10 15 2 22 20 12 38 -6 22 -22z m393 2
c0 -18 -6 -26 -22 -28 -18 -3 -23 1 -23 21 0 28 9 39 30 35 9 -2 15 -14 15
-28z m-4125 5 c0 -8 -7 -15 -15 -15 -16 0 -20 12 -8 23 11 12 23 8 23 -8z
m697 -29 c-8 -20 -37 -10 -37 13 0 10 3 21 7 25 11 11 36 -21 30 -38z m3513
28 c0 -9 -10 -33 -22 -53 l-23 -36 -3 33 c-2 22 3 41 14 53 21 23 34 24 34 3z
m233 1 c4 -8 2 -17 -3 -20 -6 -4 -10 3 -10 14 0 25 6 27 13 6z m-807 -6 c10
-17 -23 -46 -37 -32 -7 7 -9 19 -6 27 7 18 33 21 43 5z m-3731 -44 c0 -39 -1
-40 -55 -62 -30 -12 -72 -24 -93 -28 -33 -7 -37 -5 -31 11 12 33 36 54 62 54
16 0 36 13 56 35 41 45 61 42 61 -10z m3993 2 c2 -10 -3 -17 -12 -17 -18 0
-29 16 -21 31 9 14 29 6 33 -14z m-3523 -37 c-3 -5 -10 -10 -16 -10 -5 0 -9 5
-9 10 0 6 7 10 16 10 8 0 12 -4 9 -10z m593 -10 c10 -17 10 -21 -3 -26 -23 -9
-45 3 -45 26 0 26 31 26 48 0z m2696 -22 c-7 -10 -54 -10 -54 0 0 4 5 13 11
19 13 13 52 -5 43 -19z m-3674 2 c0 -11 -15 -37 -34 -57 -29 -32 -36 -35 -50
-24 -27 22 -18 45 27 73 52 33 57 33 57 8z m638 -2 c-2 -15 -11 -24 -25 -26
-25 -4 -31 16 -11 36 20 20 40 14 36 -10z m112 12 c0 -5 -4 -10 -10 -10 -5 0
-10 5 -10 10 0 6 5 10 10 10 6 0 10 -4 10 -10z m2700 0 c0 -5 -5 -10 -11 -10
-5 0 -7 5 -4 10 3 6 8 10 11 10 2 0 4 -4 4 -10z m1015 -30 c3 -5 1 -10 -4 -10
-6 0 -11 5 -11 10 0 6 2 10 4 10 3 0 8 -4 11 -10z m-412 -35 c-6 -16 -16 -19
-26 -8 -9 8 13 34 24 28 4 -3 6 -12 2 -20z m-447 -16 c3 -6 0 -17 -7 -25 -18
-17 -44 -2 -36 20 7 18 33 21 43 5z m614 -19 l25 -20 -35 0 c-49 0 -76 -22
-84 -68 -3 -21 -14 -46 -25 -56 -18 -16 -20 -16 -35 6 -25 36 -20 85 12 115
50 47 101 55 142 23z m-3440 -30 c0 -5 -4 -10 -10 -10 -5 0 -10 5 -10 10 0 6
5 10 10 10 6 0 10 -4 10 -10z m3436 -31 c10 -17 -23 -46 -37 -32 -7 7 -9 19
-6 27 7 18 33 21 43 5z m128 -5 c9 -25 7 -54 -5 -54 -20 0 -49 21 -49 35 0 13
25 34 41 35 4 0 10 -7 13 -16z m-4374 -19 c-16 -17 -34 -25 -56 -25 -36 0 -47
10 -38 34 5 12 20 16 62 16 l55 0 -23 -25z m390 4 c0 -14 -5 -19 -17 -17 -26
5 -29 38 -4 38 15 0 21 -6 21 -21z m3179 5 c2 -2 1 -10 -3 -19 -9 -24 -40 -14
-44 14 -3 20 -1 22 20 16 13 -4 25 -9 27 -11z m-3279 -14 c0 -5 -7 -10 -15
-10 -8 0 -15 5 -15 10 0 6 7 10 15 10 8 0 15 -4 15 -10z m407 -44 c-4 -9 -11
-16 -17 -16 -11 0 -14 33 -3 44 11 10 26 -11 20 -28z m2996 19 c-6 -18 -34
-16 -41 3 -2 7 6 12 22 12 19 0 24 -4 19 -15z m222 -16 c10 -15 -1 -23 -20
-15 -9 3 -13 10 -10 16 8 13 22 13 30 -1z m600 -19 c3 -5 3 -15 -1 -21 -6 -11
-23 6 -24 24 0 10 18 9 25 -3z m-3915 -14 c0 -8 -5 -18 -10 -21 -13 -8 -42 14
-34 26 9 15 44 10 44 -5z m3190 4 c0 -5 -2 -10 -4 -10 -3 0 -8 5 -11 10 -3 6
-1 10 4 10 6 0 11 -4 11 -10z m588 -2 c7 -7 12 -22 12 -35 0 -19 -5 -23 -27
-22 -16 1 -39 4 -53 8 l-25 7 27 27 c30 29 47 34 66 15z m-4420 -21 c4 -20
-25 -34 -40 -19 -15 15 -1 44 19 40 10 -2 19 -11 21 -21z m3572 -9 c0 -7 -9
-32 -20 -55 -13 -30 -25 -43 -40 -43 -24 0 -26 20 -5 60 21 40 65 66 65 38z
m505 2 c7 -11 -12 -50 -24 -50 -15 0 -22 32 -10 46 13 16 25 18 34 4z m-435
-26 c0 -8 -5 -12 -10 -9 -6 4 -8 11 -5 16 9 14 15 11 15 -7z m640 1 c13 -15 6
-65 -8 -65 -7 0 -42 63 -42 75 0 12 39 4 50 -10z m-490 -35 c0 -13 -19 -22
-30 -15 -14 9 0 34 16 28 8 -3 14 -9 14 -13z m821 -15 c1 -17 -18 -17 -25 0
-4 11 -1 15 10 13 8 -2 15 -7 15 -13z m-4580 -6 c16 -8 18 -13 8 -25 -22 -27
-55 -12 -43 20 7 19 9 19 35 5z m612 -13 c3 -8 0 -17 -8 -20 -14 -5 -28 17
-18 28 10 10 21 7 26 -8z m3760 0 c7 -17 -28 -51 -42 -41 -14 8 -14 28 1 43
16 16 35 15 41 -2z m-303 -20 c0 -19 -27 -28 -33 -11 -7 15 1 25 20 25 7 0 13
-6 13 -14z m-3800 -6 c0 -5 -7 -10 -16 -10 -8 0 -12 5 -9 10 3 6 10 10 16 10
5 0 9 -4 9 -10z m531 -16 c10 -13 10 -17 -2 -25 -22 -14 -49 -11 -56 7 -11 30
36 45 58 18z m3773 -1 c8 -19 -17 -48 -33 -39 -6 4 -11 18 -11 32 0 28 34 34
44 7z m-3493 -14 c16 -8 18 -13 8 -25 -22 -27 -55 -12 -43 20 7 19 9 19 35 5z
m-1007 -28 l29 -19 -39 -17 c-63 -27 -103 -30 -110 -11 -4 10 -1 28 6 42 17
30 72 33 114 5z m471 10 c3 -5 1 -12 -5 -16 -5 -3 -10 1 -10 9 0 18 6 21 15 7z
m3875 -20 c0 -6 -4 -13 -10 -16 -5 -3 -10 1 -10 9 0 9 5 16 10 16 6 0 10 -4
10 -9z m-4218 -36 c0 -5 -5 -11 -11 -13 -6 -2 -11 4 -11 13 0 9 5 15 11 13 6
-2 11 -8 11 -13z m3936 -2 c5 -17 -26 -29 -40 -15 -6 6 -7 15 -3 22 9 14 37 9
43 -7z m-128 -3 c0 -5 -4 -10 -10 -10 -5 0 -10 5 -10 10 0 6 5 10 10 10 6 0
10 -4 10 -10z m-110 -19 c0 -6 -4 -13 -10 -16 -5 -3 -10 1 -10 9 0 9 5 16 10
16 6 0 10 -4 10 -9z m-187 -7 c8 -8 -3 -34 -14 -34 -5 0 -9 9 -9 20 0 19 11
26 23 14z m-3203 -29 c10 -12 9 -16 -5 -21 -19 -8 -40 9 -31 25 10 15 21 14
36 -4z m3290 -5 c0 -5 -4 -10 -10 -10 -5 0 -10 5 -10 10 0 6 5 10 10 10 6 0
10 -4 10 -10z m-3855 -20 c-3 -5 -10 -10 -16 -10 -5 0 -9 5 -9 10 0 6 7 10 16
10 8 0 12 -4 9 -10z m4342 -6 c3 -8 -1 -22 -9 -30 -12 -12 -17 -12 -33 -1 -23
17 -14 47 15 47 11 0 23 -7 27 -16z m-4013 -17 c8 -12 7 -20 -2 -29 -16 -16
-47 13 -38 37 7 19 25 16 40 -8z m3371 -17 c17 -18 16 -19 -10 -26 -34 -8 -54
9 -35 31 16 20 23 19 45 -5z m-2845 -21 c0 -5 -4 -9 -10 -9 -5 0 -10 7 -10 16
0 8 5 12 10 9 6 -3 10 -10 10 -16z m3110 11 c0 -5 -4 -10 -10 -10 -5 0 -10 5
-10 10 0 6 5 10 10 10 6 0 10 -4 10 -10z m-3234 -37 c-10 -10 -19 5 -10 18 6
11 8 11 12 0 2 -7 1 -15 -2 -18z m-206 -8 c0 -8 -6 -15 -14 -15 -17 0 -28 14
-19 24 12 12 33 6 33 -9z m3672 -37 l-22 -22 0 21 c0 12 3 29 6 38 6 15 8 15
23 1 14 -15 13 -18 -7 -38z m198 22 c0 -5 -5 -10 -11 -10 -5 0 -7 5 -4 10 3 6
8 10 11 10 2 0 4 -4 4 -10z m258 -2 c19 -19 14 -46 -9 -53 -23 -8 -39 7 -39
36 0 30 26 39 48 17z m-4378 -18 c0 -5 -4 -10 -10 -10 -5 0 -10 5 -10 10 0 6
5 10 10 10 6 0 10 -4 10 -10z m3738 -2 c-3 -7 -11 -13 -18 -13 -7 0 -15 6 -17
13 -3 7 4 12 17 12 13 0 20 -5 18 -12z m-118 -48 c0 -5 -4 -10 -10 -10 -5 0
-10 5 -10 10 0 6 5 10 10 10 6 0 10 -4 10 -10z m470 -5 c19 -22 -6 -81 -27
-63 -26 21 -35 48 -22 64 15 18 33 18 49 -1z m-274 -36 c8 -14 -21 -43 -35
-35 -8 5 -8 13 -1 27 12 21 25 25 36 8z m-3158 -17 c2 -7 -3 -12 -12 -12 -9 0
-16 7 -16 16 0 17 22 14 28 -4z m-704 2 c20 -8 9 -34 -15 -34 -12 0 -19 7 -19
20 0 21 8 24 34 14z m3766 -8 c0 -24 -26 -39 -49 -26 -36 19 -23 37 27 39 12
1 22 -5 22 -13z m620 -11 c0 -8 -2 -15 -4 -15 -2 0 -6 7 -10 15 -3 8 -1 15 4
15 6 0 10 -7 10 -15z m-4496 -4 c3 -5 0 -14 -8 -20 -10 -9 -15 -8 -19 3 -9 22
15 37 27 17z m4386 -37 c0 -16 -16 -19 -25 -4 -8 13 4 32 16 25 5 -4 9 -13 9
-21z m-340 6 c0 -12 -28 -25 -36 -17 -9 9 6 27 22 27 8 0 14 -5 14 -10z m250
0 c17 -10 14 -15 -17 -24 -22 -7 -39 7 -28 24 8 12 25 13 45 0z m-365 -30 c0
-20 -6 -26 -28 -28 -16 -2 -38 -13 -49 -24 l-21 -21 -19 23 c-16 20 -17 25 -5
38 11 11 19 11 35 3 17 -9 23 -6 37 15 20 32 50 28 50 -6z m-3045 -4 c0 -21
-21 -31 -30 -15 -5 7 -6 17 -4 21 9 14 34 9 34 -6z m-740 -20 c0 -8 -4 -17 -8
-20 -13 -8 -35 11 -28 23 10 16 36 14 36 -3z m3977 -62 c7 -19 -20 -49 -36
-40 -12 8 -15 39 -4 49 12 12 33 7 40 -9z m208 6 c-3 -5 -10 -10 -16 -10 -5 0
-9 5 -9 10 0 6 7 10 16 10 8 0 12 -4 9 -10z m-115 -10 c0 -5 -2 -10 -4 -10 -3
0 -8 5 -11 10 -3 6 -1 10 4 10 6 0 11 -4 11 -10z m-3770 -15 c0 -8 -4 -15 -10
-15 -5 0 -10 7 -10 15 0 8 5 15 10 15 6 0 10 -7 10 -15z m3466 0 c4 -8 0 -22
-7 -31 -12 -14 -14 -14 -26 2 -9 13 -10 21 -2 31 15 17 28 17 35 -2z m-3306
-55 c0 -5 -4 -10 -10 -10 -5 0 -10 5 -10 10 0 6 5 10 10 10 6 0 10 -4 10 -10z
m3400 -20 c0 -5 -4 -10 -10 -10 -5 0 -10 5 -10 10 0 6 5 10 10 10 6 0 10 -4
10 -10z m-3627 -48 c-6 -25 -21 -25 -37 0 -7 12 -6 21 4 33 18 22 42 -1 33
-33z m3813 37 c3 -6 -3 -20 -14 -32 -19 -19 -22 -19 -28 -4 -13 35 23 66 42
36z m-4056 -28 c8 -16 6 -21 -11 -26 -25 -8 -44 7 -36 29 9 22 34 20 47 -3z
m568 -41 c-4 -21 -42 -19 -46 3 -2 10 2 25 9 33 12 14 14 14 26 -2 8 -10 12
-25 11 -34z m-91 -214 c-4 -9 -11 -16 -17 -16 -17 0 -24 31 -9 41 18 11 34 -5
26 -25z m-117 -6 c0 -5 -4 -10 -10 -10 -5 0 -10 5 -10 10 0 6 5 10 10 10 6 0
10 -4 10 -10z"/>
</g>
</svg>
