<?xml version="1.0" standalone="no"?>
<!DOCTYPE svg PUBLIC "-//W3C//DTD SVG 20010904//EN"
 "http://www.w3.org/TR/2001/REC-SVG-20010904/DTD/svg10.dtd">
<svg version="1.0" xmlns="http://www.w3.org/2000/svg"
 width="512.000000pt" height="512.000000pt" viewBox="0 0 512.000000 512.000000"
 preserveAspectRatio="xMidYMid meet">
<metadata>
Created by potrace 1.11, written by Peter Selinger 2001-2013
</metadata>
<g transform="translate(0.000000,512.000000) scale(0.100000,-0.100000)"
fill="#000000" stroke="none">
<path d="M2331 5109 c-470 -42 -929 -220 -1320 -512 -124 -92 -396 -364 -488
-488 -594 -796 -688 -1836 -244 -2707 133 -259 258 -429 476 -647 218 -218
388 -343 647 -476 872 -445 1910 -351 2707 244 124 92 396 364 488 488 486
650 641 1458 428 2232 -83 305 -229 600 -428 866 -93 124 -365 396 -490 490
-517 386 -1144 566 -1776 510z m147 -137 c2 -7 -2 -10 -12 -6 -9 3 -16 11 -16
16 0 13 23 5 28 -10z m-273 -12 c0 -23 -49 -20 -53 3 -3 15 2 18 25 15 17 -2
28 -9 28 -18z m455 -1 c0 -5 -7 -9 -15 -9 -15 0 -20 12 -9 23 8 8 24 -1 24
-14z m190 -30 c0 -5 -9 -9 -20 -9 -19 0 -27 20 -13 33 7 8 33 -11 33 -24z
m194 -46 c35 -25 37 -28 18 -31 -28 -4 -115 35 -107 48 11 18 48 11 89 -17z
m116 17 c0 -5 -7 -10 -16 -10 -8 0 -12 5 -9 10 3 6 10 10 16 10 5 0 9 -4 9
-10z m-510 -21 c199 -18 375 -55 470 -99 130 -59 341 -141 350 -135 5 3 12 1
15 -5 4 -6 25 -22 48 -37 37 -23 44 -24 74 -14 27 10 37 10 49 0 19 -15 0 -40
-24 -32 -42 15 11 -20 118 -77 242 -130 377 -231 506 -378 85 -97 207 -264
262 -360 25 -42 41 -61 51 -57 19 7 61 -21 61 -42 0 -9 -7 -24 -15 -33 -13
-14 -10 -26 24 -105 58 -136 149 -415 150 -460 1 -57 16 -110 29 -108 11 3 35
-64 48 -133 5 -27 3 -34 -10 -34 -11 0 -16 9 -16 28 0 15 -7 47 -15 72 -11 33
-14 37 -11 13 20 -127 28 -275 23 -420 -4 -141 -10 -190 -36 -303 -28 -117
-30 -140 -20 -172 10 -31 8 -47 -11 -110 -26 -87 -47 -129 -61 -125 -6 1 -21
-25 -33 -58 -12 -34 -34 -82 -48 -107 -17 -31 -22 -50 -16 -56 12 -12 2 -32
-17 -32 -7 0 -17 -10 -20 -22 -4 -13 -19 -35 -32 -50 -24 -25 -24 -27 -4 -21
25 6 27 -7 6 -47 -10 -19 -11 -31 -5 -35 6 -4 8 -11 4 -16 -3 -5 -9 -7 -14 -4
-5 3 -19 0 -30 -7 -17 -11 -22 -11 -30 2 -7 12 -12 12 -29 -4 -23 -20 -47 -84
-36 -94 4 -4 13 2 21 12 7 11 17 16 21 12 5 -4 1 -13 -8 -19 -8 -7 -18 -20
-22 -30 -3 -9 -11 -16 -16 -15 -5 2 -37 -28 -70 -67 -43 -49 -56 -71 -46 -73
8 -2 15 -5 15 -7 0 -17 -21 -41 -72 -86 -51 -44 -60 -49 -55 -30 6 23 5 23
-24 -5 -21 -20 -26 -30 -17 -36 17 -11 -31 -54 -75 -66 -17 -5 -68 -36 -112
-69 -44 -33 -116 -82 -160 -109 -44 -26 -96 -60 -115 -75 -19 -15 -42 -26 -50
-26 -8 0 -46 -14 -85 -30 -38 -17 -98 -41 -132 -53 -35 -12 -60 -26 -57 -31 2
-4 -8 -8 -23 -7 -15 1 -85 -15 -155 -35 -70 -20 -166 -43 -215 -53 -48 -9 -96
-24 -107 -33 -15 -13 -39 -16 -120 -14 -66 2 -119 -2 -152 -12 -55 -16 -151
-11 -394 21 -148 19 -196 30 -355 85 -66 22 -147 48 -181 58 -34 10 -81 31
-105 48 -24 17 -84 52 -132 78 -49 26 -118 67 -155 92 -165 113 -412 338 -517
472 -26 34 -52 61 -56 61 -5 0 -9 7 -9 15 0 8 -9 15 -20 15 -22 0 -40 27 -40
62 -1 13 -14 41 -29 63 -53 73 -169 318 -207 436 -28 87 -42 118 -58 125 -21
9 -22 15 -10 86 6 36 5 37 -22 35 -21 -1 -29 3 -32 17 -3 15 1 18 23 14 26 -5
26 -5 20 36 -4 22 -11 46 -15 51 -4 6 -12 30 -18 55 -9 35 -8 49 2 65 17 26 7
100 -14 100 -35 0 -61 173 -38 260 11 42 17 50 36 49 18 0 22 5 22 32 0 26 -4
32 -15 28 -12 -5 -15 5 -15 54 0 34 5 85 12 114 l12 53 12 -50 12 -50 1 41 c1
55 29 211 51 293 12 41 15 70 9 76 -16 16 -10 45 13 54 16 6 30 34 59 117 23
66 35 119 32 135 -6 29 26 100 55 121 9 7 33 44 52 83 79 157 252 389 404 541
158 157 383 311 586 400 137 60 433 160 515 173 176 29 404 37 585 20z m604
-25 c26 -10 20 -44 -8 -44 -30 0 -42 16 -26 35 14 17 13 17 34 9z m-1593 -24
c16 -9 28 -40 14 -40 -16 0 -55 26 -55 37 0 16 14 17 41 3z m1515 -35 c19 -14
19 -14 -2 -15 -12 0 -27 7 -34 15 -17 20 9 21 36 0z m-1655 -35 c24 -13 25
-30 2 -30 -19 1 -53 22 -53 34 0 9 29 7 51 -4z m-146 -70 c3 -5 -1 -10 -9 -10
-9 0 -16 5 -16 10 0 6 4 10 9 10 6 0 13 -4 16 -10z m-915 -945 c11 -13 8 -15
-14 -15 -16 0 -26 5 -26 15 0 8 6 15 14 15 7 0 19 -7 26 -15z m-106 -161 c23
-9 20 -34 -3 -34 -22 0 -35 15 -26 30 7 12 8 12 29 4z m-14 -105 c0 -11 -27
-12 -34 0 -3 4 -3 11 0 14 8 8 34 -3 34 -14z m-104 -257 c-22 -5 -30 3 -21 18
5 8 11 7 22 -2 15 -12 14 -13 -1 -16z m-36 -202 c0 -5 -4 -10 -10 -10 -5 0
-10 5 -10 10 0 6 5 10 10 10 6 0 10 -4 10 -10z m5 -190 c3 -5 -3 -10 -14 -10
-12 0 -21 5 -21 10 0 6 6 10 14 10 8 0 18 -4 21 -10z m4694 -330 c0 -28 -2
-31 -9 -15 -5 11 -8 45 -8 75 0 55 0 55 9 15 4 -22 8 -56 8 -75z m36 -329 c3
-5 1 -12 -5 -16 -5 -3 -10 1 -10 9 0 18 6 21 15 7z m-24 -158 c-9 -15 -10 -11
-11 19 0 54 14 83 18 36 2 -21 -1 -46 -7 -55z m-71 -163 c0 -32 -19 -80 -32
-80 -10 0 -10 21 -2 73 8 45 34 51 34 7z m-39 -247 c-10 -17 -10 -16 -11 3 0
23 13 41 18 25 2 -6 -1 -18 -7 -28z m-31 -81 c0 -5 -7 -17 -15 -28 -14 -18
-14 -18 -15 9 0 17 5 27 15 27 8 0 15 -4 15 -8z m-4416 -48 c19 -18 12 -34
-14 -34 -22 0 -34 15 -26 35 7 19 21 19 40 -1z m124 -94 c50 -36 57 -70 15
-70 -50 0 -116 61 -98 90 11 18 41 11 83 -20z m855 -852 c18 -14 29 -29 25
-33 -9 -10 -59 19 -92 54 l-29 30 32 -12 c18 -6 47 -24 64 -39z m72 -49 c12
-19 -5 -23 -22 -6 -16 16 -16 17 -1 17 9 0 20 -5 23 -11z m2215 -3 c0 -3 -4
-8 -10 -11 -5 -3 -10 -1 -10 4 0 6 5 11 10 11 6 0 10 -2 10 -4z m-2150 -46 c0
-5 -2 -10 -4 -10 -3 0 -8 5 -11 10 -3 6 -1 10 4 10 6 0 11 -4 11 -10z m1895
-70 c-3 -5 -11 -10 -16 -10 -6 0 -7 5 -4 10 3 6 11 10 16 10 6 0 7 -4 4 -10z
m-55 -10 c0 -13 -38 -32 -51 -25 -14 10 9 35 32 35 11 0 19 -4 19 -10z m-1322
-77 c2 -8 -5 -13 -17 -13 -12 0 -21 6 -21 16 0 18 31 15 38 -3z m-138 -13 c0
-5 -4 -10 -9 -10 -6 0 -13 5 -16 10 -3 6 1 10 9 10 9 0 16 -4 16 -10z m530
-76 c0 -11 -8 -14 -32 -12 -46 4 -49 28 -4 28 26 0 36 -4 36 -16z m219 -10 c1
-1 0 -7 -4 -13 -14 -24 -175 -5 -175 20 0 9 168 2 179 -7z m328 0 c-3 -3 -12
-4 -19 -1 -8 3 -5 6 6 6 11 1 17 -2 13 -5z m-237 -14 c0 -5 -7 -10 -15 -10 -8
0 -15 5 -15 10 0 6 7 10 15 10 8 0 15 -4 15 -10z"/>
<path d="M1985 4800 c-142 -28 -172 -39 -370 -128 -195 -87 -238 -112 -221
-129 3 -4 59 19 123 49 65 30 145 66 178 79 33 12 62 26 65 30 3 4 25 10 49
13 25 3 49 10 55 16 5 5 19 10 31 10 11 0 40 9 64 20 28 13 72 22 120 24 73 3
131 20 131 38 0 14 -81 7 -225 -22z"/>
<path d="M2564 4753 c-4 -15 -2 -35 5 -46 11 -16 9 -23 -15 -48 -50 -52 -94
-46 -94 12 0 20 -5 29 -16 29 -9 0 -14 6 -11 13 2 6 18 12 36 12 23 0 31 4 29
15 -4 21 -93 24 -123 4 -17 -11 -29 -12 -49 -5 -14 6 -26 15 -26 21 0 24 -52
8 -92 -30 -37 -34 -50 -40 -88 -41 -25 0 -71 -1 -103 -1 -37 -1 -62 3 -66 11
-6 9 -24 -2 -61 -38 -52 -50 -53 -50 -114 -48 -33 1 -64 6 -67 10 -3 5 -21 2
-40 -7 -28 -12 -30 -15 -11 -15 28 -1 28 -14 0 -34 -23 -16 -23 -16 9 -10 25
4 34 1 39 -11 5 -13 14 -15 34 -11 42 9 44 -9 5 -28 -23 -11 -35 -24 -35 -37
0 -16 -7 -20 -32 -20 -17 0 -56 -14 -87 -31 -68 -39 -104 -50 -122 -38 -11 8
-9 14 11 30 14 12 24 28 22 36 -2 8 2 21 9 29 9 11 9 17 0 28 -8 10 -9 16 -1
21 5 3 10 10 10 16 0 5 -22 -2 -49 -16 -49 -24 -49 -25 -38 -55 9 -25 9 -33
-5 -46 -20 -21 -61 -12 -74 15 -9 20 -10 20 -33 2 -24 -18 -24 -20 -8 -44 12
-18 13 -27 4 -36 -17 -17 -37 -13 -37 8 0 11 -4 22 -9 26 -19 11 -169 -104
-266 -204 -93 -97 -97 -102 -57 -82 34 17 53 21 84 16 35 -6 39 -10 34 -29 -3
-11 -6 -29 -6 -38 0 -10 -10 -20 -25 -24 -13 -3 -34 -21 -46 -40 -22 -36 -48
-48 -95 -42 -30 3 -32 12 -18 78 l5 24 -21 -19 c-43 -39 -44 -53 -6 -95 49
-54 60 -78 45 -96 -17 -21 -25 -17 -24 14 0 23 -4 27 -25 24 -46 -6 -75 -6
-90 1 -10 5 -22 -4 -38 -29 -22 -34 -23 -37 -8 -69 9 -18 16 -43 16 -55 0 -32
-40 -137 -57 -151 -21 -18 -27 -3 -15 38 9 30 9 42 -4 60 -18 29 -28 29 -40 2
-7 -16 -3 -42 16 -98 l26 -76 -40 -36 c-29 -26 -40 -44 -41 -65 0 -25 -4 -29
-25 -26 -24 2 -25 0 -22 -39 3 -30 -1 -48 -15 -67 -38 -51 -54 -93 -48 -121 4
-19 0 -35 -16 -55 -17 -21 -20 -35 -15 -69 3 -23 6 -46 7 -52 3 -24 -21 -174
-32 -198 -9 -21 -9 -30 0 -41 8 -10 10 -27 5 -48 -4 -18 -6 -66 -5 -106 1 -40
-3 -80 -8 -90 -6 -12 -5 -23 5 -37 8 -10 14 -29 14 -41 0 -12 7 -35 15 -50 17
-33 19 -54 6 -54 -14 0 -23 -37 -16 -60 3 -11 13 -20 21 -20 17 0 20 -110 3
-127 -17 -17 -1 -82 27 -108 13 -12 30 -40 38 -61 8 -21 26 -66 40 -99 14 -33
26 -74 26 -91 0 -19 5 -31 13 -30 6 0 12 -3 12 -9 0 -5 -3 -9 -7 -8 -19 7 -5
-37 27 -87 26 -41 41 -54 55 -52 15 3 20 -2 20 -20 0 -13 -5 -29 -11 -35 -13
-13 30 -103 66 -139 13 -13 27 -34 30 -46 15 -48 26 -51 62 -16 27 26 37 30
51 22 25 -16 27 -53 4 -84 -21 -28 -19 -38 13 -56 11 -6 20 -19 20 -28 0 -9
13 -25 30 -36 16 -10 36 -34 45 -52 11 -23 24 -34 45 -38 24 -4 34 -15 52 -52
16 -34 42 -61 97 -103 42 -31 78 -61 82 -66 15 -25 126 -89 153 -89 23 0 34
-7 48 -30 17 -30 33 -39 33 -20 0 11 33 13 68 4 24 -7 29 -33 11 -51 -9 -9 -5
-14 14 -18 14 -4 31 -4 37 0 5 3 13 -1 16 -9 3 -9 10 -16 15 -16 5 0 69 -22
142 -49 151 -56 288 -94 403 -111 44 -6 96 -16 117 -21 20 -6 81 -12 135 -16
90 -5 98 -4 116 16 25 28 61 27 97 -3 l29 -24 60 18 c33 10 79 21 102 25 22 4
56 14 74 21 18 8 56 14 83 14 27 0 52 4 56 9 3 5 27 17 53 27 26 10 60 29 76
42 23 19 36 22 63 17 25 -4 40 -1 59 14 14 11 51 25 82 32 31 6 61 18 65 26 5
8 29 23 54 34 66 28 209 124 273 182 30 28 92 74 137 104 49 31 93 68 108 91
14 21 50 59 79 85 56 48 156 180 156 204 0 8 13 26 29 41 15 15 31 39 35 53 8
34 93 130 110 123 7 -3 23 15 39 44 33 60 35 77 5 32 -26 -38 -37 -44 -58 -30
-12 8 -13 13 -2 27 6 10 16 28 21 40 6 12 16 25 23 30 20 13 62 139 89 268 6
28 19 64 30 81 25 41 24 94 -2 128 l-20 26 25 10 c22 8 26 16 26 52 0 42 12
132 25 194 6 26 3 32 -20 42 -22 10 -26 17 -20 35 4 12 7 37 7 56 0 19 6 44
14 55 8 11 14 43 14 71 1 71 -58 373 -81 417 -10 20 -19 54 -19 75 0 21 -8 52
-18 68 -10 17 -25 48 -34 70 -9 22 -39 83 -68 135 -29 52 -77 140 -106 196
-30 56 -72 122 -95 148 -22 25 -44 58 -48 73 -4 16 -26 40 -51 58 -32 22 -45
38 -45 56 0 20 -6 25 -40 29 -29 4 -41 10 -45 26 -7 31 -88 141 -135 186 -24
23 -54 40 -75 44 -58 9 -63 12 -58 39 7 34 -13 48 -73 51 -55 3 -69 -9 -49
-45 6 -12 7 -21 3 -22 -10 -1 -60 -7 -92 -11 -20 -2 -26 3 -33 27 -10 38 -4
55 22 55 11 0 20 5 20 10 0 6 -7 10 -15 10 -8 0 -24 9 -36 21 -13 13 -27 18
-40 14 -13 -4 -21 -1 -25 10 -18 47 63 52 128 8 31 -21 50 -28 59 -22 11 7 9
13 -11 29 -35 28 -380 200 -401 200 -10 0 -21 5 -24 10 -3 6 -28 10 -56 10
-37 0 -49 -4 -49 -15 0 -8 12 -17 28 -21 15 -3 44 -12 65 -20 20 -8 47 -14 60
-14 12 -1 33 -10 46 -21 22 -18 23 -22 11 -45 -17 -30 -46 -28 -42 4 4 25 6
24 -122 22 -68 -1 -82 1 -95 18 -13 16 -24 19 -59 13 l-43 -6 61 -28 c62 -30
82 -55 33 -42 -16 4 -74 15 -131 26 -57 10 -108 21 -113 24 -19 12 -8 25 20
25 16 0 42 5 58 11 27 11 27 11 6 19 -12 5 -26 16 -31 26 -6 12 -17 15 -32 11
-28 -7 -60 8 -60 28 0 20 132 21 192 1 66 -21 107 -26 114 -15 3 6 1 16 -5 22
-16 16 -263 56 -283 46 -27 -14 -64 -10 -89 9 -13 11 -41 22 -61 25 -35 5 -39
3 -44 -20z m-234 -78 c0 -8 -11 -22 -25 -31 -20 -13 -28 -14 -40 -4 -22 18
-19 27 13 38 39 15 52 14 52 -3z m-120 -25 c0 -5 -9 -10 -21 -10 -11 0 -17 5
-14 10 3 6 13 10 21 10 8 0 14 -4 14 -10z m-310 -30 c0 -5 -4 -10 -10 -10 -5
0 -10 5 -10 10 0 6 5 10 10 10 6 0 10 -4 10 -10z m525 -29 c3 -5 1 -13 -5 -16
-15 -9 -43 3 -35 15 8 13 32 13 40 1z m303 -3 c-3 -7 -11 -13 -18 -13 -7 0
-15 6 -17 13 -3 7 4 12 17 12 13 0 20 -5 18 -12z m-592 -33 c9 -23 -15 -45
-48 -45 -25 0 -29 4 -26 22 2 14 13 25 28 29 38 11 40 10 46 -6z m79 5 c-3 -5
-10 -10 -16 -10 -5 0 -9 5 -9 10 0 6 7 10 16 10 8 0 12 -4 9 -10z m-305 -85
c0 -20 -50 -32 -60 -14 -13 19 -2 29 31 29 19 0 29 -5 29 -15z m-573 -67 c-3
-8 -6 -5 -6 6 -1 11 2 17 5 13 3 -3 4 -12 1 -19z m2068 -28 c3 -5 1 -10 -4
-10 -6 0 -11 5 -11 10 0 6 2 10 4 10 3 0 8 -4 11 -10z m-1835 -29 c0 -12 -20
-25 -27 -18 -7 7 6 27 18 27 5 0 9 -4 9 -9z m-250 -60 c0 -6 -12 -16 -27 -23
-15 -7 -34 -26 -41 -41 -7 -15 -21 -27 -31 -27 -9 0 -39 -21 -65 -46 -55 -52
-80 -49 -51 8 10 18 21 40 25 48 10 21 70 61 82 54 5 -3 17 1 26 9 29 25 82
36 82 18z m-140 -151 c0 -5 -4 -10 -10 -10 -5 0 -10 5 -10 10 0 6 5 10 10 10
6 0 10 -4 10 -10z m2820 -76 c0 -14 -3 -14 -15 -4 -8 7 -15 14 -15 16 0 2 7 4
15 4 8 0 15 -7 15 -16z m-1694 -250 c30 -3 60 -1 72 5 15 8 23 7 31 -3 7 -9
51 -15 138 -19 163 -8 195 -17 222 -62 23 -40 40 -44 67 -14 23 26 96 59 132
59 14 0 35 9 47 20 18 17 35 20 126 20 57 0 127 -2 155 -6 30 -3 60 -1 72 5
15 8 23 7 31 -3 7 -9 51 -15 133 -20 145 -7 198 -18 212 -43 5 -10 23 -31 39
-47 26 -26 29 -37 34 -115 l5 -86 -34 -32 c-18 -18 -47 -46 -65 -63 -36 -35
-72 -39 -98 -10 -10 11 -26 20 -35 20 -9 0 -27 11 -40 25 -13 14 -33 25 -45
25 -12 0 -34 13 -50 30 -15 16 -40 32 -56 35 -15 4 -31 15 -34 24 -11 35 -86
54 -200 49 -123 -4 -131 -10 -185 -115 -19 -37 -38 -69 -42 -71 -14 -6 -9
-189 7 -247 l14 -57 -29 -36 c-27 -34 -29 -41 -23 -95 5 -51 10 -61 42 -87
l36 -30 191 0 c189 0 191 0 218 -25 40 -37 36 -92 -11 -155 l-38 -50 -90 6
c-76 5 -98 2 -141 -14 -28 -11 -71 -23 -97 -27 -36 -6 -47 -12 -47 -25 0 -10
-10 -24 -21 -32 l-22 -14 22 -42 c21 -41 22 -55 22 -352 0 -191 -4 -317 -10
-328 -8 -15 -6 -23 9 -37 17 -16 20 -32 20 -119 1 -65 5 -107 13 -117 7 -9 46
-27 87 -39 109 -32 164 -95 146 -166 l-7 -26 -97 7 c-89 5 -263 -5 -355 -21
-23 -4 -43 -2 -51 5 -11 9 -28 7 -75 -9 -73 -24 -111 -25 -171 -2 -45 17 -45
18 -52 77 -7 54 -5 63 21 109 23 41 34 52 57 54 57 5 72 12 98 46 21 29 28 52
36 132 9 84 8 100 -6 115 -13 14 -13 20 -3 38 11 16 11 27 1 54 -17 47 -15
258 3 332 18 76 18 75 -1 75 -12 0 -14 5 -8 18 5 9 10 81 12 160 l3 142 -91 0
c-69 0 -100 5 -131 19 -39 19 -39 19 -50 -1 -10 -19 -17 -20 -100 -13 -75 5
-97 3 -141 -13 -29 -11 -72 -23 -96 -27 -32 -5 -45 -13 -52 -30 -5 -13 -16
-28 -25 -33 -16 -8 -16 -12 1 -43 17 -31 28 -159 32 -394 0 -5 -3 -80 -7 -165
-5 -121 -4 -157 6 -166 9 -8 13 -42 13 -110 0 -125 6 -135 104 -164 99 -30
139 -69 140 -137 l1 -47 -196 -2 c-133 -1 -208 -6 -232 -15 -29 -10 -44 -10
-69 -1 -27 9 -42 8 -88 -8 -67 -24 -112 -24 -169 -2 -41 16 -43 20 -48 62 -8
75 -6 86 22 134 25 43 29 46 70 46 47 0 61 10 93 62 28 46 41 218 18 237 -12
10 -13 17 -3 31 9 15 8 27 -1 53 -20 57 -15 224 13 370 6 31 4 37 -9 37 -13 0
-15 4 -6 19 5 11 10 83 10 160 l0 141 -89 0 c-139 0 -171 21 -171 115 0 29 79
89 130 100 64 13 70 20 70 81 0 39 6 63 19 79 15 20 19 50 25 166 6 120 11
146 28 170 13 17 23 51 27 91 7 67 23 105 53 126 10 7 18 24 18 38 0 15 6 24
15 24 8 0 15 8 15 18 0 46 130 132 199 132 15 0 36 9 46 19 24 27 124 32 271
15z m-1544 -9 c0 -5 -5 -11 -11 -13 -6 -2 -11 4 -11 13 0 9 5 15 11 13 6 -2
11 -8 11 -13z m3543 -154 c0 -24 -5 -46 -11 -48 -13 -4 -34 40 -34 73 0 21 4
25 23 22 19 -3 22 -9 22 -47z m253 -1667 c-4 -21 -39 -26 -45 -8 -2 7 4 19 13
28 19 20 38 8 32 -20z m-98 -24 c0 -5 -4 -10 -10 -10 -5 0 -10 5 -10 10 0 6 5
10 10 10 6 0 10 -4 10 -10z m0 -204 c0 -7 -7 -19 -15 -26 -12 -10 -15 -9 -15
7 0 11 3 23 7 26 11 12 23 8 23 -7z m-30 -56 c0 -14 -66 -145 -98 -192 -16
-25 -29 -35 -35 -29 -6 6 12 49 53 120 56 100 80 130 80 101z m-150 -259 c0
-11 -98 -149 -152 -213 -34 -41 -68 -62 -68 -43 0 18 34 66 59 84 16 12 55 57
88 101 54 74 73 93 73 71z m-254 -316 c-15 -23 -36 -34 -36 -18 0 10 43 54 48
48 3 -2 -3 -16 -12 -30z m-58 -67 c-6 -18 -28 -21 -28 -4 0 9 7 16 16 16 9 0
14 -5 12 -12z m-79 -64 c-13 -14 -25 -20 -27 -14 -7 20 7 40 29 40 l22 0 -24
-26z m-94 -64 c3 -5 -1 -10 -10 -10 -9 0 -13 5 -10 10 3 6 8 10 10 10 2 0 7
-4 10 -10z m-35 -29 c0 -15 -68 -63 -82 -58 -8 2 -1 15 21 35 32 31 61 42 61
23z m-170 -121 c0 -13 -7 -20 -20 -20 -19 0 -27 20 -13 33 13 14 33 6 33 -13z
m-1800 -66 c0 -16 -26 -19 -35 -4 -3 6 -4 14 0 20 8 13 35 1 35 -16z m1698 9
c-2 -11 -14 -19 -31 -21 -30 -4 -36 12 -9 27 26 16 44 13 40 -6z m-83 -33
c-10 -12 -33 -29 -50 -40 -35 -22 -118 -43 -109 -28 6 9 161 88 173 88 2 0 -4
-9 -14 -20z m-470 -80 c3 -6 -1 -13 -10 -16 -19 -8 -30 0 -20 15 8 14 22 14
30 1z m255 -20 c-29 -23 -122 -53 -148 -48 -9 2 18 18 63 36 94 37 121 41 85
12z m-570 -30 c0 -5 -7 -10 -16 -10 -8 0 -12 5 -9 10 3 6 10 10 16 10 5 0 9
-4 9 -10z m60 -6 c0 -9 -7 -14 -17 -12 -25 5 -28 28 -4 28 12 0 21 -6 21 -16z
m530 -9 c0 -9 -6 -12 -15 -9 -8 4 -12 10 -9 15 8 14 24 10 24 -6z m-230 -20
c0 -8 -9 -15 -20 -15 -20 0 -26 11 -13 23 12 13 33 7 33 -8z m-66 -26 c-3 -5
-10 -7 -15 -3 -5 3 -7 10 -3 15 3 5 10 7 15 3 5 -3 7 -10 3 -15z m-164 -39
c13 -9 13 -11 0 -19 -17 -12 -30 -5 -30 15 0 16 9 18 30 4z"/>
<path d="M2085 3600 c-38 -15 -115 -119 -115 -154 0 -8 -7 -19 -16 -27 -12
-10 -14 -31 -11 -113 2 -56 10 -123 17 -150 11 -43 10 -50 -4 -58 -26 -14 -40
-50 -37 -96 3 -62 15 -87 54 -111 32 -19 48 -21 217 -21 154 0 186 -3 211 -17
16 -10 29 -20 29 -24 0 -4 17 2 37 12 21 10 47 19 59 19 37 0 54 26 54 84 0
38 6 61 20 79 18 22 20 40 20 152 0 111 3 130 22 164 l21 38 -21 21 c-12 12
-30 22 -40 22 -10 0 -29 11 -42 25 -13 14 -31 25 -40 25 -9 0 -27 11 -40 25
-13 14 -41 30 -62 37 -21 6 -40 19 -43 29 -10 31 -77 49 -178 48 -50 0 -101
-4 -112 -9z"/>
<path d="M1578 4579 c-15 -8 -16 -13 -5 -29 17 -28 24 -25 29 10 5 32 2 35
-24 19z"/>
<path d="M272 2770 c0 -19 2 -27 5 -17 2 9 2 25 0 35 -3 9 -5 1 -5 -18z"/>
</g>
</svg>
