<svg xmlns="http://www.w3.org/2000/svg" viewBox="0 0 51 50"><g fill="none" fill-rule="nonzero"><path fill="#006FCF" d="M47.257 31.24v-4.166h2.75V0h-50v19.218l2.024-2.187-.524 7.24h-1.5V50h50V35.37c-.077.045-2.67.065-2.75.104V31.24z"/><path fill="#FFF" d="M50.022 35.364v-8.29H19.359l-.8 1.136-.808-1.136H8.854v8.787h8.863l.791-1.161.817 1.161h5.564v-1.936h-.169a5.47 5.47 0 0 0 1.995-.369v2.305h4.023v-1.069l.809 1.07H48.11c.724 0 1.372-.178 1.91-.498zM43.86 24.27h3.796v-8.787h-4.116v1.229l-.783-1.23h-3.585v1.59l-.699-1.59H32.7c-.253 0-.502.017-.746.05-.243.034-.48.084-.71.152a4.331 4.331 0 0 0-.505.183 3.969 3.969 0 0 0-.505.264v-.648H11.388l-.505 1.473-.505-1.473H5.883v1.589l-.698-1.59H1.608L0 19.255v5.016h2.517L3.005 23h.858l.489 1.27h19.662v-1.069l.808 1.07h5.412v-.603c.15.09.305.167.463.234.157.067.318.124.48.171.222.065.447.112.67.144.26.037.516.053.76.053h3.199l.488-1.27h.859l.488 1.27h5.513v-1.094l.707 1.094z"/><path fill="#006FCF" d="M15.024 29.717V28.52h-4.646v5.892h4.646v-1.195h-3.3V32.04h3.224v-1.17h-3.224v-1.153h3.3zm4.983 4.696h1.692l-2.357-2.971 2.34-2.92H20.04L18.56 30.44l-1.481-1.919h-1.692l2.357 2.946-2.349 2.946h1.641l1.482-1.944 1.49 1.944zm2.07-5.892v5.892h1.347v-1.97h1.793c1.28 0 2.07-.833 2.07-1.96 0-1.162-.774-1.962-2.02-1.962h-3.19zm3.855 1.97c0 .42-.27.758-.782.758h-1.726v-1.532h1.726c.513 0 .782.345.782.774zm3.577 1.776h.682l1.81 2.146h1.692l-1.953-2.197c1.002-.185 1.59-.892 1.59-1.81 0-1.119-.774-1.885-2.02-1.885h-3.147v5.892h1.346v-2.146zm1.684-2.55c.513 0 .783.311.783.698 0 .379-.27.699-.783.699h-1.684v-1.397h1.684zm7.617 0V28.52h-4.646v5.892h4.646v-1.195h-3.3V32.04h3.224v-1.17h-3.223v-1.153h3.3zm3.88 3.501h-3.005v1.195h2.93c1.27 0 2.028-.766 2.028-1.852 0-1.068-.698-1.691-1.826-1.691h-1.339c-.353 0-.606-.228-.606-.581 0-.345.253-.572.606-.572h2.525l.53-1.196h-2.979c-1.27 0-2.028.775-2.028 1.827 0 1.086.715 1.709 1.826 1.709h1.338c.354 0 .606.227.606.589 0 .345-.252.572-.606.572zm5.48 0h-3.005v1.195h2.93c1.27 0 2.028-.766 2.028-1.852 0-1.068-.699-1.691-1.827-1.691h-1.338c-.354 0-.606-.228-.606-.581 0-.345.252-.572.606-.572h2.525l.53-1.196h-2.98c-1.27 0-2.028.775-2.028 1.827 0 1.086.716 1.709 1.827 1.709h1.338c.353 0 .606.227.606.589 0 .345-.253.572-.606.572zM5.379 22.822h1.49l-2.517-5.891H2.559L.034 22.822H1.49l.505-1.27h2.879l.505 1.27zm-2.4-3.754l.447-1.237.454 1.237.539 1.356H2.441l.539-1.356zm7.307 3.754h1.17l1.7-4.772v4.772h1.33v-5.891h-2.222l-1.38 3.98-1.381-3.98h-2.24v5.891h1.33V18.05l1.693 4.772zm10.075-4.696V16.93h-4.647v5.891h4.647v-1.195h-3.3V20.45h3.224v-1.17h-3.224v-1.153h3.3zm2.424 2.55h.682l1.81 2.146h1.691l-1.953-2.196c1.002-.186 1.591-.893 1.591-1.81 0-1.12-.774-1.885-2.02-1.885h-3.148v5.891h1.347v-2.146zm1.683-2.55c.514 0 .783.311.783.698 0 .38-.27.699-.783.699h-1.683v-1.397h1.683zm2.971 4.696h1.347v-5.891H27.44V22.823zm5.008 0h.051l.555-1.203h-.387c-.993 0-1.574-.623-1.574-1.692v-.101c0-.951.53-1.667 1.558-1.667h1.49v-1.228h-1.6c-1.793 0-2.794 1.22-2.794 2.887v.117c0 1.709 1.001 2.87 2.701 2.887zm6.22 0h1.49l-2.516-5.891h-1.793l-2.525 5.891h1.456l.505-1.27h2.879l.505 1.27zm-2.398-3.754l.446-1.237.454 1.237.539 1.356H35.73l.539-1.356zm5.892.152l2.306 3.602h1.666v-5.891h-1.338v3.888l-.362-.572-2.138-3.316h-1.742v5.891h1.338V18.8l.27.42z"/></g></svg>