<svg xmlns="http://www.w3.org/2000/svg" viewBox="0 0 653.173 478.16"><defs><clipPath id="a"><path d="M0 0h4898.83v3586H0z"/></clipPath></defs><g clip-path="url(#a)" transform="matrix(.13333 0 0 -.13333 0 478.16)"><path fill="#009f4c" d="M3172.15 3399.54a8.646 8.646 0 0 1-3.92-10.16 8.645 8.645 0 0 1 9.15-5.93c.9.09 91.7 9.43 240.86-18.17 584.71-108.73 908.58-501.44 911.78-505.39 2.15-2.62 5.62-3.77 8.91-2.89 3.28.84 5.76 3.54 6.32 6.88.2 1.26 22.8 126.85 139.52 243.4 115.62 115.54 232.36 151.03 233.53 151.36 3.16.95 5.51 3.6 6.08 6.86a8.74 8.74 0 0 1-3.5 8.45c-3.93 2.82-397.03 280.98-842.17 285.12-416.17 4.07-703.69-157.89-706.56-159.53"/><path fill="#fcd205" d="M3150.1 3374.29a8.624 8.624 0 0 1-6.66-4.61 8.586 8.586 0 0 1 .08-8.09L3377.64 2932c40.07-73.62 298.77-506.35 301.36-510.74 1.7-2.82 4.87-4.42 8.17-4.15a8.72 8.72 0 0 1 7.32 5.5c.1.27 10.67 26.79 56.56 81.24 230.88 273.58 537.84 259.38 540.92 259.2a8.642 8.642 0 0 1 8.03 4.42c1.6 2.87 1.45 6.43-.45 9.14-1.76 2.53-179.9 255.76-481.66 417.85-389.3 209.79-665.06 180.17-667.79 179.83"/><path fill="#00adef" d="M3117.85 3354.3c-1.11-1.34-27.4-33.43-49.69-73.89-320.29-582.75-112.33-1155.57-110.21-1161.3a8.64 8.64 0 0 1 7.52-5.56 8.654 8.654 0 0 1 8.2 4.49c.14.3 17.15 31.04 68.26 76.22 238.3 210.9 559.26 179.78 562.46 179.43a8.68 8.68 0 0 1 8.03 3.71c1.78 2.62 2.01 6 .57 8.83l-238.06 464.05c-41.78 81.56-240.61 498.06-242.63 502.24a8.626 8.626 0 0 1-6.73 4.87c-2.94.35-5.84-.82-7.72-3.09"/><path fill="#ed1c24" d="M3087.95 3359.04c-3.3-1.72-333.42-176.96-562.89-569.33-245.17-419.37-192.97-768.99-192.41-772.46.49-3.15 2.66-5.72 5.63-6.79a8.65 8.65 0 0 1 8.64 1.69c1.27 1.11 129.75 113.11 351.71 112.43 128.54-.23 174.96-26.29 175.42-26.55a8.671 8.671 0 0 1 9.84.81 8.592 8.592 0 0 1 3.17 6.68c0 .93-.15 1.88-.48 2.8-1.01 2.97-54.79 163.52-54.79 398.85 0 204.29 40.52 464.91 191.22 727.71 34.55 59.58 75.27 110.59 75.68 111.1a8.66 8.66 0 0 1-.06 10.9 8.681 8.681 0 0 1-10.68 2.16"/><path fill="#231f20" d="M3484.77 1116.72c-41.51-32.66-102.92-49.13-152.84-49.13-108.81 0-202.46 83.31-202.46 209.41 0 63.98 24.98 105.13 67.63 138.96 72.35-107.39 182.69-208.76 302.59-287.23-4.7-4.35-9.79-8.16-14.92-12.01zm-168.93 672.15c63.95 0 85.74-50.82 85.74-108 0-75.09-61.78-114.65-122.93-142.31-30.84 54.35-48.88 106.66-48.88 154.28 0 48 35.19 96.03 86.07 96.03zm599.86-775.27c-76.38 22.91-183.77 84.8-291.91 164.94 20.78 33.98 39.47 70.83 55.04 108.79 34.14 83.63 49.9 125.96 127.38 133.87v35.89c-42.07-1.99-85.84-2.66-130.06-2.66-42.17 0-84.69.67-127.37 2.66v-35.89c28.92-6.75 59.48-9.32 88.13-17.9 0-33.32-18.65-91.98-34.98-131.54a532.713 532.713 0 0 0-28.41-54.15c-99.14 79.54-193.9 172.94-258.62 264.66 93.26 43.89 202.19 96.98 202.19 209.41 0 107.47-77.61 163.16-186.16 163.16-118.85 0-218.33-87-218.33-199.12 0-56.34 16.54-114.16 44.51-170.95-107.44-54.16-179.82-120.22-179.82-243.84 0-180.09 145.34-267.961 307.28-267.961 117.01 0 205.63 46.631 274.16 119.451 122.09-70.99 248.73-117.15 350.57-121.299l6.4 42.479M3465.5 408.98c-9.18 34.481-26.02 74.129-67.77 74.129-31.54 0-68.82-26.859-92.85-47.238v-292.32c0-94.79 41-81.63 116.96-89.762V16.56c-66.78 0-134.95 2.78-201.25 2.78-49.95 0-99.34 0-149.59-2.78v37.23l79.74 12.883v353.437c0 41.672-3.47 76.161-56.6 76.161-10.39 0-20.14 0-30.36-1.008v36.136c38.8 9.34 77.78 19.5 116.61 29.493 26.33 7.859 61.29 20.589 86.56 20.589 38.83 0 37.93-50.082 37.93-77.992V490.43c37.08 40.968 95.49 93.64 154.98 93.64 53.86 0 96.45-29.66 96.45-87.148 0-47.152-44.42-87.133-90.81-87.942M2350.81 19.34c-52.53 0-105.41 0-157.61-2.781v37.23l77.11 12.883v278.316c0 62.063-1.6 140.961-85.27 140.961-41.91 0-104.97-21.437-141.07-42.488V124.238c0-59.656 21.32-64.988 76.13-70.449V16.56c-53.77 0-107.68 2.78-160.37 2.78-50.46 0-100.29 0-150.48-2.78v37.23l79.84 12.883v346.93c0 44.339-.75 82.668-55.87 82.668-10.21 0-20.28 0-30.38-1.008v36.136c38.88 9.34 77.73 19.5 116.73 29.493 35.31 9.507 65.21 20.589 86.19 20.589 44.95 0 38.21-58.378 38.21-88.039 61.08 37.047 160.48 88.039 232.45 88.039 46.85 0 81.84-10.058 112.76-46.402 37.28-42.656 34.92-113.109 34.92-167.098V127.039c0-76.93 40.32-64.039 98.64-73.25V16.56c-56.57 0-114.33 2.78-171.93 2.78M705.973 996.02H0v37.21l130.68 23.02v644.94c0 76.83-22.899 96.31-120.735 98.98v37.17h417.59v-37.17l-120.523-20.22v-646.67c0-71.53 16.566-79.6 120.523-79.6 164.281 0 219.891 14.72 259.074 180.2h40.934l-21.57-237.86M1222.21 378.031c-57.5 0-80.49-15.492-80.49-75.89V63C1055.16 26.93 950.445 0 823.555 0 568.398 0 398.809 177.859 398.809 426.461c0 244.059 193.539 442.578 444.98 442.578 122.449 0 220.791-29.73 293.001-55.469l-1.65-212.761h-36.31c-12.01 65.062-34.25 119.863-75.82 157.75-39.936 35.261-92.826 55.242-156.803 55.242-216.715 0-268.199-250.711-268.199-394.602 0-147.687 52.699-364.43 243.961-364.43 104.078 0 132.562 32.563 132.562 141.18v166.59l-102.992 15.492v41.168h367.421v-41.168h-16.75"/><path fill="#231f20" d="M3847.85 294.82c-82.54 0-201.85-14.82-201.85-128.941 0-57.641 26.15-93.809 86.54-93.809 48.81 0 86.66 35.328 102.56 74.309 11.13 29.73 12.75 53.82 12.75 86.32zM3973.18 9.309c-58.47 0-98.06 11.273-119.57 71.101-39.8-59.828-117.36-76.77-174.78-76.77-103.91 0-200.3 44.45-200.3 159.239 0 183.769 238.36 185.633 369.32 185.633v70.687c0 68.731-32.26 95.531-104.88 95.531-47.36 0-99.1-14.878-143.03-30.609v68.641c61.04 17.636 121.47 29.558 196.08 29.558 52.81 0 126.11-10.898 165.78-49.129 42.69-40.769 41.11-91.793 41.11-147.562V133.32c0-44.34 13.26-79.53 57.66-79.53 38.84 0 79.64 3.64 117.44 7.151V697.59c0 45.238-.59 83.48-55.41 83.48-9.96 0-20.02-.879-30.71-1.89v36.129c38.97 8.992 77.91 19.41 117.19 29.402 35.16 9.41 65.12 20.75 86.04 20.75 44.72 0 38.01-56.652 38.01-88.313v-652.91c0-60.328 35.15-63.297 127.79-70.449V16.56c-163.26 0-324.42-7.25-487.74-7.25M2230.5 1274.18c-83.59 0-203.02-14.57-203.02-128.82 0-57.36 26.05-94.61 85.98-94.61 50.12 0 88.46 36.18 103.14 74.98 11.01 28.88 13.9 54.06 13.9 86.45zm125.4-285.489c-59.67 0-98.65 11.11-120.05 71.369-39.89-60.259-117.53-77.951-175.76-77.951-103.27 0-200.43 44.651-200.43 159.611 0 183.77 238.82 186.44 370.84 186.44v70.55c0 68.66-33.15 94.55-105.74 94.55-47.51 0-100.12-14.61-142.94-29.67v68.58c61.39 16.74 120.59 29.07 197.02 29.07 51.66 0 125.89-10.34 165.89-48.46 41.7-40.85 39.6-92.67 39.6-148.48v-251.4c0-44.5 13.36-80.71 58.6-80.71 38.23 0 78.94 3.75 117.93 8.41v636.43c0 45.53-1.04 83.32-56.15 83.32-9.95 0-20.04-1.99-30.17-2.75v37.28c38.91 9.16 77.88 19.39 115.98 29.61 35.09 9.17 64.66 20.49 87.31 20.49 43.5 0 37.5-57.61 37.5-88.12v-653.03c0-60.6 34.59-63.23 128.21-71.64v-36.17c-164.11 0-324.64-7.329-487.64-7.329M2796.72 527.41c-87.87 0-121.37-101.801-125.12-175.121l149.36 14.883c39.16 3.879 62.99 9.207 62.99 54.797 0 52-30.53 105.441-87.23 105.441zM3044.2 307l-374.51-5.672c3.16-137.437 61.31-227.566 208.73-227.566 40.02 0 87.63 8.507 121.91 19.636V45.11c-64.28-28.55-118.88-40.687-191.59-40.687-174.05 0-308.62 113.988-308.62 292.43 0 176.097 131.6 284.628 302.32 284.628 136.28 0 244.02-93.55 244.02-232.968 0-12.93-.78-27.871-2.26-41.512"/><path fill="#231f20" d="M1633.05 970.102c-48.29 0-71.57-4.793-119.64-4.793-31.75 0-60.97 2.972-84.29 10.293-15.82-12.141-31.62-40.793-31.62-60.293 0-76.84 74.39-105.661 182.16-105.661 121.09 0 193.52 38.981 193.52 97.422 0 64.719-88.05 63.032-140.13 63.032zm-41.53 532.688c-66.78 0-95.47-53.86-95.47-125.3 0-82.84 21.19-164.29 103.71-164.29 66.98 0 93.66 51.89 93.66 124.27 0 76.98-21.2 165.32-101.9 165.32zm320.12 4.48c-26.07 19.47-55.02 35.13-87.3 35.13-24.99 0-37.37-25.82-45.58-45.32 36.25-29.71 58.6-82.63 58.6-128.91 0-134.29-109.49-212.61-236.65-212.61-26.53 0-52.58.91-78.75 7.49-13.93-17.69-35.24-34.32-56.48-42.66 1.7-27.16 32.4-28.64 52.72-28.64 44.41 0 88.28 3.48 131.71 3.48 97.46 0 206.71-29.8 206.71-146.421 0-164.329-165.86-232.797-306.73-232.797-98.36 0-253.44 44.648-253.44 166.629 0 55.847 44.57 92.961 90.89 114.328-38.16 22.971-50.01 66.801-50.01 109.431 0 7.59.87 14.68 1.95 22.33 38.02 4.55 109.45 23.08 133.73 52.83-76.55 29.78-120.03 89.1-120.03 171.59 0 140.11 120.7 208.09 247.73 208.09 47.49 0 103.81-11.34 143.68-38.16 14.97 58.14 60.46 99.12 121.86 99.12 24.87 0 77.67-7.49 77.67-41.67 0-27.77-15.09-52.94-32.28-73.26M1052.71 1502.79c-87.081 0-121.651-103.16-125.327-175.44l149.667 13.8c38.77 3.75 63.18 10.42 63.18 54.8 0 52-30.65 106.84-87.52 106.84zm247.63-222.05l-374.711-5.39c3.723-136.46 61.187-227.4 209.681-227.4 40.08 0 86.63 8.3 120.83 19.64v-47.65c-63.81-29.491-119.08-40.831-190.34-40.831-174.437 0-308.82 113.451-308.82 291.551 0 177.29 130.672 285.71 301.17 285.71 137.62 0 244.43-93.6 244.43-232.72 0-14.16-1.04-29-2.24-42.91M1549.89 527.41c-87.27 0-121.46-101.801-124.56-175.121l148.85 14.883c38.71 3.879 62.87 9.207 62.87 54.797 0 52-30.57 105.441-87.16 105.441zM1797.22 307l-374.69-5.672c3.99-137.437 61.55-227.566 210.05-227.566 39.64 0 85.75 8.507 120.27 19.636V45.11c-64.25-28.55-118.4-40.687-190.24-40.687-174.39 0-308.68 113.988-308.68 292.43 0 176.097 130.29 284.628 301.39 284.628 137.05 0 244.03-93.55 244.03-232.968 0-12.93-1.12-27.871-2.13-41.512M3385.21 2936.13c-17.67 32.66-234.1 429.58-234.1 429.58s271.29 32.07 662.7-178.83c303.42-163.02 478.65-415.19 478.65-415.19s-311.42 18.09-548.01-262.27c-47.87-56.81-58.02-83.7-58.02-83.7s-260.75 436.1-301.22 510.41zm-349-735.4c-53.22-47.03-70.16-78.58-70.16-78.58s-212.42 568.09 109.67 1154.11c22.17 40.23 48.79 72.55 48.79 72.55s200.41-419.85 242.73-502.48c42.55-82.98 238.05-464.04 238.05-464.04s-324.98 34.48-569.08-181.56zm-337.54-67.5c-228.28.67-357.49-114.63-357.49-114.63s-55.11 345.19 191.34 766.76c230.87 394.77 559.43 566.02 559.43 566.02s-41.13-51.29-76.42-112.2c-330.2-575.78-137.11-1133.7-137.11-1133.7s-46.29 27.5-179.75 27.75zm1179.96 1417.2c447.54-4.17 837.21-283.49 837.21-283.49s-118.44-34.92-237.19-153.54c-120.25-120.11-141.91-248.06-141.91-248.06s-321.99 397.83-916.94 508.44c-152.42 28.22-243.35 18.26-243.35 18.26s283.55 162.48 702.18 158.39zm635.67-2052.1s-15.73 8.44-46.37-9.25c-27.13-16.58-24.3-34.15-24.3-34.15s1.31-2.48 1.31-2.8c7.77-12.6 39.55-68.41 53.32-100.56 14.47-32.72 17.81-75.72-32.83-110.79-27.09-18.42-77.99-31.08-118.91-10.51-9.41 4.42-23.59 15.25-35.54 31.9-17.41 24.18-228.81 416.69-228.81 416.69l-351.23 649.73s-8.38 16-7.31 23.56c1.76 12.49 5.1 17.58 9.46 24.32 228.2 367.72 653.14 329.26 653.14 329.26s-2.15 47.56 10.23 112.13c70.49 356.68 500.92 434.59 500.92 434.59s-168.42 135.84-427.87 228.84c-188.77 67.98-342.46 104.13-579.31 104.3-278.29.16-522.62-83.73-551-92.47-77.34-24.23-192.62-83.47-192.62-83.47l-105.41 162.95s-3.94 2.5-11.74-1.58c-6.92-3.77-7.09-8.91-7.09-8.91l69.01-179.72s-24.97-12.32-55.85-31.01c-57.12-34.89-149.07-90.03-294.07-228.99-87.57-83.99-212.09-237.25-308.62-413.26-224.57-410.96-171.96-827.98-171.96-827.98s176.82 186.14 440.4 183.69c165.7-1.75 261.97-52.66 261.97-52.66s38.4 68.4 112.33 134.2c135.21 120.63 343.35 171.39 496.81 170.11 34.22-.18 52.17-1.35 63.71-4.98 9.61-3.19 15.59-11.69 15.59-11.69l578.03-1062.13s44.51-104.64 173.73-99.04c125.78 5.23 189.1 91.38 189.1 176.59.47 70.72-64.02 161.04-76.45 181.01l-1.77 2.08"/><path fill="none" stroke="#231f20" stroke-width="1.244" d="M3385.21 2936.13c-17.67 32.66-234.1 429.58-234.1 429.58s271.29 32.07 662.7-178.83c303.42-163.02 478.65-415.19 478.65-415.19s-311.42 18.09-548.01-262.27c-47.87-56.81-58.02-83.7-58.02-83.7s-260.75 436.1-301.22 510.41zm-349-735.4c-53.22-47.03-70.16-78.58-70.16-78.58s-212.42 568.09 109.67 1154.11c22.17 40.23 48.79 72.55 48.79 72.55s200.41-419.85 242.73-502.48c42.55-82.98 238.05-464.04 238.05-464.04s-324.98 34.48-569.08-181.56zm-337.54-67.5c-228.28.67-357.49-114.63-357.49-114.63s-55.11 345.19 191.34 766.76c230.87 394.77 559.43 566.02 559.43 566.02s-41.13-51.29-76.42-112.2c-330.2-575.78-137.11-1133.7-137.11-1133.7s-46.29 27.5-179.75 27.75zm1179.96 1417.2c447.54-4.17 837.21-283.49 837.21-283.49s-118.44-34.92-237.19-153.54c-120.25-120.11-141.91-248.06-141.91-248.06s-321.99 397.83-916.94 508.44c-152.42 28.22-243.35 18.26-243.35 18.26s283.55 162.48 702.18 158.39zm635.67-2052.1s-15.73 8.44-46.37-9.25c-27.13-16.58-24.3-34.15-24.3-34.15s1.31-2.48 1.31-2.8c7.77-12.6 39.55-68.41 53.32-100.56 14.47-32.72 17.81-75.72-32.83-110.79-27.09-18.42-77.99-31.08-118.91-10.51-9.41 4.42-23.59 15.25-35.54 31.9-17.41 24.18-228.81 416.69-228.81 416.69l-351.23 649.73s-8.38 16-7.31 23.56c1.76 12.49 5.1 17.58 9.46 24.32 228.2 367.72 653.14 329.26 653.14 329.26s-2.15 47.56 10.23 112.13c70.49 356.68 500.92 434.59 500.92 434.59s-168.42 135.84-427.87 228.84c-188.77 67.98-342.46 104.13-579.31 104.3-278.29.16-522.62-83.73-551-92.47-77.34-24.23-192.62-83.47-192.62-83.47l-105.41 162.95s-3.94 2.5-11.74-1.58c-6.92-3.77-7.09-8.91-7.09-8.91l69.01-179.72s-24.97-12.32-55.85-31.01c-57.12-34.89-149.07-90.03-294.07-228.99-87.57-83.99-212.09-237.25-308.62-413.26-224.57-410.96-171.96-827.98-171.96-827.98s176.82 186.14 440.4 183.69c165.7-1.75 261.97-52.66 261.97-52.66s38.4 68.4 112.33 134.2c135.21 120.63 343.35 171.39 496.81 170.11 34.22-.18 52.17-1.35 63.71-4.98 9.61-3.19 15.59-11.69 15.59-11.69l578.03-1062.13s44.51-104.64 173.73-99.04c125.78 5.23 189.1 91.38 189.1 176.59.47 70.72-64.02 161.04-76.45 181.01z"/></g></svg>