<svg xmlns="http://www.w3.org/2000/svg" baseProfile="full" viewBox="0 0 444.01 151.19"><path fill="#706CF5" d="M87.803 0c37.431 0 62.865 25.434 62.865 62.865v25.462l-.049 2.814c-1.244 35.886-26.331 60.051-62.816 60.051H62.865C25.434 151.192 0 126.576 0 89.145V62.046C0 25.733 23.938 1.481 59.544.066L62.864 0h24.94z"/><g fill="#FFF"><path d="M97.17 108.671a39.448 39.448 0 0 1-21.84 6.556c-15.537 0-28.986-8.941-35.482-21.958-3.282-1.729-6.288-3.534-8.975-5.381 5.38 19.5 23.246 33.82 44.456 33.82 12.595 0 24.01-5.049 32.333-13.234-3.25.271-6.767.339-10.492.197zM36.553 83.822c-2.666-1.633-5.086-3.313-7.226-5.013-7.937-6.306-12.015-12.898-10.492-18.494 1.52-5.581 8.342-9.192 18.334-10.614 8.296-12.203 22.292-20.218 38.16-20.218 24.455 0 44.463 19.036 46.016 43.098 7.934 6.304 12.01 12.895 10.487 18.49-1.527 5.61-8.413 9.23-18.49 10.636-2.71.379-5.651.597-8.781.65-10.203.175-22.41-1.398-35.16-4.868-12.785-3.48-24.132-8.328-32.848-13.667zm73.123 11.559a39.436 39.436 0 0 0 5.284-19.539l.001-.246c0-21.888-17.744-39.631-39.632-39.631-14.552 0-27.272 7.843-34.164 19.533a39.448 39.448 0 0 0-5.467 20.067c8.256 5.525 20.733 10.973 35.165 14.901 14.897 4.055 28.819 5.658 38.813 4.915zm7.92-1.32c3.975-1.166 6.537-3.011 7.219-5.518.695-2.55-.637-5.497-3.578-8.575l-.061.611a45.819 45.819 0 0 1-3.58 13.483zM33.422 56.33l.334-.71c-4.689 1.154-7.682 3.104-8.428 5.844-.738 2.711.814 5.87 4.154 9.16a45.813 45.813 0 0 1 3.94-14.294z"/></g><g fill="#231F20"><path d="M308.26 48.786l-.294-17.028h5.373v21.475h-7.725l-5.362-17.621h-.12l.3 17.62h-5.33V31.759h8.05l4.991 17.028h.117zM210.63 33.76l-2.969 19.696h-5.863l4.02-21.697h9.657l3.998 21.697h-5.827l-2.895-19.695h-.121zM235.922 48.348l2.681-16.59h8.845l.482 21.697h-5.431l-.14-19.511-.117.005-3.624 19.506h-5.502l-3.628-19.511h-.121l-.137 19.51h-5.424l.48-21.695h8.848l2.669 16.59h.119zM192.666 47.33c.214.524.143 1.2.043 1.61-.177.707-.665 1.446-2.112 1.446-1.355 0-2.183-.776-2.183-1.958l-.004-2.106h-5.818V48c0 4.838 3.809 6.294 7.882 6.294 3.932 0 7.155-1.334 7.674-4.952.265-1.878.069-3.107-.022-3.566-.92-4.545-9.152-5.89-9.766-8.438a2.752 2.752 0 0 1-.025-1.134c.157-.697.627-1.457 1.983-1.457 1.274 0 2.017.784 2.017 1.964v1.339h5.415v-1.517c0-4.729-4.245-5.467-7.317-5.467-3.857 0-7.005 1.278-7.585 4.82-.156.956-.179 1.824.054 2.92.939 4.433 8.647 5.718 9.764 8.524zM263.209 47.287c.203.52.142 1.186.042 1.595-.175.714-.663 1.429-2.095 1.429-1.347 0-2.159-.761-2.159-1.936l-.002-2.087h-5.763l-.004 1.659c0 4.794 3.773 6.23 7.812 6.23 3.885 0 7.08-1.314 7.589-4.9.264-1.856.07-3.073-.021-3.533-.909-4.496-9.061-5.83-9.663-8.352a2.741 2.741 0 0 1-.028-1.114c.155-.694.619-1.447 1.963-1.447 1.26 0 1.996.776 1.996 1.936v1.33h5.361v-1.498c0-4.68-4.205-5.41-7.24-5.41-3.821 0-6.941 1.25-7.51 4.764-.159.95-.183 1.81.048 2.892.933 4.394 8.565 5.667 9.674 8.442zM281.419 50.194c1.507 0 1.975-1.024 2.083-1.564.047-.235.054-.55.052-.83V31.755h5.501v15.55c.004.4-.037 1.218-.06 1.433-.378 4.045-3.585 5.353-7.576 5.353-3.988 0-7.193-1.308-7.568-5.353a20.75 20.75 0 0 1-.052-1.434V31.755h5.485v16.046c-.004.28.007.594.052.829.11.54.578 1.564 2.083 1.564zM326.685 49.972c1.568 0 2.117-.989 2.218-1.568.042-.246.058-.55.05-.826v-3.146h-2.222V41.26h7.678v5.821c-.003.407-.008.708-.068 1.432-.362 3.948-3.794 5.362-7.635 5.362-3.845 0-7.273-1.414-7.629-5.362a15.117 15.117 0 0 1-.076-1.432l.002-9.128c0-.39.047-1.072.092-1.42.482-4.07 3.766-5.362 7.614-5.362 3.844 0 7.218 1.281 7.618 5.362.063.676.04 1.42.043 1.42v.722h-5.467v-1.219s-.005-.515-.07-.816c-.099-.477-.51-1.58-2.17-1.58-1.573 0-2.04 1.044-2.16 1.58a5.046 5.046 0 0 0-.088 1.016v9.923c-.002.276.011.58.05.826.104.58.65 1.568 2.22 1.568zM175.991 69.248h9.465v50.807h-9.465zM191.784 79.338h9.328v5.563c1.342-1.7 3.048-3.063 5.116-4.09 2.061-1.029 4.417-1.543 7.062-1.543 5.059 0 9.018 1.504 11.866 4.512 2.856 3.004 4.282 7.193 4.282 12.568v23.706h-9.532V97.41c0-3.084-.77-5.52-2.3-7.313-1.529-1.79-3.829-2.684-6.888-2.684-2.696 0-4.956.928-6.792 2.787-1.829 1.86-2.745 4.533-2.745 8.026v21.828h-9.397V79.338zM231.664 79.338h6.961v-6.193l9.464-6.473v12.666h8.282v8.423h-8.282v15.243c0 1.764.092 3.19.278 4.278.188 1.091.573 1.926 1.15 2.507.578.58 1.416.963 2.504 1.149 1.094.184 2.543.278 4.35.278v8.838h-1.32c-3.155 0-5.788-.277-7.902-.834-2.112-.559-3.789-1.496-5.046-2.819-1.251-1.323-2.146-3.064-2.679-5.219-.532-2.158-.799-4.862-.799-8.112V87.761h-6.961v-8.423zM279.345 87.551c-2.827 0-5.28.627-7.341 1.875-2.068 1.252-3.518 2.9-4.351 4.945h23.109c-.696-2.234-2.044-3.93-4.037-5.086-1.995-1.155-4.459-1.734-7.38-1.734zm.351 32.575c-3.202 0-6.128-.527-8.774-1.577-2.64-1.052-4.905-2.494-6.785-4.328-1.876-1.832-3.336-3.991-4.384-6.475-1.043-2.48-1.564-5.131-1.564-7.948 0-2.861.544-5.547 1.636-8.052 1.089-2.504 2.584-4.673 4.488-6.505 1.901-1.835 4.14-3.288 6.717-4.362 2.576-1.073 5.346-1.61 8.315-1.61 3.019 0 5.811.489 8.388 1.469 2.577.977 4.792 2.347 6.649 4.11a19.064 19.064 0 0 1 4.351 6.231c1.041 2.394 1.563 5.003 1.563 7.832v3.327h-33.13c.651 2.877 2.062 5.197 4.243 6.959 2.181 1.764 4.945 2.645 8.287 2.645 2.645 0 4.938-.649 6.888-1.949 1.948-1.299 3.409-3.038 4.384-5.219l7.725 4.455c-1.763 3.293-4.231 5.95-7.409 7.969-3.183 2.016-7.04 3.028-11.588 3.028zM304.47 79.338h9.329v6.056c1.903-4.036 5.38-6.056 10.439-6.056 1.483 0 2.82.166 4.004.488 1.178.326 2.237.742 3.167 1.251l-3.552 8.91a10.475 10.475 0 0 0-2.334-1.147c-.856-.303-1.96-.452-3.302-.452-2.74 0-4.815.776-6.23 2.33-1.417 1.555-2.124 4.095-2.124 7.62v21.716h-9.397V79.338zM334.467 79.338h9.328v5.563c1.343-1.7 3.047-3.063 5.115-4.09 2.061-1.029 4.419-1.543 7.064-1.543 5.057 0 9.017 1.504 11.865 4.512 2.855 3.004 4.282 7.193 4.282 12.568v23.706h-9.532V97.41c0-3.084-.77-5.52-2.3-7.313-1.528-1.79-3.828-2.684-6.887-2.684-2.696 0-4.957.928-6.792 2.787-1.829 1.86-2.747 4.533-2.747 8.026v21.828h-9.396V79.338zM397.383 87.551c-2.826 0-5.279.627-7.34 1.875-2.068 1.252-3.519 2.9-4.351 4.945h23.109c-.696-2.234-2.044-3.93-4.038-5.086-1.994-1.155-4.458-1.734-7.38-1.734zm.352 32.575c-3.202 0-6.13-.527-8.774-1.577-2.64-1.052-4.905-2.494-6.785-4.328-1.876-1.832-3.337-3.991-4.384-6.475-1.044-2.48-1.564-5.131-1.564-7.948 0-2.861.544-5.547 1.636-8.052 1.088-2.504 2.584-4.673 4.487-6.505 1.902-1.835 4.14-3.288 6.718-4.362 2.576-1.073 5.346-1.61 8.314-1.61 3.02 0 5.81.489 8.389 1.469 2.577.977 4.792 2.347 6.649 4.11a19.047 19.047 0 0 1 4.35 6.231c1.042 2.394 1.564 5.003 1.564 7.832v3.327h-33.13c.651 2.877 2.062 5.197 4.243 6.959 2.181 1.764 4.945 2.645 8.287 2.645 2.644 0 4.938-.649 6.888-1.949 1.948-1.299 3.408-3.038 4.382-5.219l7.727 4.455c-1.763 3.293-4.232 5.95-7.409 7.969-3.184 2.016-7.04 3.028-11.588 3.028zM419.303 79.338h6.961v-6.193l9.464-6.473v12.666h8.281v8.423h-8.281v15.243c0 1.764.091 3.19.278 4.278.187 1.091.572 1.926 1.15 2.507.578.58 1.415.963 2.504 1.149 1.092.184 2.543.278 4.349.278v8.838h-1.319c-3.155 0-5.79-.277-7.902-.834-2.113-.559-3.79-1.496-5.046-2.819-1.252-1.323-2.147-3.064-2.68-5.219-.532-2.158-.798-4.862-.798-8.112V87.761h-6.961v-8.423z"/></g></svg>