<svg xmlns="http://www.w3.org/2000/svg" xmlns:xlink="http://www.w3.org/1999/xlink" viewBox="0 0 540 107"><defs><path id="a" d="M0 .673h539.371V106.94H0z"/></defs><g fill="none" fill-rule="evenodd"><mask id="b" fill="#fff"><use xlink:href="#a"/></mask><path fill="#6F8F9D" d="M180.038 89.01h-46.399c-1.549-.002-2.718-1.172-2.722-2.721v-5.663c-.031-1.388.414-2.007 1.269-3.067l36.931-42.936h-36.186c-1.55-.003-2.719-1.173-2.722-2.721V27.89c.003-1.547 1.172-2.717 2.722-2.719h46.871c1.549.002 2.718 1.172 2.721 2.718v5.783c.021 1.044-.34 1.931-1.174 2.861l-37.025 43.023h35.713c1.549.004 2.718 1.174 2.722 2.721v4.011c-.004 1.55-1.173 2.72-2.721 2.722zm91.467 1.179h.004c3.324-.064 5.782-.722 6.744-1.801.341-.384.5-.825.457-1.262-.022-.36-.022-.36-.934-4.631l-.022-.101c-.197-1.117-.995-1.625-1.651-1.625l-.09.008s-.834-.04-1.659-.04h-.007c-2.369-.075-4.332-.42-4.372-3.887V4.332c-.003-1.209-.731-2.451-2.131-2.483l-.413.004-6.477 1.659c-1.103.113-2.251.898-2.203 2.355v71.22c.012 8.435 4.539 13.088 12.748 13.102h.006zm130.967-1.179h-5.782c-1.548-.002-2.716-1.172-2.721-2.721V42.638c-.105-7.385-2.311-9.439-10.263-9.549-8.994 0-18.102 2.256-21.102 3.075v50.124c-.003 1.576-1.097 2.72-2.603 2.722h-5.9c-1.549-.002-2.719-1.172-2.721-2.721v-48.96c-.086-4.533.339-7.666 6.786-9.751 6.172-2.131 17.982-3.937 25.785-3.943 14.869.019 21.219 5.384 21.239 17.94v44.713c-.002 1.55-1.169 2.72-2.718 2.722zm58.101-54.133c-2.159-.55-8.183-1.907-14.969-1.907-12.461.116-17.69 3.501-17.819 24.182.146 22.709 6.907 23.936 17.93 24.056l.008.476v-.476c6.859 0 12.746-1.431 14.845-2.008l.005-44.323zm3.037 53.285l-.686.173c-3.678.932-8.717 2.209-17.55 2.209h-.019c-24.342-.036-29.119-12.315-29.145-33.512.03-24.313 7.736-33.363 28.436-33.397 7.303 0 12.333.945 15.944 1.817l-.022-19.583c-.031-.859.359-1.984 2.391-2.37l6.464-1.65h.352c1.487.037 2.013 1.361 2.015 2.482v73.581c.101 4.647-.446 8.633-8.18 10.25zm47.203-7.072c-15.954-.071-16.755-8.259-16.864-23.937.109-15.765.908-23.995 16.861-24.064 15.957.069 16.756 8.299 16.864 24.056-.108 15.686-.909 23.874-16.861 23.945zm-.002-57.455c-26.301.036-28.53 17.318-28.556 33.515.026 16.138 2.255 33.358 28.556 33.394h.002c26.281-.036 28.521-17.21 28.558-33.396-.028-16.938-2.257-33.477-28.56-33.513zM328.516 57.49c-2.636.031-15.411.236-20.499 1.323l-.398.089c-5.721 1.277-10.239 2.284-10.293 10.755.01 10.65 8.163 11.606 16.513 11.669l.006.476v-.476c5.227 0 10.16-.74 14.67-2.204l.001-21.632zm11.281-15.559V75.79c.114 8.419-2.049 11.108-10.523 13.075-3.711.769-9.396 1.678-15.556 1.679h-.001c-9.077-.019-27.962-.057-27.968-20.419-.061-16.039 9.573-18.826 21.214-20.614 7.629-1.224 15.385-1.406 19.33-1.406 1.064 0 1.756.007 2.164.014v-5.718c-.036-3.822-.058-6.132-3.63-7.484-2.202-.932-5.487-1.356-10.373-1.356-8.054 0-15.267 1.804-20.04 2.999l-1.824.425a3.063 3.063 0 0 1-.678.115h-.003c-.842 0-1.765-.497-2.103-1.607l-.027-.102-1.079-5.448-.001-.283c.015-1.283.944-2.035 1.814-2.313 3.848-1.434 14.018-3.706 24.974-3.712 8.007.004 13.788 1.044 17.679 3.184 6.658 3.52 6.643 9.948 6.631 15.112zm-105.69 37.191c-4.51 1.464-9.443 2.204-14.669 2.204v.476l-.007-.476c-8.348-.063-16.503-1.019-16.513-11.669.054-8.471 4.573-9.478 10.294-10.755l.396-.089c5.089-1.087 17.865-1.292 20.499-1.323v21.632zm4.65-52.303c-3.888-2.14-9.671-3.18-17.678-3.184-10.955.006-21.126 2.278-24.974 3.712-.87.278-1.799 1.03-1.814 2.313l.002.283 1.078 5.448.027.102c.337 1.11 1.262 1.607 2.102 1.607h.004c.272-.012.483-.064.679-.115l1.823-.425c4.772-1.195 11.985-2.999 20.04-2.999 4.886 0 8.17.424 10.372 1.356 3.573 1.352 3.596 3.662 3.632 7.484v5.718c-.409-.007-1.1-.014-2.164-.014-3.945 0-11.702.182-19.331 1.406-11.642 1.788-21.273 4.575-21.213 20.614.004 20.362 18.89 20.4 27.966 20.419h.001c6.161-.001 11.846-.91 15.558-1.679 8.472-1.967 10.635-4.656 10.523-13.075V41.931c.011-5.164.027-11.592-6.633-15.112z" mask="url(#b)"/><path fill="#E77A39" d="M21.49 107c-3.935 0-6.119-.919-7.287-1.595-1.616-.93-4.601-3.305-7.273-10.34C2.644 83.796.113 70.037 0 53.865v-.058c.113-16.172 2.644-29.929 6.93-41.2 2.672-7.033 5.657-9.409 7.273-10.341 1.168-.676 3.35-1.593 7.283-1.593 1.501 0 3.257.134 5.309.465 11.902 1.925 25.082 6.613 39.142 14.601l.053.028c13.947 8.183 24.598 17.254 32.215 26.599 4.754 5.834 5.319 9.605 5.319 11.47 0 1.864-.565 5.637-5.319 11.469-7.617 9.346-18.268 18.418-32.215 26.6l-.053.031c-14.06 7.986-27.24 12.675-39.142 14.599-2.051.332-3.805.465-5.305.465" mask="url(#b)"/></g></svg>